<svg xmlns="http://www.w3.org/2000/svg" viewBox="0 0 470 470" width="470" height="470">
	<style>
		tspan { white-space:pre }
		.shp0 { fill: #ffffff } 
	</style>
	<g id="Layer">
		<path id="Layer" class="shp0" d="M469.33,103.6c0,27.7 -10.8,53.7 -30.4,73.3l-268.6,268.5c-2.5,2.6 -6,4 -9.5,4c-3.5,0 -7,-1.5 -9.5,-4l-108.2,-108.2l-13.9,102.8l71.2,-9.6c7.4,-1 14.2,4.2 15.2,11.6c1,7.4 -4.2,14.2 -11.6,15.2l-88.8,12c-0.6,0.1 -1.2,0.1 -1.8,0.1c-3.5,0 -7,-1.5 -9.5,-4c-2.9,-2.9 -4.4,-7.1 -3.8,-11.3l19.9,-147.4c0.4,-2.9 1.7,-5.6 3.8,-7.7l268.6,-268.5c40.4,-40.5 106.1,-40.5 146.5,0c19.6,19.5 30.4,45.5 30.4,73.2zM52.53,308.5l45.1,45.1l245.1,-245.1l-45.1,-45.1zM406.03,171.7l-44.1,-44.1l-245.1,245.1l44.1,44.1zM442.33,103.6c0,-20.5 -7.9,-39.8 -22.4,-54.2c-14.5,-14.4 -33.7,-22.4 -54.2,-22.4c-18,0 -35.1,6.2 -48.8,17.5l107.9,107.9c11.3,-13.7 17.5,-30.7 17.5,-48.8z" />
	</g>
	<g id="Layer">
	</g>
	<g id="Layer">
	</g>
	<g id="Layer">
	</g>
	<g id="Layer">
	</g>
	<g id="Layer">
	</g>
	<g id="Layer">
	</g>
	<g id="Layer">
	</g>
	<g id="Layer">
	</g>
	<g id="Layer">
	</g>
	<g id="Layer">
	</g>
	<g id="Layer">
	</g>
	<g id="Layer">
	</g>
	<g id="Layer">
	</g>
	<g id="Layer">
	</g>
	<g id="Layer">
	</g>
</svg>