<svg xmlns="http://www.w3.org/2000/svg" viewBox="0 0 1275 1275" width="1275" height="1275">
	<style>
		tspan { white-space:pre }
		.shp0 { fill: #000000 } 
	</style>
	<g id="Page 1">
		<path id="Path 1" class="shp0" d="M637.5 1225.96C313.04 1225.96 49.04 961.96 49.04 637.5C49.04 313.04 313.04 49.04 637.5 49.04C961.96 49.04 1225.96 313.04 1225.96 637.5C1225.96 961.96 961.96 1225.96 637.5 1225.96ZM637.5 0C285.99 0 0 285.97 0 637.5C0 989.03 285.99 1275 637.5 1275C989.01 1275 1275 989.03 1275 637.5C1275 285.97 989.01 0 637.5 0ZM956.25 612.98L318.75 612.98C305.21 612.98 294.23 623.94 294.23 637.5C294.23 651.06 305.21 662.02 318.75 662.02L956.25 662.02C969.78 662.02 980.77 651.06 980.77 637.5C980.77 623.94 969.78 612.98 956.25 612.98Z" />
	</g>
</svg>