<svg xmlns="http://www.w3.org/2000/svg" viewBox="0 0 486 486" width="486" height="486">
	<style>
		tspan { white-space:pre }
		.shp0 { fill: #AAAAAA }
	</style>
	<g id="Layer">
		<g id="Layer">
			<path id="Layer" class="shp0" d="M181.96,363.91c-100.48,0 -181.95,-81.47 -181.95,-181.95c0,-100.48 81.47,-181.95 181.96,-181.95c100.48,0 181.95,81.47 181.95,181.96c0,100.48 -81.47,181.95 -181.95,181.95zM318.42,181.96c0,-75.25 -61.22,-136.46 -136.47,-136.46c-75.25,0 -136.46,61.21 -136.46,136.47c0,75.25 61.21,136.46 136.47,136.46c75.25,0 136.47,-61.21 136.47,-136.46z" />
			<path id="Layer" class="shp0" d="M471.88,407.57l-111.31,-111.32c-16.59,25.8 -38.54,47.73 -64.33,64.32l111.32,111.32c17.77,17.77 46.59,17.77 64.32,0c17.77,-17.74 17.77,-46.55 0,-64.32z" />
		</g>
	</g>
	<g id="Layer">
	</g>
	<g id="Layer">
	</g>
	<g id="Layer">
	</g>
	<g id="Layer">
	</g>
	<g id="Layer">
	</g>
	<g id="Layer">
	</g>
	<g id="Layer">
	</g>
	<g id="Layer">
	</g>
	<g id="Layer">
	</g>
	<g id="Layer">
	</g>
	<g id="Layer">
	</g>
	<g id="Layer">
	</g>
	<g id="Layer">
	</g>
	<g id="Layer">
	</g>
	<g id="Layer">
	</g>
</svg>