<?xml version="1.0" encoding="utf-8"?>
<!-- Generator: Adobe Illustrator 16.0.0, SVG Export Plug-In . SVG Version: 6.00 Build 0)  -->
<!DOCTYPE svg PUBLIC "-//W3C//DTD SVG 1.1//EN" "http://www.w3.org/Graphics/SVG/1.1/DTD/svg11.dtd">
<svg version="1.1" id="Layer_1" xmlns="http://www.w3.org/2000/svg" xmlns:xlink="http://www.w3.org/1999/xlink" x="0px" y="0px"
	 width="139.56px" height="82.564px" viewBox="0 0 139.56 82.564" enable-background="new 0 0 139.56 82.564" xml:space="preserve">
<g>
	<path fill="#d9a91c" d="M47.634,67.435v8.402H11.299v-8.402h13.308V29.147c0-1.514,0.045-3.073,0.136-4.678l-9.447,7.903
		c-0.545,0.424-1.083,0.689-1.612,0.795c-0.53,0.106-1.03,0.113-1.499,0.022c-0.47-0.091-0.886-0.25-1.249-0.477
		c-0.363-0.228-0.636-0.477-0.817-0.75l-3.543-4.86l20.03-17.032h9.22v57.363H47.634z"/>
	<path fill="#d9a91c" d="M99.183,43c0,5.723-0.613,10.696-1.84,14.92c-1.226,4.224-2.922,7.714-5.086,10.469
		c-2.166,2.756-4.724,4.807-7.676,6.154s-6.14,2.021-9.561,2.021c-3.422,0-6.594-0.674-9.515-2.021
		c-2.922-1.347-5.458-3.398-7.608-6.154c-2.15-2.755-3.831-6.245-5.041-10.469c-1.211-4.224-1.817-9.197-1.817-14.92
		c0-5.752,0.605-10.734,1.817-14.943c1.21-4.208,2.891-7.69,5.041-10.446c2.15-2.755,4.686-4.806,7.608-6.154
		c2.921-1.347,6.093-2.021,9.515-2.021c3.421,0,6.608,0.674,9.561,2.021c2.952,1.348,5.51,3.399,7.676,6.154
		c2.164,2.756,3.86,6.238,5.086,10.446C98.569,32.266,99.183,37.248,99.183,43z M87.601,43c0-4.753-0.348-8.69-1.044-11.809
		c-0.697-3.118-1.628-5.601-2.793-7.448c-1.166-1.847-2.505-3.141-4.02-3.883c-1.514-0.742-3.088-1.113-4.723-1.113
		c-1.605,0-3.157,0.371-4.656,1.113c-1.499,0.742-2.824,2.037-3.974,3.883c-1.151,1.847-2.067,4.33-2.748,7.448
		C62.961,34.31,62.621,38.247,62.621,43c0,4.754,0.341,8.69,1.022,11.809c0.681,3.119,1.597,5.602,2.748,7.449
		c1.15,1.847,2.475,3.142,3.974,3.883c1.499,0.742,3.05,1.113,4.656,1.113c1.635,0,3.209-0.371,4.723-1.113
		c1.514-0.742,2.854-2.036,4.02-3.883c1.166-1.847,2.097-4.33,2.793-7.449C87.252,51.69,87.601,47.754,87.601,43z"/>
</g>
<g>
	<path fill="#d9a91c" d="M117.742,29.38c0,1.051-0.176,2-0.528,2.845c-0.353,0.846-0.824,1.567-1.413,2.163
		c-0.59,0.596-1.275,1.054-2.058,1.375c-0.781,0.32-1.596,0.48-2.441,0.48c-0.923,0-1.775-0.16-2.557-0.48
		c-0.782-0.32-1.458-0.779-2.028-1.375c-0.57-0.596-1.016-1.317-1.336-2.163c-0.32-0.846-0.48-1.794-0.48-2.845
		c0-1.077,0.16-2.05,0.48-2.922s0.766-1.608,1.336-2.211s1.246-1.067,2.028-1.394c0.781-0.327,1.634-0.49,2.557-0.49
		s1.778,0.164,2.566,0.49c0.788,0.327,1.471,0.792,2.048,1.394c0.576,0.603,1.025,1.339,1.346,2.211S117.742,28.303,117.742,29.38z
		 M126.989,23.401c0.166-0.192,0.362-0.366,0.586-0.519c0.225-0.154,0.542-0.231,0.952-0.231h3.46L111.34,49.739
		c-0.167,0.205-0.365,0.375-0.597,0.51c-0.23,0.134-0.513,0.202-0.846,0.202h-3.537L126.989,23.401z M114.089,29.38
		c0-0.743-0.074-1.365-0.222-1.865s-0.346-0.903-0.596-1.211s-0.545-0.529-0.884-0.664c-0.34-0.134-0.702-0.202-1.087-0.202
		c-0.384,0-0.743,0.067-1.076,0.202c-0.334,0.135-0.618,0.356-0.855,0.664s-0.427,0.711-0.567,1.211s-0.211,1.122-0.211,1.865
		c0,0.718,0.07,1.317,0.211,1.798c0.141,0.48,0.33,0.868,0.567,1.163s0.521,0.506,0.855,0.634c0.333,0.128,0.692,0.192,1.076,0.192
		c0.385,0,0.747-0.064,1.087-0.192c0.339-0.128,0.634-0.339,0.884-0.634s0.448-0.683,0.596-1.163
		C114.015,30.697,114.089,30.098,114.089,29.38z M133.449,43.914c0,1.051-0.177,1.999-0.529,2.845
		c-0.353,0.846-0.823,1.566-1.413,2.163c-0.59,0.596-1.275,1.057-2.057,1.384c-0.782,0.327-1.596,0.49-2.441,0.49
		c-0.923,0-1.775-0.164-2.557-0.49c-0.782-0.327-1.459-0.789-2.028-1.384c-0.57-0.596-1.017-1.317-1.337-2.163
		c-0.32-0.846-0.48-1.794-0.48-2.845c0-1.077,0.16-2.051,0.48-2.922s0.767-1.608,1.337-2.211c0.569-0.602,1.246-1.067,2.028-1.394
		c0.781-0.327,1.634-0.49,2.557-0.49s1.778,0.163,2.566,0.49c0.788,0.327,1.467,0.792,2.038,1.394
		c0.569,0.603,1.019,1.339,1.346,2.211C133.285,41.863,133.449,42.837,133.449,43.914z M129.777,43.914
		c0-0.743-0.071-1.365-0.212-1.865c-0.142-0.5-0.337-0.903-0.586-1.211c-0.25-0.308-0.545-0.529-0.885-0.663
		c-0.34-0.135-0.702-0.202-1.086-0.202c-0.385,0-0.744,0.067-1.077,0.202c-0.333,0.134-0.621,0.355-0.865,0.663
		c-0.243,0.308-0.432,0.711-0.566,1.211c-0.135,0.5-0.202,1.122-0.202,1.865c0,0.718,0.067,1.32,0.202,1.807
		c0.135,0.487,0.323,0.878,0.566,1.173c0.244,0.295,0.532,0.506,0.865,0.634c0.333,0.128,0.692,0.192,1.077,0.192
		c0.384,0,0.746-0.064,1.086-0.192c0.34-0.128,0.635-0.339,0.885-0.634c0.249-0.294,0.444-0.686,0.586-1.173
		C129.706,45.234,129.777,44.632,129.777,43.914z"/>
</g>
<g>
	<path fill="#d9a91c" d="M105.708,63.596h24.767v9.849h-24.767V63.596z"/>
</g>
</svg>
