<?xml version="1.0" encoding="utf-8"?>
<!-- Generator: Adobe Illustrator 16.0.0, SVG Export Plug-In . SVG Version: 6.00 Build 0)  -->
<!DOCTYPE svg PUBLIC "-//W3C//DTD SVG 1.1//EN" "http://www.w3.org/Graphics/SVG/1.1/DTD/svg11.dtd">
<svg version="1.1" id="Layer_1" xmlns="http://www.w3.org/2000/svg" xmlns:xlink="http://www.w3.org/1999/xlink" x="0px" y="0px"
	 width="284.001px" height="264px" viewBox="0 0 284.001 264" enable-background="new 0 0 284.001 264" xml:space="preserve">
<rect fill="#EFEEEE" width="284.001" height="264"/>
<path fill="#5C2E44" d="M90.458,191.315c0,4.975-4.033,9.008-9.008,9.008h-6.136c-4.975,0-9.008-4.033-9.008-9.008v-6.137
	c0-4.975,4.033-9.008,9.008-9.008h6.136c4.975,0,9.008,4.033,9.008,9.008V191.315z"/>
<path fill="#5C2E44" d="M221.339,191.315c0,4.975-4.033,9.008-9.009,9.008h-6.136c-4.975,0-9.008-4.033-9.008-9.008v-6.137
	c0-4.975,4.033-9.008,9.008-9.008h6.136c4.976,0,9.009,4.033,9.009,9.008V191.315z"/>
<g id="WQA1PN_1_">
</g>
<text transform="matrix(1 0 0 1 72.9575 37.6274)" fill="#C78933" font-family="'Lato-Semibold'" font-size="14">Crea su panorama y confirma</text>
<text transform="matrix(1 0 0 1 142.0005 75.8882)"><tspan x="0" y="0" fill="#963D4C" font-family="'Lato-Semibold'" font-size="14">Informamos a las </tspan><tspan x="0" y="14" fill="#963D4C" font-family="'Lato-Semibold'" font-size="14">agencias elegidas</tspan></text>
<text transform="matrix(1 0 0 1 50.6963 141.9751)" fill="#5E2F46" font-family="'Lato-Bold'" font-size="13">¿La actividad esta confirmada?</text>
<text transform="matrix(1 0 0 1 24.6738 219.4966)"><tspan x="0" y="0" fill="#5E2F46" font-family="'Lato-Semibold'" font-size="13">¡¡Bien!! Importante</tspan><tspan x="10.829" y="12" fill="#5E2F46" font-family="'Lato-Semibold'" font-size="13">recordar de los</tspan><tspan x="30.14" y="24" fill="#5E2F46" font-family="'Lato-Semibold'" font-size="13">horarios</tspan></text>
<g>
	<text transform="matrix(1 0 0 1 161.9888 219.4966)"><tspan x="0" y="0" fill="#5E2F46" font-family="'Lato-Semibold'" font-size="13">Te avisamos y</tspan><tspan x="0.403" y="12" fill="#5E2F46" font-family="'Lato-Semibold'" font-size="13">pronpodemos</tspan><tspan x="-7.195" y="24" fill="#5E2F46" font-family="'Lato-Semibold'" font-size="13">otro panorama :)</tspan></text>
</g>
<g>
	<text transform="matrix(1 0 0 1 202.731 192.5405)" fill="#FFFFFF" font-family="'Lato-Semibold'" font-size="13">no</text>
</g>
<g>
	<text transform="matrix(1 0 0 1 73.9463 192.5405)" fill="#FFFFFF" font-family="'Lato-Semibold'" font-size="13">si</text>
</g>
<path fill="#BF8535" d="M62.133,37.26c0,6.627-5.373,12-12,12h-8.174c-6.627,0-12-5.373-12-12v-8.174c0-6.627,5.373-12,12-12h8.174
	c6.627,0,12,5.373,12,12V37.26z"/>
<path fill="#8F3C4A" d="M137.176,81.975c0,6.627-5.373,12-12,12h-8.174c-6.627,0-12-5.373-12-12v-8.174c0-6.628,5.373-12,12-12
	h8.174c6.627,0,12,5.372,12,12V81.975z"/>
<g>
	<text transform="matrix(1 0 0 1 40.0273 39.3237)" fill="#FFFFFF" font-family="'Lato-Semibold'" font-size="20">1</text>
</g>
<g>
	<text transform="matrix(1 0 0 1 115.2896 83.6714)" fill="#FFFFFF" font-family="'Lato-Semibold'" font-size="20">2</text>
</g>
<line fill="none" stroke="#87868A" stroke-linecap="round" stroke-miterlimit="10" stroke-dasharray="2" x1="45.827" y1="53.043" x2="45.827" y2="81.006"/>
<line fill="none" stroke="#87868A" stroke-linecap="round" stroke-miterlimit="10" stroke-dasharray="2" x1="45.827" y1="81.006" x2="101.358" y2="81.006"/>
<line fill="none" stroke="#87868A" stroke-linecap="round" stroke-miterlimit="10" stroke-dasharray="2" x1="142" y1="127.444" x2="142" y2="119.455"/>
<line fill="none" stroke="#87868A" stroke-linecap="round" stroke-miterlimit="10" stroke-dasharray="2" x1="142" y1="119.455" x2="121.089" y2="119.455"/>
<line fill="none" stroke="#87868A" stroke-linecap="round" stroke-miterlimit="10" stroke-dasharray="2" x1="121.089" y1="119.455" x2="121.089" y2="95.986"/>
<line fill="none" stroke="#87868A" stroke-linecap="round" stroke-miterlimit="10" stroke-dasharray="2" x1="142" y1="145.918" x2="142" y2="162.895"/>
<line fill="none" stroke="#87868A" stroke-linecap="round" stroke-miterlimit="10" stroke-dasharray="2" x1="142" y1="162.895" x2="209.262" y2="162.895"/>
<line fill="none" stroke="#87868A" stroke-linecap="round" stroke-miterlimit="10" stroke-dasharray="2" x1="142" y1="162.895" x2="78.392" y2="162.895"/>
<line fill="none" stroke="#87868A" stroke-linecap="round" stroke-miterlimit="10" stroke-dasharray="2" x1="78.392" y1="162.895" x2="78.392" y2="172.382"/>
<line fill="none" stroke="#87868A" stroke-linecap="round" stroke-miterlimit="10" stroke-dasharray="2" x1="209.262" y1="162.895" x2="209.262" y2="172.382"/>
</svg>
