<?xml version="1.0" encoding="utf-8"?>
<!-- Generator: Adobe Illustrator 16.0.0, SVG Export Plug-In . SVG Version: 6.00 Build 0)  -->
<!DOCTYPE svg PUBLIC "-//W3C//DTD SVG 1.1//EN" "http://www.w3.org/Graphics/SVG/1.1/DTD/svg11.dtd">
<svg version="1.1" id="Capa_1" xmlns="http://www.w3.org/2000/svg" xmlns:xlink="http://www.w3.org/1999/xlink" x="0px" y="0px"
	 width="512px" height="512px" viewBox="0 0 512 512" enable-background="new 0 0 512 512" xml:space="preserve">
<g>
	<path fill="#FFFFFF" d="M123.029,343.463c-14.18,0-25.715,11.535-25.715,25.715s11.537,25.715,25.715,25.715
		c14.178,0,25.714-11.535,25.714-25.715S137.207,343.463,123.029,343.463z M123.029,376.184c-3.864,0-7.007-3.145-7.007-7.006
		c0-3.863,3.144-7.008,7.007-7.008c3.862,0,7.007,3.143,7.007,7.008C130.036,373.041,126.891,376.184,123.029,376.184z"/>
	<path fill="#FFFFFF" d="M388.972,343.463c-14.18,0-25.715,11.535-25.715,25.715s11.536,25.715,25.715,25.715
		s25.715-11.535,25.715-25.715C414.688,354.998,403.15,343.463,388.972,343.463z M388.972,376.184c-3.863,0-7.007-3.145-7.007-7.006
		c0-3.863,3.145-7.008,7.007-7.008s7.007,3.143,7.007,7.008C395.979,373.041,392.835,376.184,388.972,376.184z"/>
	<path fill="#FFFFFF" d="M500.127,324.055v-87.771v-95.59c0-29.772-24.222-53.994-53.994-53.994H95.751
		c-46.25,0-83.877,37.628-83.877,83.878v153.475C4.669,329.465,0,338.08,0,347.764v1.147c0,16.333,13.288,29.621,29.621,29.621
		h38.081c4.469,26.507,27.569,46.767,55.327,46.767c27.757,0,50.858-20.26,55.327-46.767h155.291
		c4.469,26.507,27.568,46.767,55.326,46.767c27.759,0,50.858-20.26,55.327-46.767h38.08c16.334,0,29.621-13.288,29.621-29.621
		v-1.147C512,338.08,507.33,329.465,500.127,324.055z M481.419,226.93h-25.671c-1.313,0-2.383-1.067-2.383-2.382V152.43
		c0-1.313,1.066-2.382,2.383-2.382h25.671V226.93z M18.708,348.911v-1.147c0-6.022,4.895-10.926,10.913-10.926h47.582
		c-4.76,6.727-8.078,14.537-9.502,22.986h-38.08C23.603,359.824,18.708,354.93,18.708,348.911z M123.029,406.591
		c-20.63,0-37.414-16.784-37.414-37.415c0-20.63,16.784-37.414,37.414-37.414c20.63,0,37.414,16.784,37.414,37.414
		C160.443,389.807,143.659,406.591,123.029,406.591z M333.645,359.824h-155.29c-4.467-26.508-27.569-46.77-55.327-46.77
		c-8.303,0-16.181,1.825-23.279,5.075H30.582V170.579c0-35.936,29.235-65.169,65.169-65.169h350.382
		c16.218,0,29.906,11.001,34.019,25.932h-24.404c-11.629,0-21.09,9.46-21.09,21.09v72.118c0,11.629,9.46,21.09,21.09,21.09h25.673
		v72.493h-69.17c-7.097-3.249-14.976-5.076-23.278-5.076C361.214,313.057,338.111,333.316,333.645,359.824z M388.972,406.591
		c-20.63,0-37.414-16.784-37.414-37.415c0-20.63,16.784-37.414,37.414-37.414s37.413,16.784,37.413,37.414
		C426.385,389.807,409.602,406.591,388.972,406.591z M493.292,348.911c0,6.019-4.896,10.913-10.913,10.913H444.3
		c-1.425-8.449-4.742-16.26-9.503-22.986h47.582c6.019,0,10.913,4.902,10.913,10.926V348.911z"/>
	<path fill="#FFFFFF" d="M407.057,224.548V152.43c0-11.629-9.46-21.09-21.09-21.09H97.958c-24.884,0-45.129,20.245-45.129,45.129
		v48.08c0,11.629,9.46,21.09,21.09,21.09h312.049C397.597,245.638,407.057,236.177,407.057,224.548z M239.297,150.048h73.537v76.882
		h-73.537V150.048L239.297,150.048z M220.589,226.93h-73.535v-76.882h73.535V226.93z M71.537,224.548v-48.08
		c0-14.568,11.853-26.421,26.421-26.421h30.389v76.882H73.919C72.604,226.93,71.537,225.861,71.537,224.548z M388.349,224.548
		c0,1.313-1.066,2.382-2.382,2.382H331.54v-76.882h54.427c1.313,0,2.382,1.068,2.382,2.382V224.548z"/>
	<path fill="#FFFFFF" d="M460.886,303.584c5.166,0,9.354-4.188,9.354-9.354v-8.314c0-5.166-4.188-9.354-9.354-9.354
		s-9.354,4.188-9.354,9.354v8.314C451.532,299.396,455.72,303.584,460.886,303.584z"/>
</g>
</svg>
