<svg id="Capa_1" data-name="Capa 1" xmlns="http://www.w3.org/2000/svg" viewBox="0 0 484.94 416"><defs><style>.cls-1{fill:#fff;}</style></defs><title>cart</title><polygon class="cls-1" points="448 288 181.53 288 69.53 32 0 32 0 0 90.47 0 202.47 256 448 256 448 288"/><path class="cls-1" d="M301.53,444a48,48,0,1,1-48-48A48,48,0,0,1,301.53,444Z" transform="translate(-13.53 -76)"/><path class="cls-1" d="M461.53,444a48,48,0,1,1-48-48A48,48,0,0,1,461.53,444Z" transform="translate(-13.53 -76)"/><path class="cls-1" d="M413.53,236c-62.5,0-115.29-40.25-135.16-96H173.53l64,160h224l36.94-92.31C474.6,225.25,445.38,236,413.53,236Z" transform="translate(-13.53 -76)"/></svg>