<?xml version="1.0" encoding="utf-8"?>
<!-- Generator: Adobe Illustrator 16.0.0, SVG Export Plug-In . SVG Version: 6.00 Build 0)  -->
<!DOCTYPE svg PUBLIC "-//W3C//DTD SVG 1.1//EN" "http://www.w3.org/Graphics/SVG/1.1/DTD/svg11.dtd">
<svg version="1.1" id="Capa_1" xmlns="http://www.w3.org/2000/svg" xmlns:xlink="http://www.w3.org/1999/xlink" x="0px" y="0px"
	 width="512px" height="512px" viewBox="0 0 512 512" enable-background="new 0 0 512 512" xml:space="preserve">
<g>
	<path fill="#8F1180" d="M55.17,325.277c-13.375-13.375-13.375-34.9,0-48.275c6.688-6.688,15.36-10.031,24.137-10.031
		c8.777,0,17.45,3.344,24.137,10.031l118.492,118.492V34.168C221.937,15.36,237.192,0,256.104,0
		c18.808,0,34.168,15.255,34.168,34.168v361.326l118.282-118.492c13.375-13.374,34.9-13.374,48.274,0
		c13.375,13.375,13.375,34.9,0,48.275L280.137,501.969C273.764,508.343,265.091,512,256,512s-17.763-3.553-24.137-10.031
		L55.17,325.277z"/>
</g>
</svg>
