<?xml version="1.0" encoding="utf-8"?>
<!-- Generator: Adobe Illustrator 16.0.0, SVG Export Plug-In . SVG Version: 6.00 Build 0)  -->
<!DOCTYPE svg PUBLIC "-//W3C//DTD SVG 1.1//EN" "http://www.w3.org/Graphics/SVG/1.1/DTD/svg11.dtd">
<svg version="1.1" id="Layer_1" xmlns="http://www.w3.org/2000/svg" xmlns:xlink="http://www.w3.org/1999/xlink" x="0px" y="0px"
	 width="119.54px" height="131.035px" viewBox="0 0 119.54 131.035" enable-background="new 0 0 119.54 131.035"
	 xml:space="preserve">
<path fill="#933d6d" d="M87.041,76.032l24.43-5.846v-2.762c0-23.303-21.099-42.43-47.706-43.985v-9.457h-7v9.457
	C30.157,24.995,9.059,44.122,9.059,67.424v2.748l23.986,5.859h23.72v37.2H15.599v4.5h89.332v-4.5H63.765v-37.2H87.041z
	 M104.352,64.692L90.23,68.071c-0.502-13.866-4.574-25.966-10.825-34.074C93.293,39.62,103.172,51.155,104.352,64.692z
	 M63.765,30.793c10.687,2.89,18.976,18.8,19.495,38.238H63.765V30.793z M30.295,68.155l-14.119-3.449
	c1.174-13.543,11.055-25.084,24.949-30.71C34.861,42.121,30.783,54.253,30.295,68.155z M56.765,69.032H37.27
	c0.52-19.438,8.809-35.349,19.495-38.238V69.032z"/>
</svg>
