<?xml version="1.0" encoding="utf-8"?>
<!-- Generator: Adobe Illustrator 16.0.0, SVG Export Plug-In . SVG Version: 6.00 Build 0)  -->
<!DOCTYPE svg PUBLIC "-//W3C//DTD SVG 1.1//EN" "http://www.w3.org/Graphics/SVG/1.1/DTD/svg11.dtd">
<svg version="1.1" id="Layer_1" xmlns="http://www.w3.org/2000/svg" xmlns:xlink="http://www.w3.org/1999/xlink" x="0px" y="0px"
	 width="612px" height="792px" viewBox="0 0 612 792" enable-background="new 0 0 612 792" xml:space="preserve">
<g>
	<g>
		<g>
			<path fill="#FFFFFF" d="M137.939,603.198c3.794,0,7.372-1.767,9.678-4.777c1.059-1.383,26.215-34.311,51.801-74.782
				c35.208-55.695,53.06-97.008,53.06-122.792c0-63.157-51.382-114.54-114.539-114.54c-63.157,0-114.54,51.383-114.54,114.54
				c0,25.784,17.853,67.099,53.06,122.792c25.584,40.472,50.741,73.399,51.799,74.78
				C130.567,601.432,134.146,603.198,137.939,603.198z M47.784,400.846c0-49.712,40.443-90.157,90.157-90.157
				s90.157,40.445,90.157,90.157c0,38.604-58.209,126.133-90.157,169.792C105.992,526.979,47.784,439.449,47.784,400.846z"/>
			<path fill="#FFFFFF" d="M207.664,400.846c0-38.447-31.278-69.725-69.724-69.725c-38.447,0-69.725,31.278-69.725,69.725
				c0,38.446,31.278,69.724,69.725,69.724C176.386,470.569,207.664,439.292,207.664,400.846z M137.939,446.188
				c-25.002,0-45.342-20.34-45.342-45.342s20.34-45.342,45.342-45.342c25.001,0,45.341,20.34,45.341,45.342
				S162.941,446.188,137.939,446.188z"/>
			<path fill="#FFFFFF" d="M473.057,443.611h-82.26c-50.266,0-91.161-40.896-91.161-91.163s40.896-91.162,91.161-91.162h8.806
				c6.732,0,12.191-5.458,12.191-12.191c0-6.733-5.459-12.191-12.191-12.191h-8.806c-63.712,0-115.544,51.833-115.544,115.545
				s51.834,115.544,115.544,115.544h82.26c50.266,0,91.161,40.894,91.161,91.161c0,50.267-40.896,91.161-91.161,91.161h-297.56
				c-5.15-15.826-20.035-27.301-37.558-27.301c-21.776,0-39.493,17.716-39.493,39.492c0,21.775,17.716,39.492,39.493,39.492
				c17.522,0,32.408-11.475,37.558-27.301h297.56c63.711,0,115.543-51.834,115.543-115.544
				C588.6,495.444,536.768,443.611,473.057,443.611z M137.939,677.619c-8.332,0-15.11-6.778-15.11-15.11
				c0-8.331,6.778-15.109,15.11-15.109c8.331,0,15.109,6.778,15.109,15.109C153.049,670.841,146.271,677.619,137.939,677.619z"/>
			<path fill="#FFFFFF" d="M445.104,261.287h33.801c6.732,0,12.191-5.458,12.191-12.191c0-6.733-5.459-12.191-12.191-12.191h-33.801
				c-6.732,0-12.191,5.458-12.191,12.191C432.913,255.829,438.372,261.287,445.104,261.287z"/>
			<path fill="#FFFFFF" d="M477.604,167.684h59.311v43.854c-15.826,5.15-27.301,20.035-27.301,37.558
				c0,21.776,17.715,39.493,39.492,39.493s39.493-17.716,39.493-39.493c0-17.522-11.474-32.408-27.302-37.558v-56.045v-53.301
				c0-6.733-5.459-12.191-12.191-12.191h-71.502c-6.731,0-12.191,5.458-12.191,12.191v53.301
				C465.413,162.226,470.873,167.684,477.604,167.684z M549.107,233.986c8.332,0,15.111,6.778,15.111,15.109
				c0,8.332-6.779,15.11-15.111,15.11c-8.331,0-15.109-6.779-15.109-15.11C533.998,240.765,540.776,233.986,549.107,233.986z
				 M489.796,114.382h47.119v28.919h-47.119V114.382z"/>
		</g>
	</g>
</g>
</svg>
