<svg version="1.1"
									  xmlns="http://www.w3.org/2000/svg"
									  x="0px"
									  y="0px"
									  width="491.52px"
									  height="491.52px"
									  viewBox="0 0 491.52 491.52"
									  enable-background="new 0 0 491.52 491.52">
									<path fill="#FFFFFF" d="M353.043,250.91l-0.83-7.609h-1.272l-0.343-6.239l-0.305-1.171c-0.217,0.056-0.429,0.122-0.637,0.195v7.215
                            h1.283l-0.343-6.239l1.615,6.239l0.81,7.612L353.043,250.91L353.043,250.91z M344.562,243.301h5.094v-7.215
                            c-3.187,1.125-5.224,4.203-5.094,7.507V243.301z M359.863,248.801l0.006,162.901c0,4.224-3.425,7.648-7.65,7.648
                            c-4.225,0-7.648-3.424-7.648-7.648V251.124h-33.647c-3.156,0-6.282-0.491-9.272-1.437c-2.965-0.938-5.805-2.34-8.408-4.173
                            l-7.422-5.222l-10.531,34.214c-0.675,2.2-1.51,4.348-2.488,6.436c-0.32,0.683-0.648,1.349-0.984,1.994l11.047,20.229
                            c0.115,0.176,0.226,0.356,0.33,0.545l-0.014,0.006c0.793,1.444,1.478,2.988,2.045,4.615c0.57,1.627,0.998,3.262,1.281,4.886
                            l14.062,80.874c1.449,8.341-0.623,16.489-5.147,22.922c-4.526,6.438-11.515,11.146-19.887,12.604
                            c-0.938,0.162-1.812,0.277-2.619,0.349c-0.897,0.078-1.783,0.117-2.647,0.117c-7.363,0-14.321-2.687-19.761-7.265
                            c-5.353-4.512-9.208-10.843-10.495-18.241l-13.201-75.895l-4.463-8.171l-3.688,11.573c-0.438,1.376-0.966,2.701-1.574,3.967
                            c-0.65,1.354-1.35,2.596-2.094,3.717l-47.582,71.645c-2.894,4.356-6.733,7.75-11.086,10.082c-4.471,2.396-9.477,3.644-14.533,3.645
                            v0.029c-2.968,0-5.957-0.429-8.871-1.312c-2.783-0.841-5.51-2.109-8.099-3.827c-7.061-4.69-11.554-11.812-13.115-19.537
                            c-1.556-7.707-0.177-16.003,4.503-23.054l45.205-68.062l39.479-127.43c0.24-0.784,0.449-1.423,0.625-1.924
                            c4.252-12.068,12.875-21.718,23.482-27.412c10.715-5.751,23.469-7.497,35.857-3.686c0.73,0.225,1.328,0.419,1.787,0.581
                            c14.953,5.271,49.371,32.862,58.311,40.148h23.613v-7.999c0-4.225,3.425-7.65,7.648-7.65c4.227,0,7.65,3.425,7.65,7.65v9.369
                            c8.018,2.622,12.746,8.811,14.09,10.57l0.092,0.121c2.021,2.629,3.625,5.599,4.715,8.811c1.062,3.127,1.638,6.449,1.638,9.87
                            c0,4.246-0.882,8.318-2.474,12.044c-1.644,3.847-4.043,7.285-7.011,10.128c-0.466,0.447-3.933,2.995-8.425,5.095
                            C361.665,248.043,360.786,248.43,359.863,248.801L359.863,248.801z M356.01,233.798c2.764-1.291,4.176-2.17,4.283-2.273
                            c1.5-1.437,2.709-3.165,3.529-5.088c0.778-1.826,1.212-3.868,1.212-6.045c0-1.764-0.28-3.428-0.797-4.95
                            c-0.546-1.61-1.354-3.104-2.374-4.431l-0.092-0.121c-0.817-1.07-4.196-5.492-9.035-5.746c-0.174,0.012-0.349,0.018-0.525,0.018
                            c-0.426,0-0.845-0.036-1.253-0.103c-0.192-0.02-0.354-0.034-0.481-0.042c-0.088-0.005-0.356-0.008-0.821-0.008h-31.438
                            c-1.994,0-3.811-0.759-5.177-2.006c-3.661-3.021-41.573-34.133-55.501-39.043c-0.529-0.187-0.925-0.32-1.188-0.401
                            c-8.271-2.544-16.848-1.346-24.098,2.546c-7.354,3.947-13.332,10.64-16.283,19.011c-0.199,0.57-0.35,1.014-0.445,1.324
                            l-39.817,128.518l-7.317-2.25l7.336,2.272c-0.278,0.896-0.707,1.707-1.248,2.41l-45.496,68.504
                            c-2.362,3.561-3.063,7.729-2.283,11.592c0.776,3.845,3.028,7.4,6.575,9.757c1.268,0.843,2.644,1.476,4.08,1.911
                            c1.447,0.436,2.939,0.648,4.43,0.648v0.03c2.545,0,5.07-0.631,7.334-1.844c2.137-1.146,4.044-2.84,5.506-5.042l47.582-71.646
                            c0.438-0.662,0.8-1.283,1.073-1.854c0.314-0.656,0.581-1.32,0.794-1.986l9.117-28.627l7.29,2.311l-7.317-2.33
                            c1.287-4.041,5.607-6.272,9.648-4.985c2.18,0.694,3.837,2.272,4.694,4.217l13.356,24.454l0.024-0.013
                            c0.488,0.893,0.781,1.841,0.89,2.793l13.345,76.712c0.647,3.723,2.563,6.887,5.216,9.122c2.698,2.271,6.189,3.604,9.918,3.604
                            c0.449,0,0.895-0.019,1.33-0.057c0.512-0.044,0.967-0.103,1.357-0.169c4.174-0.729,7.662-3.081,9.927-6.3
                            c2.265-3.221,3.3-7.314,2.567-11.521l-14.062-80.875c-0.15-0.862-0.357-1.675-0.619-2.425c-0.261-0.745-0.604-1.505-1.025-2.275
                            l6.72-3.688l-6.732,3.692c-0.108-0.197-0.206-0.396-0.297-0.6l-13.123-24.027l-0.022,0.012c-1.465-2.682-1.164-5.854,0.512-8.176
                            c0.835-1.303,1.555-2.586,2.145-3.847c0.651-1.391,1.227-2.875,1.709-4.452l13.637-44.304l7.318,2.25l-7.34-2.259
                            c1.248-4.054,5.547-6.329,9.602-5.081c0.961,0.296,1.822,0.763,2.561,1.358l15.639,11.002c1.277,0.9,2.7,1.597,4.208,2.074
                            c1.488,0.471,3.06,0.715,4.654,0.715h38.74c0.501,0,0.776-0.003,0.869-0.008c0.108-0.006,0.225-0.014,0.349-0.025
                            C352.758,235.197,354.508,234.5,356.01,233.798L356.01,233.798z M352.213,197.481l-0.867,7.601c0.295,0.033,0.595,0.05,0.897,0.049
                            L352.213,197.481L352.213,197.481z"/>
									<path fill="#FFFFFF" d="M324.256,107.104c0-8.368-3.392-15.945-8.877-21.43c-5.481-5.483-13.059-8.875-21.428-8.875
                            s-15.945,3.392-21.428,8.875c-5.504,5.502-8.906,13.081-8.906,21.429h0.029c0,8.371,3.393,15.949,8.875,21.433
                            c5.483,5.484,13.061,8.876,21.43,8.876s15.946-3.392,21.43-8.876C320.863,123.052,324.256,115.475,324.256,107.104L324.256,107.104z
                             M326.241,139.397c-8.266,8.264-19.679,13.376-32.289,13.376s-24.026-5.111-32.289-13.376c-8.265-8.264-13.375-19.682-13.375-32.292
                            h0.03c0-12.628,5.1-24.044,13.346-32.29c8.264-8.263,19.68-13.375,32.288-13.375c12.607,0,24.023,5.112,32.288,13.376
                            c8.264,8.265,13.376,19.681,13.376,32.289C339.616,119.714,334.506,131.132,326.241,139.397L326.241,139.397z"/>
									<path fill="#FFFFFF" d="M175.581,252.158L175.581,252.158c-3.126,11.326-12.745,16.182-23.587,16.336
                            c-3.828,0.053-7.771-0.5-11.538-1.569s-7.452-2.675-10.755-4.722c-9.553-5.917-15.89-15.398-13.197-26.75
                            c0.035-0.225,0.082-0.451,0.14-0.677l0.011,0.002l16.438-65.345c0.048-0.259,0.113-0.518,0.191-0.776l0.03,0.009
                            c1.906-6.242,5.822-10.921,10.742-14.201l4.261,6.39l-4.229-6.39c5.272-3.514,11.718-5.388,17.925-5.811
                            c1.926-0.131-0.445-1.577,1.093-3.354c4.636-5.359,9.487-10.96,15.734-9.055c8.12,2.48,14.464,8.008,18.151,14.942
                            c3.695,6.941,4.744,15.286,2.271,23.39l-23.541,77.12c-0.033,0.156-0.07,0.311-0.113,0.467l-0.027-0.008V252.158L175.581,252.158z
                             M184.622,170.138c1.245-4.079,0.723-8.271-1.128-11.749c-1.855-3.486-5.033-6.262-9.092-7.502c-3.264-0.995,1.74,2.753,0.283,4.436
                            c-3.676,4.248-7.213,8.332-11.651,8.635c-3.732,0.255-7.507,1.314-10.462,3.277l0.008,0.014c-2.071,1.38-3.705,3.212-4.51,5.513
                            h0.003l-0.097,0.382h0.002l-0.009,0.02l-16.438,65.348l-7.439-1.86l7.448,1.874c-0.051,0.201-0.108,0.398-0.175,0.591
                            c-0.752,3.82,2.186,7.471,6.377,10.068c2.05,1.27,4.4,2.282,6.855,2.979c2.457,0.698,4.929,1.06,7.218,1.028
                            c4.315-0.062,8.032-1.584,9.009-5.111l-0.021-0.007c0.079-0.291,0.177-0.576,0.286-0.849L184.622,170.138L184.622,170.138z"/>
									<path fill="#FFFFFF" d="M177.245,122.079l-6.378,16.932c-1.491,3.96,0.511,8.379,4.47,9.87c3.961,1.491,8.379-0.51,9.87-4.47
                            l6.378-16.932c1.491-3.96-0.51-8.379-4.47-9.87C183.155,116.118,178.736,118.119,177.245,122.079L177.245,122.079z"/>
									<path fill="#FFFFFF" d="M189.948,179.386c-4.107-0.977-8.232,1.562-9.209,5.67c-0.978,4.109,1.561,8.232,5.67,9.21l17.592,4.227
                            c4.109,0.977,8.233-1.562,9.211-5.67c0.977-4.108-1.562-8.232-5.67-9.21L189.948,179.386z"/>
									<path fill="#FFFFFF" d="M172.959,235.006c-4.108-0.978-8.233,1.562-9.211,5.67c-0.976,4.108,1.563,8.232,5.672,9.209l17.593,4.229
                            c4.107,0.977,8.231-1.562,9.211-5.671c0.976-4.107-1.564-8.231-5.67-9.208L172.959,235.006z"/>
								</svg>