<?xml version="1.0" encoding="utf-8"?>
<!-- Generator: Adobe Illustrator 16.0.0, SVG Export Plug-In . SVG Version: 6.00 Build 0)  -->
<!DOCTYPE svg PUBLIC "-//W3C//DTD SVG 1.1//EN" "http://www.w3.org/Graphics/SVG/1.1/DTD/svg11.dtd">
<svg version="1.1" id="Layer_1" xmlns="http://www.w3.org/2000/svg" xmlns:xlink="http://www.w3.org/1999/xlink" x="0px" y="0px"
	 width="491.52px" height="491.52px" viewBox="0 0 491.52 491.52" enable-background="new 0 0 491.52 491.52" xml:space="preserve">
<path fill="#FFFFFF" d="M138.446,250.91l0.021,0.003l0.809-7.612l1.616-6.239l-0.342,6.239h1.283v-7.215
	c-0.208-0.073-0.42-0.139-0.637-0.195l-0.304,1.171l-0.342,6.239h-1.274L138.446,250.91L138.446,250.91z M146.926,243.593
	c0.129-3.304-1.907-6.382-5.093-7.507v7.215h5.093V243.593z M131.626,248.801c-0.923-0.372-1.802-0.758-2.627-1.143
	c-4.492-2.1-7.959-4.648-8.425-5.095c-2.967-2.843-5.367-6.281-7.011-10.128c-1.591-3.726-2.472-7.798-2.472-12.044
	c0-3.421,0.576-6.743,1.637-9.87c1.09-3.212,2.695-6.182,4.714-8.811l0.092-0.121c1.344-1.759,6.073-7.948,14.09-10.57l0-9.369
	c0-4.225,3.425-7.65,7.65-7.65s7.65,3.425,7.65,7.65l0,7.999h23.613c8.939-7.286,43.356-34.877,58.309-40.148
	c0.46-0.162,1.058-0.356,1.788-0.581c12.391-3.811,25.144-2.065,35.858,3.686c10.608,5.694,19.23,15.344,23.482,27.412
	c0.177,0.501,0.385,1.14,0.626,1.924l39.479,127.43l45.205,68.064c4.68,7.051,6.059,15.345,4.503,23.052
	c-1.56,7.725-6.054,14.847-13.115,19.537c-2.589,1.718-5.317,2.989-8.099,3.83c-2.914,0.882-5.903,1.312-8.871,1.312v-0.029
	c-5.056-0.001-10.062-1.248-14.533-3.645c-4.352-2.332-8.193-5.723-11.086-10.082l-47.582-71.644
	c-0.744-1.121-1.445-2.362-2.094-3.715c-0.608-1.266-1.135-2.591-1.574-3.967l-3.686-11.573l-4.463,8.169l-13.201,75.894
	c-1.288,7.401-5.143,13.732-10.496,18.241c-5.438,4.581-12.396,7.265-19.759,7.265c-0.866,0-1.75-0.039-2.649-0.117
	c-0.808-0.07-1.682-0.187-2.619-0.349c-8.372-1.458-15.359-6.166-19.886-12.601c-4.525-6.433-6.599-14.581-5.148-22.922
	l14.062-80.874c0.282-1.624,0.71-3.259,1.28-4.886c0.569-1.627,1.253-3.171,2.045-4.615l-0.012-0.006
	c0.104-0.188,0.214-0.369,0.33-0.545l11.047-20.229c-0.336-0.646-0.665-1.311-0.985-1.994c-0.979-2.088-1.814-4.235-2.489-6.434
	l-10.531-34.214l-7.422,5.222c-2.604,1.833-5.443,3.237-8.408,4.174c-2.99,0.946-6.118,1.436-9.274,1.436h-33.647l0,160.578
	c0,4.226-3.425,7.65-7.65,7.65c-4.225,0-7.65-3.425-7.65-7.65L131.626,248.801L131.626,248.801z M135.479,233.798
	c1.503,0.702,3.252,1.399,5.136,1.935c0.124,0.011,0.24,0.019,0.349,0.025c0.091,0.005,0.368,0.008,0.869,0.008h38.74
	c1.596,0,3.166-0.244,4.655-0.715c1.508-0.477,2.93-1.174,4.208-2.074l15.638-11.002c0.738-0.595,1.599-1.062,2.561-1.358
	c4.054-1.248,8.352,1.027,9.6,5.081l-7.34,2.259l7.32-2.25l13.635,44.303c0.484,1.578,1.058,3.063,1.709,4.453
	c0.59,1.26,1.31,2.544,2.145,3.845c1.675,2.324,1.976,5.495,0.512,8.177l-0.024-0.013l-13.123,24.029
	c-0.089,0.202-0.188,0.401-0.296,0.599l-6.733-3.694l6.72,3.69c-0.423,0.77-0.766,1.531-1.026,2.276
	c-0.263,0.75-0.47,1.562-0.62,2.425l-14.063,80.875c-0.732,4.207,0.304,8.302,2.568,11.521c2.265,3.219,5.753,5.574,9.926,6.3
	c0.392,0.068,0.846,0.125,1.359,0.169c0.436,0.038,0.88,0.057,1.329,0.057c3.729,0,7.22-1.331,9.918-3.604
	c2.653-2.235,4.568-5.399,5.216-9.122l13.345-76.712c0.109-0.952,0.402-1.9,0.89-2.793l0.024,0.013l13.357-24.454
	c0.858-1.943,2.514-3.522,4.695-4.217c4.041-1.287,8.361,0.945,9.648,4.986l-7.317,2.331l7.29-2.31l9.117,28.627
	c0.213,0.666,0.479,1.33,0.794,1.986c0.274,0.572,0.634,1.192,1.073,1.855l47.582,71.644c1.462,2.202,3.369,3.896,5.506,5.042
	c2.263,1.213,4.789,1.844,7.334,1.844v-0.03c1.49,0,2.982-0.214,4.43-0.651c1.435-0.434,2.811-1.068,4.08-1.911
	c3.546-2.355,5.799-5.912,6.575-9.757c0.78-3.862,0.079-8.031-2.283-11.591l-45.497-68.505c-0.542-0.703-0.97-1.513-1.248-2.41
	l7.336-2.273l-7.319,2.25L275.963,186.44c-0.096-0.31-0.246-0.754-0.446-1.324c-2.95-8.371-8.929-15.064-16.282-19.011
	c-7.25-3.892-15.827-5.09-24.098-2.546c-0.263,0.081-0.658,0.214-1.188,0.401c-13.927,4.91-51.84,36.022-55.501,39.043
	c-1.366,1.247-3.182,2.006-5.176,2.006h-31.438c-0.465,0-0.734,0.003-0.822,0.008c-0.128,0.008-0.29,0.022-0.482,0.042
	c-0.408,0.067-0.827,0.103-1.253,0.103c-0.177,0-0.352-0.006-0.525-0.018c-4.839,0.254-8.218,4.676-9.035,5.746l-0.092,0.121
	c-1.02,1.327-1.828,2.821-2.374,4.431c-0.517,1.522-0.797,3.186-0.797,4.95c0,2.177,0.432,4.219,1.212,6.045
	c0.821,1.923,2.03,3.651,3.53,5.088C131.304,231.628,132.717,232.507,135.479,233.798L135.479,233.798z M139.276,197.481l-0.03,7.65
	c0.304,0.001,0.603-0.016,0.898-0.049L139.276,197.481L139.276,197.481z"/>
<path fill="#FFFFFF" d="M167.234,107.104c0,8.371,3.392,15.948,8.875,21.432c5.483,5.484,13.06,8.876,21.429,8.876
	s15.946-3.392,21.429-8.876c5.483-5.484,8.875-13.062,8.875-21.433h0.03c0-8.348-3.403-15.927-8.906-21.429
	c-5.483-5.483-13.059-8.875-21.428-8.875c-8.369,0-15.945,3.392-21.428,8.875C170.625,91.159,167.234,98.736,167.234,107.104
	L167.234,107.104z M165.248,139.397c-8.264-8.265-13.375-19.683-13.375-32.292c0-12.608,5.112-24.024,13.376-32.289
	c8.263-8.264,19.679-13.376,32.288-13.376s24.024,5.112,32.288,13.375c8.246,8.246,13.346,19.662,13.346,32.29h0.03
	c0,12.61-5.111,24.028-13.375,32.292c-8.263,8.265-19.679,13.376-32.289,13.376S173.512,147.661,165.248,139.397L165.248,139.397z"
	/>
<path fill="#FFFFFF" d="M315.908,252.158v-0.002l-0.027,0.008c-0.043-0.156-0.08-0.311-0.113-0.467l-23.541-77.12
	c-2.473-8.104-1.424-16.449,2.27-23.39c3.689-6.934,10.032-12.462,18.152-14.942c6.247-1.905,11.098,3.696,15.735,9.055
	c1.538,1.777-0.833,3.223,1.092,3.354c6.208,0.423,12.653,2.297,17.924,5.811l-4.229,6.39l4.26-6.39
	c4.92,3.28,8.836,7.959,10.743,14.201l0.03-0.009c0.078,0.258,0.143,0.517,0.193,0.776l16.438,65.345l0.01-0.002
	c0.058,0.226,0.104,0.452,0.139,0.677c2.694,11.351-3.643,20.833-13.197,26.75c-3.303,2.047-6.987,3.652-10.755,4.722
	c-3.766,1.069-7.71,1.622-11.538,1.569c-10.842-0.154-20.461-5.009-23.588-16.335L315.908,252.158L315.908,252.158z
	 M306.867,170.138l23.531,77.088c0.111,0.274,0.208,0.558,0.288,0.849l-0.022,0.007c0.976,3.528,4.693,5.05,9.009,5.112
	c2.289,0.031,4.76-0.331,7.218-1.029c2.455-0.697,4.805-1.711,6.855-2.98c4.192-2.598,7.129-6.249,6.377-10.07
	c-0.066-0.193-0.124-0.39-0.175-0.591l7.448-1.874l-7.439,1.86l-16.438-65.348l-0.007-0.02h0.001l-0.096-0.382l0.003,0
	c-0.805-2.301-2.439-4.133-4.51-5.513l0.008-0.014c-2.955-1.963-6.73-3.022-10.462-3.277c-4.438-0.303-7.976-4.387-11.652-8.635
	c-1.456-1.682,3.548-5.43,0.284-4.435c-4.059,1.24-7.236,4.016-9.092,7.502C306.145,161.867,305.622,166.059,306.867,170.138
	L306.867,170.138z"/>
<path fill="#FFFFFF" d="M314.244,122.079c-1.491-3.96-5.91-5.961-9.87-4.47c-3.96,1.491-5.961,5.91-4.47,9.87l6.378,16.932
	c1.491,3.96,5.91,5.961,9.87,4.47c3.959-1.491,5.961-5.91,4.47-9.87L314.244,122.079L314.244,122.079z"/>
<path fill="#FFFFFF" d="M283.947,183.613c-4.108,0.978-6.646,5.102-5.67,9.21c0.978,4.108,5.102,6.647,9.211,5.67l17.592-4.227
	c4.109-0.978,6.648-5.101,5.67-9.21c-0.977-4.109-5.101-6.647-9.209-5.67L283.947,183.613z"/>
<path fill="#FFFFFF" d="M300.936,239.234c-4.107,0.977-6.646,5.101-5.67,9.209c0.979,4.109,5.102,6.648,9.211,5.67l17.592-4.227
	c4.109-0.977,6.648-5.101,5.671-9.209s-5.102-6.648-9.21-5.67L300.936,239.234z"/>
</svg>
