<?xml version="1.0" encoding="utf-8"?>
<!-- Generator: Adobe Illustrator 16.0.0, SVG Export Plug-In . SVG Version: 6.00 Build 0)  -->
<!DOCTYPE svg PUBLIC "-//W3C//DTD SVG 1.1//EN" "http://www.w3.org/Graphics/SVG/1.1/DTD/svg11.dtd">
<svg version="1.1" id="Layer_1" xmlns="http://www.w3.org/2000/svg" xmlns:xlink="http://www.w3.org/1999/xlink" x="0px" y="0px"
	 width="100px" height="100px" viewBox="0 0 100 100" enable-background="new 0 0 100 100" xml:space="preserve">
<path fill="#FFFFFF" d="M57.311,51.25l11.815-25.341c1.374-2.947,1.349-9.991-1.937-11.523c-0.453-0.211-0.961-0.318-1.51-0.318
	c-3.226,0-7.418,3.787-8.562,6.243L50,35.575l-7.118-15.264c-0.672-1.443-2.288-3.21-4.117-4.5
	c-2.313-1.631-4.427-2.137-5.954-1.426c-3.284,1.531-3.311,8.574-1.938,11.523l11.817,25.34L29.532,79.467
	c-0.168,0.36-0.187,0.773-0.05,1.146c0.136,0.373,0.415,0.679,0.775,0.847l9.291,4.332c0.205,0.097,0.421,0.142,0.633,0.142
	c0.564,0,1.106-0.32,1.36-0.867L50,66.926l8.459,18.141c0.168,0.36,0.473,0.641,0.848,0.775c0.166,0.061,0.338,0.092,0.512,0.092
	c0.218,0,0.435-0.048,0.635-0.142l9.289-4.332c0.751-0.351,1.076-1.242,0.726-1.993L57.311,51.25z M33.592,24.642
	c-1.041-2.234-0.559-7.049,0.486-7.537c0.307-0.143,1.38,0.046,2.958,1.159c1.388,0.979,2.674,2.342,3.127,3.314l8.183,17.546
	l-4,8.576L33.592,24.642z M39.457,82.439l-6.572-3.064l26.952-57.798c0.812-1.74,4.146-4.51,5.845-4.51
	c0.139,0,0.211,0.023,0.24,0.037c1.046,0.488,1.527,5.302,0.485,7.537L39.457,82.439z M60.545,82.439l-8.891-19.063l4-8.576
	l11.461,24.575L60.545,82.439z M52.701,48.122l-2.04-0.951c-0.753-0.352-1.644-0.025-1.993,0.726
	c-0.351,0.751-0.025,1.644,0.726,1.993l2.04,0.951c0.205,0.097,0.422,0.142,0.633,0.142c0.564,0,1.106-0.32,1.36-0.866
	C53.777,49.364,53.452,48.472,52.701,48.122z M49.646,54.67l-2.039-0.951c-0.753-0.353-1.644-0.025-1.993,0.727
	c-0.351,0.75-0.025,1.643,0.726,1.992l2.039,0.951c0.205,0.096,0.421,0.142,0.633,0.142c0.564,0,1.105-0.32,1.36-0.866
	C50.723,55.913,50.397,55.021,49.646,54.67z M83.915,75.27c-0.315-0.765-1.192-1.131-1.96-0.812c-0.566,0.234-1.15,0.4-1.74,0.508
	V33.294c1.355-0.584,2.309-1.931,2.309-3.497v-5.121c0-2.1-1.709-3.808-3.809-3.808s-3.808,1.708-3.808,3.808v5.121
	c0,1.566,0.952,2.913,2.308,3.497v41.671c-0.59-0.107-1.173-0.273-1.74-0.508c-0.765-0.318-1.644,0.046-1.959,0.812
	c-0.317,0.766,0.045,1.643,0.812,1.959c0.938,0.39,1.907,0.637,2.889,0.768v1.523c0,0.828,0.673,1.5,1.5,1.5
	c0.828,0,1.5-0.672,1.5-1.5v-1.523c0.979-0.131,1.951-0.378,2.89-0.768C83.869,76.911,84.232,76.034,83.915,75.27z M79.521,29.797
	c0,0.444-0.361,0.807-0.808,0.807s-0.808-0.362-0.808-0.807v-5.121c0-0.445,0.361-0.808,0.808-0.808s0.808,0.362,0.808,0.808V29.797
	z M24.525,74.457c-0.567,0.234-1.15,0.4-1.74,0.508V33.294c1.355-0.584,2.308-1.931,2.308-3.497v-5.121
	c0-2.1-1.708-3.808-3.808-3.808c-2.1,0-3.808,1.708-3.808,3.808v5.121c0,1.566,0.952,2.913,2.308,3.497v41.671
	c-0.59-0.107-1.173-0.273-1.74-0.508c-0.765-0.318-1.644,0.046-1.96,0.812c-0.317,0.766,0.046,1.643,0.812,1.959
	c0.938,0.39,1.908,0.637,2.889,0.768v1.523c0,0.828,0.672,1.5,1.5,1.5c0.828,0,1.5-0.672,1.5-1.5v-1.523
	c0.98-0.131,1.951-0.378,2.889-0.768c0.766-0.316,1.129-1.193,0.812-1.959C26.169,74.505,25.294,74.139,24.525,74.457z
	 M22.093,29.797c0,0.444-0.362,0.807-0.808,0.807c-0.446,0-0.808-0.362-0.808-0.807v-5.121c0-0.445,0.362-0.808,0.808-0.808
	c0.446,0,0.808,0.362,0.808,0.808V29.797z"/>
</svg>
