<?xml version="1.0" encoding="utf-8"?>
<!-- Generator: Adobe Illustrator 16.0.0, SVG Export Plug-In . SVG Version: 6.00 Build 0)  -->
<!DOCTYPE svg PUBLIC "-//W3C//DTD SVG 1.1//EN" "http://www.w3.org/Graphics/SVG/1.1/DTD/svg11.dtd">
<svg version="1.1" id="Layer_1" xmlns="http://www.w3.org/2000/svg" xmlns:xlink="http://www.w3.org/1999/xlink" x="0px" y="0px"
	 width="64px" height="64px" viewBox="0 0 64 64" enable-background="new 0 0 64 64" xml:space="preserve">
<g id="_x32_6_x5F_mountain_x5F_landscape">
	<g>
		<polyline fill="none" stroke="#FFFFFF" stroke-width="2" stroke-linejoin="round" stroke-miterlimit="10" points="6.005,56.419 
			21.934,29.564 26.181,35.831 		"/>
		<polyline fill="none" stroke="#FFFFFF" stroke-width="2" stroke-linejoin="round" stroke-miterlimit="10" points="45.407,33.146 
			42.054,36.726 39.538,34.04 35.348,39.411 31.155,34.936 		"/>
		<polyline fill="none" stroke="#FFFFFF" stroke-width="2" stroke-linejoin="round" stroke-miterlimit="10" points="26.964,41.201 
			38.7,20.613 57.982,56.419 		"/>
		<polyline fill="none" stroke="#FFFFFF" stroke-width="2" stroke-linejoin="round" stroke-miterlimit="10" points="41.216,56.419 
			36.186,51.049 31.994,51.049 26.125,44.782 15.227,56.419 		"/>
		<path fill="none" stroke="#FFFFFF" stroke-width="2" stroke-linejoin="round" stroke-miterlimit="10" d="M19.418,14.347
			c-0.051,0-0.098,0.015-0.149,0.016c-0.341-1.049-1.267-1.806-2.365-1.806c-0.673,0-1.225,0.435-1.677,0.895
			c-0.262-1.444-1.505-2.686-2.934-2.686c-1.621,0-2.935,1.403-2.935,3.133c0,0.154,0.022,0.303,0.043,0.452
			c-0.015,0-0.027-0.004-0.043-0.004c-1.852,0-3.353,1.604-3.353,3.581c0,1.978,1.501,3.581,3.353,3.581h10.06
			c1.852,0,3.354-1.604,3.354-3.581C22.772,15.95,21.271,14.347,19.418,14.347z"/>
		
			<line fill="none" stroke="#FFFFFF" stroke-width="2" stroke-linejoin="round" stroke-miterlimit="10" x1="5.167" y1="60" x2="58.82" y2="60"/>
		<path fill="none" stroke="#FFFFFF" stroke-width="2" stroke-linejoin="round" stroke-miterlimit="10" d="M28.508,30.46
			c-1.51-2.6-2.383-5.667-2.383-8.952c0-9.393,7.132-17.008,15.929-17.008s15.929,7.615,15.929,17.008
			c0,5.774-2.697,10.877-6.818,13.952"/>
	</g>
</g>
<g id="Layer_1_1_">
</g>
</svg>
