<?xml version="1.0" encoding="utf-8"?>
<!-- Generator: Adobe Illustrator 16.0.0, SVG Export Plug-In . SVG Version: 6.00 Build 0)  -->
<!DOCTYPE svg PUBLIC "-//W3C//DTD SVG 1.1//EN" "http://www.w3.org/Graphics/SVG/1.1/DTD/svg11.dtd">
<svg version="1.1" id="Layer_1" xmlns="http://www.w3.org/2000/svg" xmlns:xlink="http://www.w3.org/1999/xlink" x="0px" y="0px"
	 width="64.368px" height="72.414px" viewBox="0 0 64.368 72.414" enable-background="new 0 0 64.368 72.414" xml:space="preserve">
<g>
	<path fill="none" stroke="#FFFFFF" stroke-miterlimit="10" d="M13.02,36.218h15.866c3.228,0,5.852-2.625,5.852-5.852
		s-2.624-5.853-5.852-5.853c-2.328,0-4.433,1.378-5.364,3.513c-0.417,0.958,0.02,2.075,0.978,2.494
		c0.961,0.417,2.077-0.021,2.494-0.98c0.329-0.752,1.07-1.238,1.893-1.238c1.138,0,2.064,0.928,2.064,2.064
		c0,1.138-0.927,2.064-2.064,2.064H13.02c-1.046,0-1.895,0.848-1.895,1.893C11.125,35.37,11.974,36.218,13.02,36.218z"/>
	<path fill="none" stroke="#FFFFFF" stroke-miterlimit="10" d="M36.283,45.104H13.02c-1.046,0-1.895,0.848-1.895,1.893
		c0,1.048,0.849,1.895,1.895,1.895h23.264c2.157,0,3.909,1.755,3.909,3.909c0,2.155-1.752,3.909-3.909,3.909
		c-2.153,0-3.908-1.754-3.908-3.909c0-1.045-0.848-1.895-1.895-1.895c-1.045,0-1.894,0.85-1.894,1.895
		c0,4.246,3.452,7.697,7.696,7.697c4.245,0,7.698-3.451,7.698-7.697C43.981,48.558,40.528,45.104,36.283,45.104z"/>
	<path fill="none" stroke="#FFFFFF" stroke-miterlimit="10" d="M46.883,23.618c-5.206,0-9.442,4.238-9.442,9.445
		c0,1.046,0.847,1.892,1.895,1.892c1.046,0,1.894-0.846,1.894-1.892c0-3.119,2.536-5.656,5.654-5.656s5.656,2.537,5.656,5.656
		c0,3.117-2.538,5.654-5.656,5.654H13.02c-1.046,0-1.895,0.848-1.895,1.895c0,1.045,0.849,1.893,1.895,1.893h33.863
		c5.207,0,9.444-4.236,9.444-9.441C56.327,27.856,52.09,23.618,46.883,23.618z"/>
</g>
</svg>
