<?xml version="1.0" encoding="utf-8"?>
<!-- Generator: Adobe Illustrator 16.0.0, SVG Export Plug-In . SVG Version: 6.00 Build 0)  -->
<!DOCTYPE svg PUBLIC "-//W3C//DTD SVG 1.1//EN" "http://www.w3.org/Graphics/SVG/1.1/DTD/svg11.dtd">
<svg version="1.1" id="Layer_1" xmlns="http://www.w3.org/2000/svg" xmlns:xlink="http://www.w3.org/1999/xlink" x="0px" y="0px"
	 width="100px" height="100px" viewBox="0 0 100 100" enable-background="new 0 0 100 100" xml:space="preserve">
<path fill="#FFFFFF" d="M49.992,43.807c-1.65,0-3.203,0.643-4.373,1.812c-2.405,2.412-2.404,6.335,0.004,8.742
	c1.166,1.166,2.718,1.81,4.368,1.81c1.651,0,3.204-0.644,4.375-1.812c2.409-2.409,2.409-6.332-0.001-8.741
	C53.197,44.449,51.645,43.807,49.992,43.807z M52.246,52.236c-1.204,1.201-3.302,1.203-4.502,0.004
	c-1.24-1.24-1.24-3.261-0.002-4.502c0.601-0.6,1.4-0.932,2.25-0.932c0.852,0,1.65,0.332,2.253,0.932
	C53.484,48.979,53.484,50.998,52.246,52.236z M35.012,59.352c-1.502,0-2.914,0.584-3.977,1.646c-2.191,2.191-2.191,5.76,0,7.951
	c1.062,1.062,2.475,1.646,3.976,1.646c1.501,0,2.913-0.585,3.976-1.646c2.191-2.193,2.191-5.76,0-7.951
	C37.924,59.936,36.513,59.352,35.012,59.352z M36.865,66.828c-0.991,0.99-2.718,0.99-3.709,0c-1.021-1.023-1.021-2.686,0-3.709
	c0.496-0.494,1.154-0.768,1.855-0.768c0.699,0,1.357,0.272,1.854,0.768C37.887,64.143,37.887,65.805,36.865,66.828z M70.084,36.181
	l-5.128-1.152L63.805,29.9c-0.106-0.475-0.438-0.867-0.885-1.055c-0.449-0.188-0.96-0.146-1.372,0.109l-8.396,5.221
	c-0.549,0.342-0.817,0.996-0.668,1.624c0.152,0.628,0.688,1.089,1.332,1.145l8.496,0.727l0.728,8.497
	c0.056,0.645,0.517,1.18,1.146,1.331c0.115,0.028,0.232,0.042,0.35,0.042c0.511,0,0.996-0.262,1.273-0.709l5.221-8.396
	c0.257-0.412,0.298-0.924,0.109-1.371C70.95,36.616,70.559,36.287,70.084,36.181z M58.57,34.34l2.769-1.723l0.449,1.998L58.57,34.34
	z M65.645,41.414l-0.274-3.218l1.997,0.448L65.645,41.414z M78.789,70.268l-4.76-4.748c-0.977-0.967-3.312-1.11-4.618-1.11
	c-1.185,0-2.011,0.118-2.603,0.274l-4.927-4.928c8.318-8.658,12.562-17.234,14.375-21.678c3.041-7.459,3.494-13.274,1.21-15.559
	c-1.006-1.006-2.601-1.516-4.74-1.516c-7.254,0-20.918,5.99-32.481,17.092L35.31,33.16c0.206-0.762,0.3-1.74,0.271-2.949
	c-0.035-1.476-0.26-3.416-1.125-4.277l-4.76-4.748c-1.367-1.354-3.732-1.353-5.094,0.01l-3.391,3.401
	c-0.682,0.681-1.058,1.587-1.058,2.552c0.001,0.965,0.376,1.87,1.06,2.55l4.76,4.747c0.975,0.967,3.312,1.111,4.617,1.111
	c1.184,0,2.009-0.117,2.601-0.273l4.936,4.936c-6.268,6.515-11.393,14.121-14.482,21.582c-3.077,7.431-3.495,13.283-1.12,15.658
	c0.961,0.963,2.506,1.451,4.592,1.451c7.355,0,21.107-5.974,32.641-17.039l4.936,4.937c-0.205,0.762-0.299,1.739-0.271,2.948
	c0.035,1.476,0.259,3.414,1.125,4.277l4.761,4.745c0.68,0.677,1.584,1.05,2.543,1.05c0.963,0,1.867-0.375,2.551-1.06l3.39-3.399
	c0.683-0.681,1.06-1.586,1.06-2.552C79.852,71.854,79.473,70.947,78.789,70.268z M32.428,32.385
	c-0.291,0.074-0.887,0.172-1.838,0.172c-1.334,0-2.293-0.196-2.582-0.318l-4.678-4.664c-0.153-0.154-0.176-0.334-0.177-0.428
	c0-0.093,0.022-0.273,0.18-0.429l3.392-3.403c0.154-0.153,0.334-0.176,0.427-0.176c0.095,0,0.275,0.022,0.429,0.175l4.682,4.67
	C32.604,28.719,32.69,31.418,32.428,32.385z M27.115,75.91c-1.762,0-2.336-0.438-2.471-0.572c-0.955-0.955-1.271-5.041,1.771-12.389
	c1.729-4.174,5.792-12.264,13.823-20.619l1.262,1.262c-3.139,4.166-2.825,10.127,0.967,13.924c2.012,2.01,4.686,3.117,7.529,3.117
	c2.336,0,4.55-0.758,6.382-2.139l1.256,1.256C46.027,70.873,32.916,75.91,27.115,75.91z M55.4,55.395
	c-1.443,1.443-3.362,2.238-5.404,2.238c-2.043,0-3.964-0.795-5.408-2.238c-2.979-2.981-2.979-7.833,0-10.812
	c1.445-1.445,3.365-2.242,5.408-2.242c2.042,0,3.961,0.796,5.404,2.242c1.445,1.443,2.24,3.362,2.24,5.404
	C57.643,52.027,56.846,53.949,55.4,55.395z M58.499,56.373c1.383-1.836,2.142-4.051,2.144-6.387c0-2.844-1.108-5.518-3.119-7.525
	c-2.01-2.013-4.684-3.121-7.526-3.121c-2.332,0-4.542,0.756-6.373,2.133l-1.262-1.262c7.468-7.062,21.048-16.207,30.367-16.207
	c1.787,0,2.426,0.445,2.619,0.637c0.864,0.865,1.123,4.972-1.867,12.305c-1.728,4.235-5.772,12.406-13.719,20.689L58.499,56.373z
	 M76.668,73.248l-3.393,3.402c-0.153,0.154-0.334,0.178-0.426,0.178c-0.095,0-0.274-0.023-0.429-0.176l-4.683-4.67
	c-0.342-0.736-0.43-3.435-0.166-4.4c0.291-0.076,0.888-0.174,1.838-0.174c1.334,0,2.293,0.197,2.582,0.318l4.678,4.666
	c0.153,0.151,0.178,0.332,0.178,0.426S76.824,73.092,76.668,73.248z"/>
</svg>
