<?xml version="1.0" encoding="utf-8"?>
<!-- Generator: Adobe Illustrator 16.0.0, SVG Export Plug-In . SVG Version: 6.00 Build 0)  -->
<!DOCTYPE svg PUBLIC "-//W3C//DTD SVG 1.1//EN" "http://www.w3.org/Graphics/SVG/1.1/DTD/svg11.dtd">
<svg version="1.1" id="Layer_1" xmlns="http://www.w3.org/2000/svg" xmlns:xlink="http://www.w3.org/1999/xlink" x="0px" y="0px"
	 width="361.798px" height="93.258px" viewBox="0 0 361.798 93.258" enable-background="new 0 0 361.798 93.258"
	 xml:space="preserve">
<g>
	<path fill="#FFC92B" d="M27.624,50.239l-3.881,3.952V68.94H9.699V15.73h14.043v16.513L41.737,14.46l11.221,10.303L38.35,39.513
		l17.925,21.453L44.561,71.339L27.624,50.239z"/>
	<path fill="#FFC92B" d="M62.661,27.763c-1.294-0.729-2.353-1.729-3.176-2.999c-0.824-1.271-1.235-2.634-1.235-4.093
		c0-2.258,0.858-4.139,2.576-5.646c1.717-1.505,3.775-2.258,6.175-2.258c2.258,0,4.081,0.683,5.469,2.046
		c1.387,1.365,2.082,3.176,2.082,5.434c0,2.494-0.753,4.552-2.258,6.175c-1.506,1.623-3.388,2.435-5.646,2.435
		C65.283,28.856,63.954,28.493,62.661,27.763z M58.956,31.538h14.749V68.94h-13.62L58.956,31.538z"/>
	<path fill="#FFC92B" d="M111.601,36.02c2.586,3.316,3.881,7.54,3.881,12.667c0,3.624-0.67,6.951-2.012,9.986
		c-1.34,3.034-3.234,5.434-5.681,7.198c-2.447,1.765-5.293,2.646-8.539,2.646c-3.482,0-6.375-0.635-8.68-1.905l0.635,19.407H77.232
		v-54.55l11.503,0.07l0.494,3.74c1.646-1.364,3.575-2.47,5.787-3.317c2.21-0.847,4.234-1.246,6.069-1.2
		C105.506,30.951,109.012,32.703,111.601,36.02z M102.391,55.179c1.152-1.223,1.729-2.894,1.729-5.011
		c0-2.211-0.635-3.987-1.906-5.328c-1.27-1.341-2.94-2.011-5.01-2.011c-2.023,0-3.705,0.635-5.046,1.906
		c-1.341,1.27-2.011,2.87-2.011,4.799c0,2.023,0.764,3.775,2.293,5.257c1.528,1.482,3.328,2.223,5.399,2.223
		C99.72,57.014,101.237,56.403,102.391,55.179z"/>
	<path fill="#FFFFFF" d="M162.833,69.293l-1.482-31.686l-6.774,31.686h-14.114l-7.833-29.639l-0.353,28.863l-14.114,0.071V15.095
		l10.162,0.635l10.797,0.353l7.904,28.369l5.363-28.792h13.69h8.397l2.47,53.139L162.833,69.293z"/>
	<path fill="#FFFFFF" d="M216.96,31.468v37.331h-13.408v-3.458c-1.176,1.365-2.682,2.435-4.516,3.211
		c-1.835,0.776-3.812,1.164-5.929,1.164c-4.846,0-8.492-1.611-10.938-4.834c-2.447-3.222-3.624-7.939-3.529-14.149l0.212-19.406
		h13.056l-0.07,18.701c0,1.976,0.481,3.493,1.446,4.552c0.964,1.059,2.34,1.588,4.128,1.588c1.929,0,3.446-0.764,4.552-2.293
		c1.105-1.528,1.659-3.469,1.659-5.822v0.071l0.07-16.654H216.96z"/>
	<path fill="#FFFFFF" d="M254.29,31.538l-10.162,37.614h-17.148l-8.045-37.684h13.55l3.811,21.523l4.376-21.453H254.29z"/>
	<path fill="#FFFFFF" d="M259.407,27.763c-1.295-0.729-2.354-1.729-3.176-2.999c-0.823-1.271-1.235-2.634-1.235-4.093
		c0-2.258,0.858-4.139,2.576-5.646c1.717-1.505,3.775-2.258,6.175-2.258c2.258,0,4.081,0.683,5.469,2.046
		c1.388,1.365,2.082,3.176,2.082,5.434c0,2.494-0.753,4.552-2.258,6.175c-1.507,1.623-3.388,2.435-5.646,2.435
		C262.029,28.856,260.7,28.493,259.407,27.763z M255.702,31.538h14.749V68.94h-13.62L255.702,31.538z"/>
	<path fill="#FFFFFF" d="M308.064,34.396c2.022,2.329,2.987,5.61,2.894,9.845l-0.424,24.911H297.62l0.07-16.584
		c0-3.434-0.458-5.88-1.376-7.339c-0.917-1.458-2.271-2.188-4.058-2.188c-1.459,0-2.717,0.423-3.775,1.271
		c-1.059,0.847-1.706,2.282-1.94,4.305l0.07,20.536h-12.773V31.538l12.633-0.211v3.599c1.787-1.175,3.881-2.14,6.28-2.893
		c2.399-0.752,4.751-1.129,7.057-1.129C303.289,30.903,306.041,32.067,308.064,34.396z"/>
	<path fill="#FFFFFF" d="M353.864,31.609l-0.424,35.144c-0.047,2.258-0.576,4.893-1.588,7.904c-1.012,3.01-2.929,5.727-5.751,8.151
		c-2.823,2.422-6.704,3.634-11.645,3.634c-4.188,0-7.893-0.906-11.114-2.717c-3.224-1.812-5.74-4.352-7.551-7.622
		c-1.812-3.271-2.718-7.022-2.718-11.256l13.056,4.305c0.047,1.646,0.765,2.939,2.152,3.881c1.388,0.94,2.999,1.412,4.834,1.412
		c3.34,0,5.634-1.094,6.881-3.282c1.246-2.188,1.846-4.622,1.8-7.304v-0.988c-1.601,1.083-3.506,1.976-5.717,2.682
		c-2.212,0.706-4.258,1.059-6.14,1.059c-3.152,0-6.068-0.717-8.75-2.152c-2.682-1.435-4.799-3.411-6.352-5.928
		c-1.553-2.517-2.329-5.328-2.329-8.433c0-3.199,0.812-6.281,2.435-9.245c1.624-2.964,3.799-5.363,6.528-7.198
		c2.728-1.835,5.621-2.752,8.68-2.752c2.305,0,4.527,0.271,6.669,0.812c2.141,0.542,3.963,1.283,5.47,2.223l0.07-2.329H353.864z
		 M336.574,53.768c1.364-1.458,2.047-3.151,2.047-5.081c0-1.976-0.659-3.622-1.977-4.94c-1.317-1.316-2.94-1.976-4.869-1.976
		c-1.882,0-3.422,0.659-4.622,1.976c-1.199,1.318-1.8,3.012-1.8,5.081c0,2.071,0.601,3.775,1.8,5.116
		c1.2,1.341,2.692,2.011,4.481,2.011C333.563,55.955,335.209,55.227,336.574,53.768z"/>
</g>
</svg>
