<?xml version="1.0" encoding="utf-8"?>
<!-- Generator: Adobe Illustrator 16.0.0, SVG Export Plug-In . SVG Version: 6.00 Build 0)  -->
<!DOCTYPE svg PUBLIC "-//W3C//DTD SVG 1.1//EN" "http://www.w3.org/Graphics/SVG/1.1/DTD/svg11.dtd">
<svg version="1.1" id="Capa_1" xmlns="http://www.w3.org/2000/svg" xmlns:xlink="http://www.w3.org/1999/xlink" x="0px" y="0px"
	 width="612px" height="792px" viewBox="0 0 612 792" enable-background="new 0 0 612 792" xml:space="preserve">
<g>
	<path fill="#5F5F60" d="M306,182.809c-73.553,0-133.396,59.84-133.396,133.393c0,73.553,59.842,133.393,133.396,133.393
		c73.553,0,133.396-59.84,133.396-133.393C439.396,242.648,379.553,182.809,306,182.809z M306,413.713
		c-53.769,0-97.516-43.745-97.516-97.514c0-53.77,43.747-97.511,97.516-97.511c53.77,0,97.516,43.745,97.516,97.514
		S359.771,413.713,306,413.713z"/>
	<path fill="#5F5F60" d="M306,90C181.273,90,79.801,191.472,79.801,316.199c0,71.931,60.326,179.099,96.284,236.575
		c23.659,37.814,49.083,73.805,71.587,101.336c36.121,44.189,49.05,47.888,58.33,47.888c9.42,0,21.626-3.701,57.635-47.914
		c22.554-27.696,47.99-63.665,71.625-101.28c36.205-57.618,96.939-164.977,96.939-236.607C532.201,191.472,430.729,90,306,90z
		 M410.388,524.867c-46.395,75.307-88.988,126.193-104.601,139.185c-15.694-12.592-57.596-62.269-104.639-138.947
		c-54.314-88.539-85.465-164.683-85.465-208.905c-0.002-104.943,85.374-190.32,190.317-190.32
		c104.943,0,190.319,85.377,190.319,190.32C496.322,360.168,464.999,436.224,410.388,524.867z"/>
</g>
</svg>
