<svg xmlns="http://www.w3.org/2000/svg" width="171" height="48" viewBox="0 0 171 48">
  <metadata><?xpacket begin="﻿" id="W5M0MpCehiHzreSzNTczkc9d"?>
<x:xmpmeta xmlns:x="adobe:ns:meta/" x:xmptk="Adobe XMP Core 5.6-c138 79.159824, 2016/09/14-01:09:01        ">
   <rdf:RDF xmlns:rdf="http://www.w3.org/1999/02/22-rdf-syntax-ns#">
      <rdf:Description rdf:about=""/>
   </rdf:RDF>
</x:xmpmeta>
                                                                                                    
                                                                                                    
                                                                                                    
                                                                                                    
                                                                                                    
                                                                                                    
                                                                                                    
                                                                                                    
                                                                                                    
                                                                                                    
                                                                                                    
                                                                                                    
                                                                                                    
                                                                                                    
                                                                                                    
                                                                                                    
                                                                                                    
                                                                                                    
                                                                                                    
                                                                                                    
                           
<?xpacket end="w"?></metadata>
<defs>
    <style>
      .cls-1 {
        fill: #ffcd06;
        fill-rule: evenodd;
        opacity: 0.9;
      }
    </style>
  </defs>
  <path id="KeepMoving" class="cls-1" d="M3.412,14.063a11.092,11.092,0,0,0-.573,1.6q-0.209.776-.312,1.345l-0.1.414a12.33,12.33,0,0,0-.338,1.914q-0.078.88-.182,1.448c-0.035.207-.061,0.406-0.078,0.595a2.276,2.276,0,0,0,.026.595,2.87,2.87,0,0,0-.052.569v0.569a8.181,8.181,0,0,0-.026,1.138q0.026,0.57.078,1.293a0.985,0.985,0,0,1,.052.31,2.42,2.42,0,0,0,.052.569,0.307,0.307,0,0,1,.13.207,2.883,2.883,0,0,0,.234.466,1.913,1.913,0,0,0,.443.491,1.345,1.345,0,0,0,.7.284,0.972,0.972,0,0,0,.989-0.1A1.866,1.866,0,0,0,4.974,27.1a2.628,2.628,0,0,0,.156-1.19,8.32,8.32,0,0,0-.156-1.138,9.5,9.5,0,0,1-.052-0.957,4.16,4.16,0,0,0-.1-0.905V20.063a25.983,25.983,0,0,1,.937-5.146,20.1,20.1,0,0,1,1.588-3.9,12.833,12.833,0,0,1,1.9-2.69,6.555,6.555,0,0,1,1.874-1.448c0.069,0,.1-0.017.1-0.052A1.556,1.556,0,0,1,11.9,6.77l0.312,0.155a2.174,2.174,0,0,1,.469.569,3.629,3.629,0,0,1,.416,1.19,11.681,11.681,0,0,1,.156,3.155,25.437,25.437,0,0,1-.573,4.241v0.1a1.867,1.867,0,0,0-.078.336,1.287,1.287,0,0,1-.13.388q-0.209.725-.521,1.862t-0.885,2.638q-1.042,3-2.083,5.948T7.005,33.3a7.759,7.759,0,0,0-.312,4.086,7.427,7.427,0,0,0,1.25,2.793,6.981,6.981,0,0,0,1.666,1.629,10.761,10.761,0,0,1,.937.647q0.416,0.516.6,0.414a0.714,0.714,0,0,0,.286-0.414,4.185,4.185,0,0,0,0-.931,33.447,33.447,0,0,1-.052-4.913,29.053,29.053,0,0,1,.573-4.189V32.372a0.149,0.149,0,0,1,.052-0.1V32.114q0.1-.361.312-1.112t0.625-1.836a24.125,24.125,0,0,1,1.041-2.534q0.572-1.189,1.25-2.328a40.758,40.758,0,0,0,1.562,4.5A22.4,22.4,0,0,0,19.137,33.1Q19.5,33.562,19.814,34t0.625,0.853A27.781,27.781,0,0,0,23.3,37.8a24.614,24.614,0,0,0,3.176,2.483,7.828,7.828,0,0,0,1.744.853,6.174,6.174,0,0,0,1.848.362,3.076,3.076,0,0,0,1.562-.336,1.945,1.945,0,0,0,.937-1.19,0.838,0.838,0,0,0-.1-0.7,3.548,3.548,0,0,0-.521-0.647,5.367,5.367,0,0,0-.677-0.569Q30.9,37.8,30.644,37.648a37.751,37.751,0,0,1-6.2-4.991,36.3,36.3,0,0,1-3.957-4.707,20.843,20.843,0,0,1-2.213-3.957,21.729,21.729,0,0,1-.963-2.845,27.863,27.863,0,0,1,1.848-2.327q0.963-1.086,1.848-2.017,0.832-.879,1.64-1.578t1.432-1.267q0.312-.258.547-0.466a3.942,3.942,0,0,1,.39-0.31q1.093-.827,3.15-2.2a32.412,32.412,0,0,1,4.712-2.56q0.572-.258,1.38-0.543t1.744-.543c0.1-.034.225-0.069,0.364-0.1a2,2,0,0,1,.364-0.078q0.207-.025.469-0.078a0.84,0.84,0,0,0,.208-0.026,0.87,0.87,0,0,1,.208-0.026h0.052a1.621,1.621,0,0,0,.573-0.207l0.521-.31a0.751,0.751,0,0,1,.156-0.129,0.281,0.281,0,0,0,.1-0.129,1.511,1.511,0,0,0,.26-0.905,2.623,2.623,0,0,0-.573-1.371,2.929,2.929,0,0,0-.677-0.8,4.1,4.1,0,0,0-.677-0.44A2.133,2.133,0,0,0,36.683,2.5c-0.174-.017-0.3-0.026-0.364-0.026a1.986,1.986,0,0,0-.625.1,0.855,0.855,0,0,1-.26.052,0.837,0.837,0,0,1-.364.1,18.776,18.776,0,0,0-3.176,1.422q-1.511.853-2.135,1.215l-0.365.207A32.253,32.253,0,0,0,26.322,7.7q-1.458,1.138-2.6,2.172T21.766,11.71l-1.119,1.112q-0.99.983-1.927,2.043t-1.874,2.25L17,16.339q0.156-1.086.234-2.043t0.13-1.836a13.334,13.334,0,0,0-.208-3.026,9.439,9.439,0,0,0-.651-2.095,6.065,6.065,0,0,0-.781-1.293q-0.39-.465-0.6-0.672l-0.833-.465A4.183,4.183,0,0,0,13.2,4.572a3.5,3.5,0,0,0-.937-0.026c-0.278.035-.495,0.069-0.651,0.1a1.642,1.642,0,0,0-.338.1,0.214,0.214,0,0,0-.156.052,10,10,0,0,0-.963.44,4.384,4.384,0,0,0-.755.491,5.384,5.384,0,0,0-.677.569,18.177,18.177,0,0,0-3.306,3.827,21.367,21.367,0,0,0-2,3.983V14.063Zm41.914,7.758a1.028,1.028,0,0,0-.312.362q-0.781,1.656-1.848,3.724t-2.109,3.931V29.89l-0.1.1a26.02,26.02,0,0,1-1.432,2.328,11.658,11.658,0,0,1-2.057,2.328,5.044,5.044,0,0,1-1.3.879,0.932,0.932,0,0,1-.781-0.1H35.329a1.247,1.247,0,0,1-.521-0.931,7.232,7.232,0,0,1-.052-1.526,15.281,15.281,0,0,1,.208-1.733q0.156-.879.312-1.552a0.579,0.579,0,0,0,.052-0.259q0.26-.1,1.041-0.44a9.372,9.372,0,0,0,1.744-1.034,11.425,11.425,0,0,0,1.953-1.862,12.342,12.342,0,0,0,1.77-2.87,4.7,4.7,0,0,0,.312-0.983,1.233,1.233,0,0,0-.156-0.931,6.174,6.174,0,0,0-.339-0.672q-0.234-.413-0.495-0.828a10.774,10.774,0,0,0-1.25-1.5,1.643,1.643,0,0,0-1.406-.569c-0.1.035-.217,0.07-0.338,0.1s-0.269.086-.443,0.155a9.372,9.372,0,0,0-1.562,1.112,11.587,11.587,0,0,0-1.822,2.043,20.641,20.641,0,0,0-1.822,3.129,25,25,0,0,0-1.562,4.371,5.857,5.857,0,0,1-.156.672,3.814,3.814,0,0,0-.156.724q-0.051.415-.1,0.931a19.742,19.742,0,0,0-.1,2.069,8.671,8.671,0,0,0,.26,2.121,5.432,5.432,0,0,0,.781,1.784,2.571,2.571,0,0,0,1.562,1.008L33.09,38.01h0.052a1.1,1.1,0,0,0,.416.052h0.885A0.214,0.214,0,0,0,34.6,38.01a3.576,3.576,0,0,0,1.2-.31,3.748,3.748,0,0,0,.521-0.259q0.26-.155.573-0.31a12.5,12.5,0,0,0,1.77-1.422,15.214,15.214,0,0,0,1.51-1.681,15.82,15.82,0,0,0,.937-1.345q0.416-.672.677-1.138,0.26-.413.469-0.828t0.312-.672q0.676-1.4,1.3-2.715t1.145-2.405q0.52-1.086.833-1.758a6.058,6.058,0,0,0,.312-0.724,0.833,0.833,0,0,0-.1-0.362,0.634,0.634,0,0,0-.1-0.155h0q-0.312-.413-0.625-0.1h0Zm-8.9,4.189q0.312-.672.416-0.931a11.747,11.747,0,0,1,.911-1.6,8.5,8.5,0,0,1,1.015-1.241,2.865,2.865,0,0,1,.833-0.621,0.534,0.534,0,0,1,.781.052,0.862,0.862,0,0,1,.13.233,1.271,1.271,0,0,1-.13.75,3.452,3.452,0,0,1-.443.879,12.289,12.289,0,0,1-.963,1.241q-0.574.57-1.354,1.319T35.8,27.718a0.461,0.461,0,0,0,.052-0.207A12.387,12.387,0,0,1,36.423,26.011Zm20.462-4.189a1.029,1.029,0,0,0-.312.362q-0.781,1.656-1.848,3.724t-2.109,3.931V29.89l-0.1.1a26.043,26.043,0,0,1-1.432,2.328,11.659,11.659,0,0,1-2.057,2.328,5.042,5.042,0,0,1-1.3.879,0.932,0.932,0,0,1-.781-0.1H46.888a1.247,1.247,0,0,1-.521-0.931,7.238,7.238,0,0,1-.052-1.526,15.281,15.281,0,0,1,.208-1.733q0.156-.879.312-1.552a0.579,0.579,0,0,0,.052-0.259q0.26-.1,1.041-0.44a9.372,9.372,0,0,0,1.744-1.034,11.425,11.425,0,0,0,1.953-1.862,12.342,12.342,0,0,0,1.77-2.87,4.7,4.7,0,0,0,.312-0.983,1.234,1.234,0,0,0-.156-0.931,6.174,6.174,0,0,0-.338-0.672q-0.234-.413-0.495-0.828a10.774,10.774,0,0,0-1.25-1.5,1.643,1.643,0,0,0-1.406-.569q-0.156.052-.338,0.1t-0.443.155a9.368,9.368,0,0,0-1.562,1.112A11.587,11.587,0,0,0,45.9,21.149a20.641,20.641,0,0,0-1.822,3.129,25,25,0,0,0-1.562,4.371,5.816,5.816,0,0,1-.156.672,3.822,3.822,0,0,0-.156.724q-0.051.415-.1,0.931a19.742,19.742,0,0,0-.1,2.069,8.667,8.667,0,0,0,.26,2.121,5.429,5.429,0,0,0,.781,1.784A2.571,2.571,0,0,0,44.6,37.958l0.052,0.052H44.7a1.1,1.1,0,0,0,.416.052H46a0.214,0.214,0,0,0,.156-0.052,3.576,3.576,0,0,0,1.2-.31,3.748,3.748,0,0,0,.521-0.259q0.26-.155.573-0.31a12.5,12.5,0,0,0,1.77-1.422,15.214,15.214,0,0,0,1.51-1.681,15.82,15.82,0,0,0,.937-1.345q0.416-.672.677-1.138,0.26-.413.469-0.828t0.312-.672q0.676-1.4,1.3-2.715t1.145-2.405q0.52-1.086.833-1.758a6.058,6.058,0,0,0,.312-0.724,0.835,0.835,0,0,0-.1-0.362,0.634,0.634,0,0,0-.1-0.155h0q-0.312-.413-0.625-0.1h0Zm-8.9,4.189q0.312-.672.416-0.931a11.736,11.736,0,0,1,.911-1.6,8.5,8.5,0,0,1,1.015-1.241,2.865,2.865,0,0,1,.833-0.621,0.534,0.534,0,0,1,.781.052,0.863,0.863,0,0,1,.13.233,1.27,1.27,0,0,1-.13.75,3.452,3.452,0,0,1-.443.879,12.3,12.3,0,0,1-.963,1.241q-0.574.57-1.354,1.319t-1.822,1.629a0.461,0.461,0,0,0,.052-0.207A12.387,12.387,0,0,1,47.981,26.011ZM63.653,20.5q-1.146,1.578-2.291,3.388a7.7,7.7,0,0,0,.416-1.293,0.515,0.515,0,0,0,.052-0.233,0.51,0.51,0,0,1,.052-0.233,0.456,0.456,0,0,1,.052-0.207,2.571,2.571,0,0,0-.13-1.681,3.38,3.38,0,0,0-.911-1.164,5.077,5.077,0,0,0-1.51-.931,0.575,0.575,0,0,0-.677.207l-0.312.466a8.839,8.839,0,0,0-.391.905q-0.182.492-.338,0.957a3.106,3.106,0,0,1-.182.621q-0.182.518-.234,0.724-0.676,1.966-1.328,4.008t-1.2,3.983q-0.547,1.939-1.041,3.75t-0.859,3.258q-0.207.879-.443,2.276a25.453,25.453,0,0,0-.312,2.819,11.546,11.546,0,0,0,.13,2.612,1.968,1.968,0,0,0,.937,1.552,0.607,0.607,0,0,0,.573.1,0.884,0.884,0,0,0,.495-0.336,2.481,2.481,0,0,0,.391-1.009q0.365-1.552.781-3.1,0.365-1.346.807-2.819t0.859-2.664q0.365-1.034.7-2.121t0.7-2.172q0.416-.827.859-1.655t0.859-1.6q0.832-1.5,1.718-2.819T63.5,23.709q0.728-1.059,1.276-1.758t0.7-.905h0.052V20.994l0.052-.052a0.214,0.214,0,0,1,.156-0.052v0.052l0.052,0.1V21.1q-0.209.88-.391,1.733t-0.391,1.733q-0.1.362-.443,1.526T63.6,28.8a28.578,28.578,0,0,1-1.562,3.233,18.736,18.736,0,0,1-2.187,3.129,0.426,0.426,0,0,1-.443.181,0.392,0.392,0,0,1-.234-0.285,0.652,0.652,0,0,0-.208-0.362,0.415,0.415,0,0,0-.156-0.052,0.48,0.48,0,0,0-.416.078c-0.1.086-.191,0.164-0.26,0.233a2.792,2.792,0,0,0-.156.362,1.838,1.838,0,0,0,.1,1.422,1.731,1.731,0,0,0,.521.543,1.272,1.272,0,0,0,.364.155,2.11,2.11,0,0,0,1.224.155,2.823,2.823,0,0,0,1.224-.517,5.261,5.261,0,0,0,.573-0.543c0.208-.224.347-0.37,0.416-0.44q0.416-.466,1.067-1.216t1.38-1.758q0.729-1.009,1.484-2.25a18.888,18.888,0,0,0,1.328-2.638q0.26-.569.469-1.112t0.365-1.112V25.959q0.1-.413.182-0.8c0.052-.259.112-0.525,0.182-0.8a9.146,9.146,0,0,0,.26-2.534,4.36,4.36,0,0,0-.937-2.431q-1.3-1.81-2.6-.931h0A7.7,7.7,0,0,0,63.653,20.5ZM109,25.752c-0.139-.207-0.27-0.275-0.391-0.207a0.826,0.826,0,0,0-.286.259q-0.156.155-1.562,2.664T102.6,35.114a18.036,18.036,0,0,1-.052-3.129q0.1-1.835.365-3.8t0.573-3.827q0.312-1.862.52-3.1,0.1-.569.235-1.112t0.234-1.112c0.034-.137.06-0.259,0.078-0.362a1.911,1.911,0,0,0,.026-0.31,2.708,2.708,0,0,0-.156-1.034A1.959,1.959,0,0,0,104,16.7a2.727,2.727,0,0,0-.625-0.362,2.265,2.265,0,0,0-1.588.052,5.852,5.852,0,0,0-1.119.621A18.346,18.346,0,0,0,98.3,19.675a35.175,35.175,0,0,0-2.057,3.077q-1.042,1.707-2.031,3.569a16.127,16.127,0,0,1,.7-2.328q0.547-1.5,1.224-3.077T97.5,17.865q0.676-1.474,1.093-2.25a2.891,2.891,0,0,0,.338-1.6,2.836,2.836,0,0,0-.469-1.345,2.119,2.119,0,0,0-.989-0.8,1.621,1.621,0,0,0-1.171-.026,5.843,5.843,0,0,0-1.718,1.319A22.661,22.661,0,0,0,92.5,15.666Q91.4,17.167,90.207,19t-2.369,3.724q-1.172,1.889-2.239,3.75T83.7,29.89q0.676-2.9,1.744-6.181t2.083-6.258Q88.54,14.477,89.4,12.1t1.171-3.465a5.364,5.364,0,0,0,.312-1.267,4.455,4.455,0,0,0,0-.957,1.871,1.871,0,0,0-.13-0.724,4.431,4.431,0,0,0-.286-0.569,0.272,0.272,0,0,1-.13-0.1,0.448,0.448,0,0,0-.078-0.1,2.818,2.818,0,0,0-.417-0.259,3.248,3.248,0,0,1-.364-0.207,0.848,0.848,0,0,0-.364-0.1,0.564,0.564,0,0,0-.312-0.1,1.522,1.522,0,0,1-.365-0.052H88.384a6.551,6.551,0,0,0-1.927.181,11.156,11.156,0,0,0-1.718.569,10.525,10.525,0,0,0-1.328.672q-0.547.337-.755,0.491A15.174,15.174,0,0,0,78.6,10.106a30.145,30.145,0,0,0-2.6,4.526,6.436,6.436,0,0,0-.364.724q-0.261.57-.547,1.345t-0.6,1.707a12.176,12.176,0,0,0-.469,1.862q-0.1.57-.156,1.112T73.7,22.649v0.543a1.043,1.043,0,0,0,.052.336q0.051,0.1.391,0.776a2.721,2.721,0,0,0,1.536,1.138,2.133,2.133,0,0,0,1.432.259,1.588,1.588,0,0,0,.807-0.465q0.051-.051.26-0.31a4.81,4.81,0,0,0,.156-0.569,2.087,2.087,0,0,0,.052-0.569V23.4a2.335,2.335,0,0,0-.052-0.44,11.851,11.851,0,0,1,.1-2.25q0.156-1.059.26-1.784a28.239,28.239,0,0,1,1.536-4.862,21.55,21.55,0,0,1,1.953-3.646,13.091,13.091,0,0,1,2.135-2.483,8.279,8.279,0,0,1,2.031-1.371,1.4,1.4,0,0,1,1.093-.155L87.5,6.46a1.019,1.019,0,0,1,.286.31,0.933,0.933,0,0,1,.026.672,3.265,3.265,0,0,1-.364,1.034,3.775,3.775,0,0,0-.234.414q-0.131.259-.286,0.517c0,0.035-.009.052-0.026,0.052s-0.026.018-.026,0.052q-0.833,1.552-1.64,3.207T83.62,16.261Q82.812,18.15,81.98,20.4t-1.77,5.043a24.636,24.636,0,0,0-1.354,6.388,12.568,12.568,0,0,0,.416,4.215,2.667,2.667,0,0,0,.156.569,3.789,3.789,0,0,0,.625,1.086v0.052a2.7,2.7,0,0,0,.625.543,1.422,1.422,0,0,0,.781.233h0.208a1.3,1.3,0,0,0,.573-0.155,3.194,3.194,0,0,0,.416-0.31,1.526,1.526,0,0,0,.521-0.672,3.318,3.318,0,0,0,.338-0.647q0.129-.336.234-0.646a18.162,18.162,0,0,1,.807-2.457q0.547-1.37,1.276-2.845t1.562-3q0.832-1.525,1.666-2.974,1.926-3.309,4.217-6.879-0.574,1.345-1.145,2.793-0.469,1.293-.937,2.9a25.434,25.434,0,0,0-.729,3.31,4.825,4.825,0,0,0,.13,2.741,3.965,3.965,0,0,0,1.12,1.578,3.374,3.374,0,0,0,1.38.7,2.808,2.808,0,0,0,.963.1,0.868,0.868,0,0,0,.521-0.285,1.7,1.7,0,0,0,.312-0.491,1.474,1.474,0,0,0,.156-0.672,10.8,10.8,0,0,1,.677-2.69q0.572-1.552,1.25-3.026T98.3,22.261a10.843,10.843,0,0,1,.963-1.526,0.355,0.355,0,0,1,.26-0.1h0.052c0.069,0,.1.07,0.1,0.207q-0.209.931-.521,2.405t-0.625,3.077q-0.312,1.6-.521,3.077a17.875,17.875,0,0,0-.208,2.405v0.724q0,0.31-.026.647a2.614,2.614,0,0,0,.026.646q0.051,0.776.13,1.81a9.115,9.115,0,0,0,.338,1.914c0.034,0.1.069,0.215,0.1,0.336a4.485,4.485,0,0,0,.156.44,2.9,2.9,0,0,0,.234.388,2.279,2.279,0,0,0,.234.285h0.052a1.189,1.189,0,0,0,.989.465,2.1,2.1,0,0,0,1.666-.362l0.157-.155,0.312-.31a1.406,1.406,0,0,0,.26-0.362,0.456,0.456,0,0,0,.078-0.1,0.378,0.378,0,0,1,.078-0.1c0-.035.009-0.052,0.026-0.052s0.027-.018.027-0.052a5.28,5.28,0,0,0,.312-0.517q0.312-.568.677-1.215t0.468-.8q1.354-2.275,2.526-4.345T109,26.631a0.3,0.3,0,0,0,.1-0.207,0.1,0.1,0,0,1,.026-0.078,0.105,0.105,0,0,0,.026-0.078V26.218a0.9,0.9,0,0,0-.052-0.362h0Zm7.575-.052a3.405,3.405,0,0,0-.546-0.569q1.457-.568,3.2-1.448a19.33,19.33,0,0,0,3.514-2.328,0.818,0.818,0,0,0,.208-0.31c0.07-.172-0.122-0.31-0.572-0.414a3.23,3.23,0,0,0-.677-0.026,1.731,1.731,0,0,0-.677.284q-0.105.052-1.224,0.724a22.854,22.854,0,0,1-3.2,1.5,4.927,4.927,0,0,0,.313-0.931,1.123,1.123,0,0,0-.1-0.828q-0.158-.206-0.391-0.569t-0.495-.776a8.927,8.927,0,0,0-1.249-1.293,1.4,1.4,0,0,0-1.354-.362,3.359,3.359,0,0,0-.729.31,10.966,10.966,0,0,0-1.562,1.215A14,14,0,0,0,109.185,22a23.482,23.482,0,0,0-1.9,3.155,25.638,25.638,0,0,0-1.666,4.267,5.793,5.793,0,0,1-.156.672,3.827,3.827,0,0,0-.156.724q-0.051.414-.1,0.879a14.116,14.116,0,0,0-.183,1.991,7.237,7.237,0,0,0,.235,2.043,4.675,4.675,0,0,0,.781,1.552,2.311,2.311,0,0,0,1.562.828h0.1a3.834,3.834,0,0,0,1.874-.31,8.247,8.247,0,0,0,1.823-.983,9.579,9.579,0,0,0,1.874-1.862,14.984,14.984,0,0,0,1.432-2.25,17.435,17.435,0,0,0,.989-2.3q0.39-1.137.651-2.069a10.01,10.01,0,0,0,.416-1.914A0.957,0.957,0,0,0,116.578,25.7Zm-2.629-.621c0.069,0.07.147,0.155,0.234,0.259a1.9,1.9,0,0,1,.234.362,3.362,3.362,0,0,1,.287,1.6,10.041,10.041,0,0,1-.287,2.069,13.393,13.393,0,0,1-.728,2.172,14.1,14.1,0,0,1-.99,1.914,6.452,6.452,0,0,1-1.041,1.293,4.477,4.477,0,0,1-.807.595,1.02,1.02,0,0,1-.573.155c-0.156-.017-0.269-0.026-0.338-0.026l-0.052-.052a1.039,1.039,0,0,1-.521-0.828,5.477,5.477,0,0,1-.026-1.422,14.91,14.91,0,0,1,.26-1.655q0.183-.853.339-1.577,0.1-.465.234-0.905t0.234-.8a0.284,0.284,0,0,0,.1-0.181,0.415,0.415,0,0,1,.053-0.181,12.4,12.4,0,0,1,.572-1.5c0.209-.448.347-0.758,0.417-0.931a0.654,0.654,0,0,0,.156-0.259,0.638,0.638,0,0,1,.156-0.259,2.187,2.187,0,0,1,.261-0.465,7.619,7.619,0,0,1,.676-1.034q0.365-.466.677-0.879a5.848,5.848,0,0,1,.885-0.724,0.89,0.89,0,0,1,.833,0,1.353,1.353,0,0,0,.131.207,0.894,0.894,0,0,1,.13.31,3.169,3.169,0,0,1-.365.569,2.541,2.541,0,0,1-.39.491,6.082,6.082,0,0,0-.443.491l-0.052.052-0.182.181-0.182.181a0.715,0.715,0,0,0-.052.31,0.9,0.9,0,0,0,.1.414h0Zm16.921-9.206q-0.364.983-1.171,3.026t-1.823,4.422q-1.016,2.38-2.108,4.784t-1.953,4.164a23.408,23.408,0,0,1-1.38,2.534q-0.521.776-.416-0.1a0.366,0.366,0,0,0-.026-0.155,0.346,0.346,0,0,1-.026-0.155,7,7,0,0,1,.156-1.422q0.156-.749.468-1.888t0.834-2.793q0.519-1.655,1.3-4.189,0.207-.982.313-1.448t0.156-.672a1.465,1.465,0,0,0,.052-0.285V21.407a2.2,2.2,0,0,0-.391-1.319A5.72,5.72,0,0,0,124,19.132a7.444,7.444,0,0,0-1.249-.724h-0.157a0.86,0.86,0,0,0-.676.543,7.442,7.442,0,0,0-.547,1.19q-0.234.647-.391,1.241a4.967,4.967,0,0,0-.156.7q-0.624,2.638-1.041,4.474t-0.651,3.155q-0.234,1.319-.312,2.25t-0.079,1.862a3.83,3.83,0,0,0,.313,1.009,6.1,6.1,0,0,0,.7,1.19,4.979,4.979,0,0,0,.989,1.008,1.837,1.837,0,0,0,1.119.414,0.151,0.151,0,0,0,.105-0.052,0.129,0.129,0,0,1,.156,0q0.468,0.207,1.38-1.06a36.034,36.034,0,0,0,2.056-3.31q1.145-2.043,2.343-4.526t2.213-4.733q1.015-2.25,1.666-3.879a13.954,13.954,0,0,0,.7-1.991V17.528a1.137,1.137,0,0,0-.625-1.034,7.925,7.925,0,0,1-.885-0.569h0Zm0.442,20.094a0.1,0.1,0,0,1,.026.078,3.107,3.107,0,0,0,.7.595q0.444,0.285.911,0.543c0.383,0.173.764,0.328,1.146,0.466a0.493,0.493,0,0,0,.625-0.259,2.024,2.024,0,0,0,.26-0.465q0.051-.1.6-1.19t1.327-2.612q0.782-1.525,1.667-3.284t1.64-3.284q0.753-1.525,1.249-2.56t0.5-1.086a0.5,0.5,0,0,0-.052-0.362,0.841,0.841,0,0,0-.156-0.207,0.327,0.327,0,0,0-.521,0,2.038,2.038,0,0,0-.26.31q-0.678,1.4-1.614,3.1t-1.823,3.336q-0.885,1.629-1.666,2.948t-1.145,1.94q0.1-.361.208-0.724t0.208-.776l1.2-4.19,1.2-4.189a5.484,5.484,0,0,0,.156-0.724,3.806,3.806,0,0,1,.157-0.672A5.484,5.484,0,0,0,138,21.976a2.257,2.257,0,0,0-.156-1.6,3.523,3.523,0,0,0-.885-1.086,5.167,5.167,0,0,0-1.406-.879,0.66,0.66,0,0,0-.729.362,6.046,6.046,0,0,0-.573,1.112,9.4,9.4,0,0,0-.416,1.293c-0.1.431-.174,0.716-0.209,0.853V22.08l-1.562,7.241-0.781,3.414-0.052.362c-0.034.173-.069,0.336-0.1,0.491a1.886,1.886,0,0,0-.052.388A5.029,5.029,0,0,0,131,35.062a1.542,1.542,0,0,0,.286.828A0.106,0.106,0,0,0,131.312,35.967ZM139.357,8.3a4.558,4.558,0,0,0-.781.44l-0.209.207-0.208.207a2.329,2.329,0,0,0-.156.259q-0.574,1.035-.963,1.81a10.741,10.741,0,0,0-.7,1.862,9.453,9.453,0,0,0-.495,2.431,2.812,2.812,0,0,0,.391,1.6,1.994,1.994,0,0,0,.624.569q0.417,0.259.886,0.517a0.683,0.683,0,0,0,.416.129,0.649,0.649,0,0,0,.573-0.336,4.964,4.964,0,0,0,.6-1.164q0.234-.646.338-1.06a11.079,11.079,0,0,1,.885-2.043,10.737,10.737,0,0,1,.911-1.345q0.442-.543.781-0.931a3.848,3.848,0,0,0,.547-0.8A1.008,1.008,0,0,0,143,10.132V9.77a1.575,1.575,0,0,0-.416-0.828,2.678,2.678,0,0,0-1.3-.672A2.862,2.862,0,0,0,139.357,8.3Zm17.6,14.042a2.108,2.108,0,0,0-.261.31q-0.677,1.4-1.614,3.1t-1.822,3.336q-0.887,1.629-1.666,2.948t-1.146,1.94q0.1-.361.183-0.724c0.052-.241.112-0.5,0.182-0.776l1.249-4.19,1.2-4.189a5.042,5.042,0,0,0,.156-1.086,5.292,5.292,0,0,0-.1-1.81,5.036,5.036,0,0,0-.781-1.707q-1.3-1.81-2.6-.983a7.716,7.716,0,0,0-1.458,1.578,21.26,21.26,0,0,0-1.432,2.3q-0.7,1.293-1.354,2.715t-1.223,2.767L145.6,24.1a5.484,5.484,0,0,0,.156-0.724,3.72,3.72,0,0,1,.157-0.672,5.484,5.484,0,0,0,.156-0.724,2.257,2.257,0,0,0-.156-1.6,3.511,3.511,0,0,0-.886-1.086,5.161,5.161,0,0,0-1.405-.879,0.6,0.6,0,0,0-.625.207,3.133,3.133,0,0,0-.469.8q-0.207.492-.39,1.034t-0.287.983q-0.1.44-.156,0.595V22.08l-1.354,6.258q-0.156.621-.286,1.164t-0.234,1.009a0.965,0.965,0,0,0-.078.284,1.846,1.846,0,0,1-.079.336q-0.1.621-.156,1.345a13.727,13.727,0,0,0-.026,1.448,7.371,7.371,0,0,0,.182,1.4,2.9,2.9,0,0,0,.521,1.138,0.282,0.282,0,0,0,.1.129,0.279,0.279,0,0,1,.1.129h0.052a0.046,0.046,0,0,0,.053.052,0.151,0.151,0,0,0,.1.052l0.1,0.1c0.035,0,.052.009,0.052,0.026s0.018,0.026.052,0.026a0.046,0.046,0,0,1,.052.052h0.1l0.1,0.1a2.7,2.7,0,0,0,.495.181c0.191,0.052.373,0.1,0.547,0.129a0.616,0.616,0,0,0,.781-0.517q0.1-.569.156-1.164a10.527,10.527,0,0,1,.26-1.474,23,23,0,0,1,.7-2.2q0.548-1.525,1.328-3.31t1.718-3.569a19.191,19.191,0,0,1,1.926-3.026c0.07-.069.165-0.155,0.287-0.259s0.147-.052.078,0.155l-1.562,7.241-0.781,3.414-0.052.362c-0.035.173-.07,0.336-0.1,0.491a1.819,1.819,0,0,0-.052.388,4.905,4.905,0,0,0-.078,1.086,1.526,1.526,0,0,0,.286.828,0.1,0.1,0,0,0,.026.078,0.108,0.108,0,0,1,.026.078,3.063,3.063,0,0,0,.7.595c0.294,0.19.6,0.371,0.911,0.543,0.382,0.173.763,0.328,1.146,0.466a0.492,0.492,0,0,0,.624-0.259,2.027,2.027,0,0,0,.261-0.465q0.051-.1.6-1.19t1.3-2.612q0.755-1.525,1.64-3.284t1.64-3.284q0.754-1.525,1.25-2.56t0.547-1.086a0.5,0.5,0,0,0-.052-0.362,0.823,0.823,0,0,0-.157-0.207h0a0.326,0.326,0,0,0-.52,0h0ZM160.1,40.1a7.12,7.12,0,0,1-1.588,1.009q-0.624.31-1.77,0.853a21.541,21.541,0,0,1-2.812,1.06,35.8,35.8,0,0,1-3.826.931,37.238,37.238,0,0,1-4.765.569,9.911,9.911,0,0,1-3.332.052q-1.457-.259-2.629-0.517a11.328,11.328,0,0,0-2.135-.285,2.489,2.489,0,0,0-1.8.75,1.437,1.437,0,0,0-.469.853,2.134,2.134,0,0,0,.13,1.164A2.865,2.865,0,0,0,136,47.708a4.707,4.707,0,0,0,1.745.854,12.585,12.585,0,0,0,2.707.44,20.944,20.944,0,0,0,4.139-.181,41.321,41.321,0,0,0,5.546-1.164,54.046,54.046,0,0,0,6.977-2.509q0.729-.415,1.327-0.724a11.755,11.755,0,0,0,1.068-.621,23,23,0,0,0,2.186-1.552A9.635,9.635,0,0,0,163.15,40.8a6.078,6.078,0,0,0,.885-1.5,6.62,6.62,0,0,0,.417-1.81l0.156-.1a1.913,1.913,0,0,0,.313-0.362l0.1-.207q0.051-.1.6-1.164t1.3-2.612q0.754-1.552,1.64-3.31t1.64-3.258q0.754-1.5,1.25-2.534a7.761,7.761,0,0,0,.495-1.138,0.5,0.5,0,0,0-.052-0.362,0.343,0.343,0,0,0-.157-0.155,0.326,0.326,0,0,0-.286-0.181,0.457,0.457,0,0,0-.234.129,2.108,2.108,0,0,0-.261.31q-0.729,1.552-1.77,3.439t-2.031,3.646q-0.988,1.759-1.744,3.026T164.5,34.234q0.1-.413.208-0.724,0.156-.672.443-1.759t0.625-2.327q0.338-1.241.7-2.534t0.65-2.379q0.287-1.086.521-1.862t0.286-.983a2.364,2.364,0,0,0,.1-1.19,1.833,1.833,0,0,0-.157-0.465q-0.364-.361-0.624-0.672-0.261-.258-0.5-0.517a2.281,2.281,0,0,0-.391-0.362,0.365,0.365,0,0,0-.52.207,1.122,1.122,0,0,0-.156.362l-0.781,1.914c-0.279-.241-0.573-0.5-0.886-0.776-0.278-.241-0.6-0.491-0.963-0.75s-0.773-.525-1.223-0.8a1.512,1.512,0,0,0-1.484-.052,4.853,4.853,0,0,0-1.64,1.345,12.878,12.878,0,0,0-1.614,2.534,24.82,24.82,0,0,0-1.406,3.465,19.846,19.846,0,0,0-1.12,6.258,18.352,18.352,0,0,0,.339,3.465,4.116,4.116,0,0,0,1.119,2.017,3.828,3.828,0,0,0,1.536.983,0.889,0.889,0,0,0,.989-0.052,3.952,3.952,0,0,0,.677-1.086q0.156-.361.677-1.629t1.094-2.664q0.571-1.4,1.041-2.56t0.521-1.267v0.052q-0.1.415-.339,1.241T161.771,32.5q-0.235,1.009-.443,2.069a14.582,14.582,0,0,0-.26,1.888V36.51c-0.035.173-.078,0.414-0.131,0.724s-0.1.621-.13,0.931-0.07.586-.1,0.828a0.719,0.719,0,0,0,0,.414A1.162,1.162,0,0,1,160.1,40.1Zm-1.9-4.526a0.7,0.7,0,0,1-.052-0.517c0.035-.172.086-0.508,0.156-1.008s0.182-1.1.339-1.81,0.346-1.482.572-2.327,0.5-1.715.807-2.612a17.6,17.6,0,0,1,.964-2.172,12.578,12.578,0,0,1,1.145-1.81,5.254,5.254,0,0,1,1.224-1.19,2.25,2.25,0,0,1,1.249-.414q-1.458,3.311-2.759,6.155-0.574,1.19-1.12,2.405t-1.015,2.276q-0.469,1.061-.833,1.888t-0.521,1.19a0.209,0.209,0,0,1-.156-0.052h0Z"/>
</svg>
