<?xml version="1.0" encoding="utf-8"?>
<!-- Generator: Adobe Illustrator 16.0.0, SVG Export Plug-In . SVG Version: 6.00 Build 0)  -->
<!DOCTYPE svg PUBLIC "-//W3C//DTD SVG 1.1//EN" "http://www.w3.org/Graphics/SVG/1.1/DTD/svg11.dtd">
<svg version="1.1" id="Layer_1" xmlns="http://www.w3.org/2000/svg" xmlns:xlink="http://www.w3.org/1999/xlink" x="0px" y="0px"
	 width="317.977px" height="107.865px" viewBox="0 0 317.977 107.865" enable-background="new 0 0 317.977 107.865"
	 xml:space="preserve">
<g>
	<path fill="#FFFFFF" d="M25.416,41.026L22,44.505v12.975H9.646V10.668H22v14.527L37.833,9.55l9.871,9.064L34.853,31.59
		l15.769,18.874l-10.306,9.127L25.416,41.026z"/>
	<path fill="#FFFFFF" d="M55.619,21.253c-1.139-0.641-2.07-1.521-2.794-2.639c-0.725-1.117-1.086-2.317-1.086-3.601
		c0-1.987,0.755-3.642,2.266-4.967c1.51-1.324,3.321-1.987,5.432-1.987c1.987,0,3.59,0.601,4.812,1.801
		c1.22,1.201,1.832,2.793,1.832,4.78c0,2.194-0.663,4.004-1.987,5.432c-1.325,1.428-2.98,2.142-4.966,2.142
		C57.926,22.216,56.757,21.895,55.619,21.253z M52.36,24.575h12.975v32.904H53.353L52.36,24.575z"/>
	<path fill="#FFFFFF" d="M98.052,28.517c2.276,2.918,3.415,6.633,3.415,11.144c0,3.188-0.59,6.115-1.769,8.785
		c-1.18,2.67-2.846,4.779-4.998,6.334c-2.152,1.551-4.656,2.326-7.512,2.326c-3.063,0-5.609-0.559-7.636-1.676l0.559,17.074H67.817
		V24.514l10.12,0.062l0.435,3.291c1.448-1.2,3.145-2.173,5.091-2.918c1.945-0.745,3.725-1.096,5.339-1.055
		C92.69,24.058,95.775,25.599,98.052,28.517z M89.95,45.374c1.014-1.076,1.521-2.545,1.521-4.408c0-1.946-0.559-3.509-1.676-4.689
		c-1.117-1.18-2.587-1.769-4.408-1.769c-1.78,0-3.26,0.559-4.439,1.676c-1.18,1.117-1.77,2.525-1.77,4.221
		c0,1.779,0.672,3.322,2.018,4.625c1.345,1.305,2.928,1.955,4.75,1.955C87.6,46.987,88.935,46.45,89.95,45.374z"/>
	<path fill="#FFFFFF" d="M142.502,57.79l-1.304-27.876l-5.96,27.876h-12.417l-6.891-26.076l-0.311,25.393l-12.417,0.062v-47.06
		l8.94,0.559l9.499,0.31l6.953,24.958l4.718-25.33h12.044h7.388l2.173,46.749L142.502,57.79z"/>
	<path fill="#FFFFFF" d="M189.499,24.513v32.841h-11.795v-3.041c-1.035,1.201-2.358,2.143-3.974,2.824
		c-1.614,0.684-3.353,1.025-5.215,1.025c-4.264,0-7.472-1.418-9.623-4.252c-2.153-2.834-3.188-6.984-3.104-12.449l0.188-17.073
		h11.484l-0.062,16.452c0,1.74,0.424,3.074,1.271,4.004c0.848,0.932,2.059,1.398,3.633,1.398c1.696,0,3.03-0.674,4.004-2.02
		c0.972-1.344,1.459-3.051,1.459-5.122v0.062l0.062-14.652L189.499,24.513L189.499,24.513z"/>
	<path fill="#FFFFFF" d="M221.72,24.575l-8.939,33.09h-15.087l-7.077-33.152h11.92l3.354,18.937l3.85-18.875H221.72z"/>
	<path fill="#FFFFFF" d="M225.599,21.253c-1.139-0.641-2.068-1.521-2.793-2.639c-0.725-1.117-1.086-2.317-1.086-3.601
		c0-1.987,0.754-3.642,2.267-4.967c1.51-1.324,3.321-1.987,5.432-1.987c1.987,0,3.591,0.601,4.812,1.801
		c1.222,1.201,1.832,2.793,1.832,4.78c0,2.194-0.662,4.004-1.986,5.432c-1.325,1.428-2.979,2.142-4.967,2.142
		C227.908,22.216,226.739,21.895,225.599,21.253z M222.341,24.575h12.976v32.904h-11.982L222.341,24.575z"/>
	<path fill="#FFFFFF" d="M267.785,27.089c1.779,2.048,2.628,4.936,2.546,8.661l-0.373,21.915h-11.36l0.062-14.588
		c0-3.022-0.403-5.174-1.211-6.458c-0.808-1.283-1.997-1.925-3.569-1.925c-1.283,0-2.391,0.373-3.32,1.118
		c-0.933,0.745-1.502,2.008-1.709,3.787l0.062,18.066h-11.236v-33.09l11.112-0.186v3.166c1.572-1.034,3.414-1.883,5.524-2.545
		c2.111-0.662,4.181-0.993,6.209-0.993C263.583,24.016,266.005,25.04,267.785,27.089z"/>
	<path fill="#FFFFFF" d="M307.456,24.637l-0.373,30.917c-0.041,1.988-0.507,4.305-1.396,6.953c-0.892,2.648-2.576,5.039-5.061,7.172
		c-2.482,2.131-5.898,3.197-10.244,3.197c-3.684,0-6.942-0.797-9.777-2.391c-2.836-1.594-5.051-3.828-6.644-6.705
		c-1.594-2.877-2.39-6.178-2.39-9.902l11.484,3.787c0.041,1.449,0.672,2.586,1.895,3.416c1.22,0.828,2.639,1.242,4.252,1.242
		c2.938,0,4.956-0.963,6.055-2.889c1.096-1.924,1.623-4.064,1.582-6.426V52.14c-1.406,0.953-3.084,1.738-5.027,2.359
		c-1.946,0.621-3.748,0.932-5.401,0.932c-2.772,0-5.34-0.631-7.698-1.895c-2.359-1.262-4.222-3-5.588-5.215
		c-1.365-2.215-2.049-4.688-2.049-7.42c0-2.813,0.714-5.524,2.143-8.132c1.428-2.608,3.342-4.719,5.742-6.333
		c2.399-1.614,4.945-2.421,7.637-2.421c2.026,0,3.982,0.239,5.866,0.714c1.884,0.477,3.486,1.128,4.812,1.956l0.062-2.049
		L307.456,24.637L307.456,24.637z M292.246,44.132c1.199-1.283,1.8-2.773,1.8-4.471c0-1.738-0.579-3.187-1.737-4.346
		c-1.16-1.159-2.588-1.739-4.283-1.739c-1.656,0-3.012,0.58-4.066,1.739c-1.056,1.159-1.584,2.649-1.584,4.47
		s0.528,3.321,1.584,4.501c1.055,1.18,2.368,1.77,3.941,1.77C289.597,46.056,291.044,45.415,292.246,44.132z"/>
</g>
<g>
	<path fill="#D9A827" d="M218.754,72.804c1.891,0.909,3.408,2.162,4.55,3.758c1.143,1.598,1.714,3.391,1.714,5.38
		c0,1.892-0.504,3.636-1.511,5.231c-1.008,1.598-2.39,2.862-4.146,3.796c-1.757,0.934-3.679,1.399-5.767,1.399
		c-0.663,0-1.399-0.061-2.21-0.184l0.184,7.406H204.2l-0.736-25.607c3.34-1.695,6.411-2.543,9.211-2.543
		C214.835,71.44,216.862,71.896,218.754,72.804z M212.969,85.773c0.786,0,1.541-0.171,2.266-0.516
		c0.725-0.344,1.309-0.812,1.751-1.4c0.441-0.589,0.663-1.228,0.663-1.916c0-1.203-0.442-2.204-1.327-3.003
		c-0.884-0.798-1.916-1.197-3.095-1.197c-0.736,0-1.449,0.184-2.137,0.553l0.147,7.148
		C211.802,85.663,212.379,85.773,212.969,85.773z"/>
	<path fill="#D9A827" d="M245.688,79.915v19.491h-7.001v-1.806c-0.614,0.713-1.4,1.271-2.358,1.677s-1.989,0.608-3.095,0.608
		c-2.53,0-4.434-0.842-5.711-2.524s-1.892-4.146-1.842-7.388l0.11-10.133h6.816l-0.037,9.765c0,1.032,0.252,1.823,0.755,2.376
		c0.504,0.553,1.222,0.83,2.156,0.83c1.007,0,1.799-0.4,2.376-1.198s0.866-1.812,0.866-3.04v0.037l0.037-8.695H245.688z"/>
	<path fill="#D9A827" d="M251.398,98.43c-1.547-0.945-2.775-2.21-3.684-3.795c-0.909-1.585-1.363-3.285-1.363-5.103
		c0-1.818,0.436-3.482,1.308-4.993c0.871-1.511,2.051-2.708,3.537-3.593c1.486-0.884,3.125-1.326,4.919-1.326
		c1.597,0,3.162,0.369,4.697,1.105s2.782,1.732,3.74,2.984c0.958,1.253,1.437,2.604,1.437,4.053l-6.189,0.553
		c-0.222-0.712-0.621-1.283-1.197-1.713c-0.578-0.43-1.223-0.645-1.935-0.645c-0.983,0-1.861,0.362-2.635,1.086
		c-0.773,0.726-1.16,1.555-1.16,2.488c0,0.613,0.184,1.215,0.553,1.805c0.368,0.59,0.853,1.068,1.455,1.438
		c0.602,0.368,1.222,0.553,1.86,0.553s1.247-0.185,1.824-0.553c0.577-0.369,0.988-0.835,1.234-1.4l6.116,0.59
		c0,1.351-0.461,2.634-1.382,3.85c-0.921,1.217-2.118,2.192-3.593,2.93c-1.474,0.736-2.984,1.105-4.531,1.105
		C254.616,99.849,252.946,99.376,251.398,98.43z"/>
	<path fill="#D9A827" d="M271.442,98.301c-1.598-0.958-2.855-2.241-3.777-3.851c-0.921-1.608-1.381-3.322-1.381-5.14
		c0-2.014,0.521-3.759,1.565-5.231c1.044-1.475,2.358-2.592,3.942-3.354s3.188-1.143,4.809-1.143c2.112,0,3.954,0.4,5.526,1.197
		c1.572,0.799,2.788,1.936,3.647,3.408c0.86,1.475,1.29,3.193,1.29,5.158c0,1.941-0.455,3.703-1.363,5.288
		c-0.909,1.585-2.155,2.831-3.74,3.739c-1.584,0.91-3.334,1.363-5.25,1.363S273.038,99.259,271.442,98.301z M279.493,92.479
		c0.675-0.664,1.013-1.572,1.013-2.727c0-1.105-0.319-2.039-0.958-2.801c-0.639-0.761-1.584-1.143-2.837-1.143
		c-1.105,0-2.021,0.369-2.745,1.105c-0.725,0.737-1.087,1.646-1.087,2.727c0,1.105,0.381,2.021,1.143,2.746
		c0.761,0.725,1.731,1.086,2.91,1.086C277.963,93.474,278.816,93.143,279.493,92.479z"/>
	<path fill="#D9A827" d="M305.596,81.444c1.057,1.216,1.56,2.93,1.511,5.14l-0.221,13.007h-6.743l0.037-8.659
		c0-1.792-0.239-3.07-0.719-3.832c-0.479-0.761-1.185-1.142-2.118-1.142c-0.762,0-1.419,0.221-1.972,0.662
		c-0.553,0.443-0.891,1.192-1.013,2.248l0.037,10.723h-6.669V79.952l6.595-0.111v1.879c0.934-0.613,2.026-1.117,3.279-1.51
		s2.48-0.59,3.685-0.59C303.103,79.62,304.541,80.228,305.596,81.444z"/>
</g>
</svg>
