<?xml version="1.0" encoding="utf-8"?>
<!-- Generator: Adobe Illustrator 16.0.0, SVG Export Plug-In . SVG Version: 6.00 Build 0)  -->
<!DOCTYPE svg PUBLIC "-//W3C//DTD SVG 1.1//EN" "http://www.w3.org/Graphics/SVG/1.1/DTD/svg11.dtd">
<svg version="1.1" id="Layer_1" xmlns="http://www.w3.org/2000/svg" xmlns:xlink="http://www.w3.org/1999/xlink" x="0px" y="0px"
	 width="316.484px" height="85.714px" viewBox="0 0 316.484 85.714" enable-background="new 0 0 316.484 85.714"
	 xml:space="preserve">
<g>
	<path fill="#FFFFFF" d="M27.381,43.737l-3.415,3.477v12.976H11.612V13.378h12.354v14.527l15.832-15.645l9.871,9.064L36.818,34.3
		l15.769,18.873L42.281,62.3L27.381,43.737z"/>
	<path fill="#FFFFFF" d="M57.584,23.963c-1.139-0.641-2.07-1.521-2.794-2.639c-0.725-1.117-1.086-2.317-1.086-3.601
		c0-1.987,0.755-3.642,2.266-4.967c1.51-1.324,3.321-1.987,5.432-1.987c1.987,0,3.59,0.601,4.812,1.801
		c1.22,1.201,1.832,2.793,1.832,4.78c0,2.194-0.663,4.004-1.987,5.432c-1.325,1.428-2.98,2.142-4.966,2.142
		C59.891,24.926,58.722,24.605,57.584,23.963z M54.325,27.285H67.3v32.904H55.318L54.325,27.285z"/>
	<path fill="#FFFFFF" d="M100.017,31.227c2.276,2.918,3.415,6.633,3.415,11.144c0,3.188-0.59,6.115-1.769,8.785
		c-1.18,2.669-2.846,4.78-4.998,6.333c-2.152,1.552-4.656,2.328-7.512,2.328c-3.063,0-5.609-0.559-7.636-1.676l0.559,17.073H69.782
		v-47.99l10.12,0.062l0.435,3.291c1.448-1.2,3.145-2.173,5.091-2.918c1.945-0.745,3.725-1.096,5.339-1.055
		C94.656,26.768,97.74,28.309,100.017,31.227z M91.915,48.083c1.014-1.076,1.521-2.545,1.521-4.408c0-1.945-0.559-3.508-1.676-4.688
		s-2.587-1.769-4.408-1.769c-1.78,0-3.26,0.559-4.439,1.676c-1.18,1.117-1.77,2.525-1.77,4.221c0,1.78,0.672,3.322,2.018,4.625
		c1.345,1.304,2.928,1.956,4.75,1.956C89.565,49.697,90.9,49.159,91.915,48.083z"/>
	<path fill="#FFFFFF" d="M144.468,60.499l-1.304-27.875l-5.96,27.875h-12.417l-6.891-26.075l-0.311,25.392l-12.417,0.062V12.819
		l8.94,0.559l9.499,0.31l6.953,24.958l4.718-25.33h12.044h7.388l2.173,46.749L144.468,60.499z"/>
	<path fill="#FFFFFF" d="M191.464,27.223v32.842h-11.795v-3.042c-1.035,1.201-2.359,2.142-3.974,2.825
		c-1.614,0.683-3.352,1.024-5.215,1.024c-4.263,0-7.471-1.417-9.623-4.252c-2.153-2.834-3.188-6.984-3.104-12.448l0.187-17.073
		h11.485l-0.062,16.452c0,1.739,0.424,3.073,1.272,4.004c0.848,0.932,2.059,1.397,3.632,1.397c1.697,0,3.031-0.672,4.004-2.018
		c0.972-1.345,1.459-3.052,1.459-5.122v0.062l0.062-14.652H191.464z"/>
	<path fill="#FFFFFF" d="M223.685,27.285l-8.939,33.09h-15.087l-7.077-33.152h11.92l3.353,18.936l3.85-18.874H223.685z"/>
	<path fill="#FFFFFF" d="M227.565,23.963c-1.139-0.641-2.069-1.521-2.793-2.639c-0.725-1.117-1.087-2.317-1.087-3.601
		c0-1.987,0.755-3.642,2.267-4.967c1.51-1.324,3.321-1.987,5.432-1.987c1.987,0,3.59,0.601,4.812,1.801
		c1.221,1.201,1.831,2.793,1.831,4.78c0,2.194-0.662,4.004-1.986,5.432c-1.325,1.428-2.979,2.142-4.967,2.142
		C229.873,24.926,228.704,24.605,227.565,23.963z M224.306,27.285h12.976v32.904h-11.982L224.306,27.285z"/>
	<path fill="#FFFFFF" d="M269.75,29.799c1.779,2.048,2.628,4.936,2.546,8.661l-0.373,21.915h-11.361l0.062-14.589
		c0-3.021-0.403-5.173-1.211-6.457c-0.807-1.283-1.997-1.925-3.569-1.925c-1.283,0-2.391,0.373-3.321,1.118
		c-0.932,0.745-1.501,2.008-1.708,3.787l0.062,18.066H239.64v-33.09l11.113-0.186v3.166c1.572-1.034,3.414-1.883,5.525-2.545
		c2.11-0.662,4.18-0.993,6.208-0.993C265.549,26.726,267.97,27.75,269.75,29.799z"/>
	<path fill="#FFFFFF" d="M309.421,27.347l-0.373,30.917c-0.041,1.987-0.507,4.304-1.396,6.953c-0.891,2.648-2.576,5.039-5.06,7.171
		c-2.483,2.131-5.898,3.197-10.244,3.197c-3.684,0-6.943-0.797-9.777-2.39c-2.836-1.594-5.051-3.829-6.644-6.705
		c-1.594-2.877-2.39-6.177-2.39-9.902l11.485,3.787c0.04,1.448,0.672,2.586,1.894,3.415c1.22,0.828,2.639,1.242,4.252,1.242
		c2.938,0,4.956-0.962,6.054-2.887c1.096-1.925,1.624-4.066,1.583-6.426V54.85c-1.407,0.953-3.084,1.738-5.028,2.359
		c-1.946,0.621-3.747,0.931-5.401,0.931c-2.773,0-5.34-0.631-7.698-1.894c-2.359-1.262-4.222-3-5.588-5.215
		c-1.366-2.214-2.049-4.688-2.049-7.419c0-2.814,0.714-5.525,2.142-8.133c1.429-2.608,3.342-4.719,5.743-6.333
		c2.399-1.614,4.945-2.421,7.636-2.421c2.027,0,3.983,0.239,5.867,0.714c1.883,0.477,3.486,1.128,4.812,1.956l0.062-2.049H309.421z
		 M294.211,46.841c1.199-1.282,1.8-2.772,1.8-4.47c0-1.738-0.58-3.187-1.738-4.346c-1.159-1.159-2.587-1.739-4.283-1.739
		c-1.656,0-3.012,0.58-4.066,1.739c-1.056,1.159-1.584,2.649-1.584,4.47c0,1.822,0.528,3.321,1.584,4.501
		c1.055,1.18,2.368,1.77,3.941,1.77C291.562,48.766,293.01,48.125,294.211,46.841z"/>
</g>
<g>
	<path fill="#FFFFFF" d="M186.327,65.979l-4.088,10.122h-1.701l-4.088-10.122h1.512c0.163,0,0.296,0.04,0.399,0.119
		s0.18,0.183,0.231,0.309l2.387,6.174c0.079,0.2,0.155,0.421,0.228,0.661c0.072,0.24,0.141,0.491,0.207,0.753
		c0.056-0.262,0.116-0.513,0.182-0.753s0.138-0.461,0.217-0.661l2.373-6.174c0.037-0.107,0.11-0.206,0.22-0.294
		c0.11-0.089,0.244-0.134,0.402-0.134H186.327z"/>
	<path fill="#FFFFFF" d="M189.547,76.102h-1.89V65.979h1.89V76.102z"/>
	<path fill="#FFFFFF" d="M200.76,65.979l-4.088,10.122h-1.701l-4.088-10.122h1.512c0.163,0,0.296,0.04,0.399,0.119
		s0.18,0.183,0.231,0.309l2.387,6.174c0.079,0.2,0.155,0.421,0.228,0.661c0.072,0.24,0.141,0.491,0.207,0.753
		c0.056-0.262,0.116-0.513,0.182-0.753s0.138-0.461,0.217-0.661l2.373-6.174c0.037-0.107,0.11-0.206,0.22-0.294
		c0.11-0.089,0.244-0.134,0.402-0.134H200.76z"/>
	<path fill="#FFFFFF" d="M203.98,67.478v2.808h3.542v1.448h-3.542v2.863h4.494v1.505h-6.384V65.979h6.384v1.498H203.98z"/>
	<path fill="#FFFFFF" d="M219.493,67.821c-0.056,0.098-0.116,0.169-0.179,0.213c-0.062,0.045-0.141,0.066-0.234,0.066
		c-0.098,0-0.204-0.036-0.318-0.108c-0.115-0.072-0.251-0.152-0.41-0.241c-0.158-0.089-0.344-0.169-0.557-0.241
		c-0.212-0.073-0.463-0.109-0.752-0.109c-0.262,0-0.49,0.032-0.686,0.095c-0.196,0.063-0.361,0.15-0.494,0.263
		s-0.232,0.246-0.297,0.402c-0.066,0.156-0.098,0.328-0.098,0.515c0,0.238,0.066,0.437,0.199,0.595
		c0.133,0.159,0.309,0.294,0.528,0.406s0.469,0.213,0.749,0.301c0.279,0.089,0.566,0.184,0.861,0.284
		c0.293,0.1,0.58,0.217,0.86,0.35s0.53,0.301,0.749,0.504s0.396,0.451,0.528,0.745c0.134,0.294,0.2,0.651,0.2,1.071
		c0,0.458-0.078,0.886-0.234,1.284c-0.157,0.399-0.386,0.747-0.687,1.044c-0.302,0.296-0.669,0.529-1.103,0.699
		c-0.434,0.171-0.932,0.256-1.491,0.256c-0.321,0-0.64-0.031-0.952-0.095c-0.312-0.062-0.612-0.152-0.898-0.27
		c-0.287-0.116-0.557-0.257-0.809-0.42s-0.477-0.345-0.673-0.546l0.554-0.903c0.046-0.065,0.107-0.12,0.182-0.164
		s0.154-0.066,0.238-0.066c0.116,0,0.242,0.048,0.377,0.144c0.136,0.096,0.297,0.201,0.483,0.318
		c0.187,0.116,0.405,0.223,0.655,0.318c0.249,0.096,0.549,0.144,0.898,0.144c0.537,0,0.953-0.127,1.246-0.382
		c0.295-0.254,0.441-0.619,0.441-1.095c0-0.267-0.066-0.483-0.199-0.651s-0.31-0.31-0.529-0.424
		c-0.219-0.114-0.469-0.211-0.748-0.29c-0.28-0.079-0.564-0.166-0.854-0.259c-0.29-0.094-0.573-0.206-0.854-0.337
		c-0.279-0.13-0.529-0.301-0.748-0.511c-0.22-0.21-0.396-0.473-0.529-0.787c-0.133-0.315-0.199-0.704-0.199-1.166
		c0-0.368,0.074-0.728,0.221-1.078c0.146-0.35,0.36-0.66,0.641-0.931c0.279-0.271,0.625-0.487,1.035-0.65
		c0.411-0.164,0.883-0.245,1.414-0.245c0.598,0,1.148,0.093,1.652,0.279c0.504,0.188,0.934,0.448,1.288,0.784L219.493,67.821z"/>
	<path fill="#FFFFFF" d="M223.951,76.102h-1.89V65.979h1.89V76.102z"/>
	<path fill="#FFFFFF" d="M237.468,65.979v10.122h-1.659v-6.538c0-0.261,0.015-0.543,0.042-0.847l-3.059,5.747
		c-0.145,0.275-0.367,0.413-0.665,0.413h-0.267c-0.299,0-0.52-0.138-0.664-0.413l-3.095-5.768c0.015,0.153,0.026,0.306,0.035,0.454
		c0.009,0.149,0.015,0.287,0.015,0.413v6.538h-1.66V65.979h1.422c0.084,0,0.156,0.003,0.217,0.007
		c0.061,0.005,0.115,0.017,0.164,0.035s0.094,0.05,0.133,0.092c0.04,0.042,0.078,0.098,0.116,0.168l3.03,5.62
		c0.08,0.149,0.153,0.304,0.221,0.463c0.068,0.158,0.135,0.321,0.199,0.489c0.066-0.172,0.134-0.339,0.203-0.5
		c0.07-0.161,0.145-0.316,0.225-0.466l2.988-5.606c0.038-0.07,0.078-0.126,0.119-0.168c0.043-0.042,0.088-0.073,0.137-0.092
		s0.104-0.03,0.164-0.035c0.061-0.004,0.134-0.007,0.218-0.007H237.468z"/>
	<path fill="#FFFFFF" d="M243.292,65.979c0.676,0,1.262,0.08,1.756,0.238c0.495,0.159,0.904,0.381,1.226,0.665
		c0.322,0.285,0.562,0.625,0.718,1.022c0.156,0.396,0.234,0.83,0.234,1.302c0,0.49-0.082,0.939-0.245,1.348
		s-0.408,0.759-0.735,1.053c-0.326,0.294-0.736,0.523-1.229,0.687s-1.066,0.245-1.725,0.245h-1.408v3.562h-1.883V65.979H243.292z
		 M243.292,71.068c0.345,0,0.646-0.043,0.902-0.129c0.257-0.087,0.471-0.21,0.641-0.371s0.297-0.357,0.381-0.588
		c0.084-0.231,0.127-0.489,0.127-0.773c0-0.271-0.043-0.516-0.127-0.735c-0.084-0.219-0.209-0.406-0.377-0.56
		c-0.168-0.154-0.381-0.272-0.637-0.354c-0.258-0.082-0.561-0.123-0.91-0.123h-1.408v3.633H243.292z"/>
	<path fill="#FFFFFF" d="M254.876,74.548v1.554h-5.929V65.979h1.883v8.568H254.876z"/>
	<path fill="#FFFFFF" d="M258.39,67.478v2.808h3.543v1.448h-3.543v2.863h4.494v1.505H256.5V65.979h6.384v1.498H258.39z"/>
	<path fill="#FFFFFF" d="M270.22,67.821c-0.056,0.098-0.115,0.169-0.178,0.213c-0.063,0.045-0.142,0.066-0.235,0.066
		c-0.098,0-0.204-0.036-0.318-0.108s-0.251-0.152-0.409-0.241s-0.344-0.169-0.557-0.241c-0.212-0.073-0.463-0.109-0.753-0.109
		c-0.261,0-0.489,0.032-0.686,0.095c-0.196,0.063-0.36,0.15-0.493,0.263s-0.232,0.246-0.298,0.402s-0.098,0.328-0.098,0.515
		c0,0.238,0.066,0.437,0.199,0.595c0.134,0.159,0.31,0.294,0.528,0.406c0.22,0.112,0.469,0.213,0.75,0.301
		c0.279,0.089,0.566,0.184,0.86,0.284c0.294,0.1,0.581,0.217,0.861,0.35c0.279,0.133,0.529,0.301,0.749,0.504
		c0.219,0.203,0.396,0.451,0.528,0.745s0.199,0.651,0.199,1.071c0,0.458-0.078,0.886-0.234,1.284
		c-0.156,0.399-0.385,0.747-0.687,1.044c-0.301,0.296-0.668,0.529-1.103,0.699c-0.434,0.171-0.931,0.256-1.491,0.256
		c-0.321,0-0.639-0.031-0.951-0.095c-0.312-0.062-0.613-0.152-0.899-0.27c-0.287-0.116-0.557-0.257-0.809-0.42
		s-0.476-0.345-0.673-0.546l0.554-0.903c0.046-0.065,0.107-0.12,0.183-0.164c0.074-0.044,0.153-0.066,0.237-0.066
		c0.116,0,0.243,0.048,0.378,0.144s0.297,0.201,0.482,0.318c0.188,0.116,0.406,0.223,0.655,0.318s0.55,0.144,0.899,0.144
		c0.536,0,0.952-0.127,1.246-0.382c0.294-0.254,0.441-0.619,0.441-1.095c0-0.267-0.067-0.483-0.2-0.651s-0.309-0.31-0.528-0.424
		s-0.469-0.211-0.749-0.29s-0.564-0.166-0.854-0.259c-0.289-0.094-0.573-0.206-0.854-0.337c-0.279-0.13-0.529-0.301-0.749-0.511
		s-0.396-0.473-0.528-0.787c-0.133-0.315-0.199-0.704-0.199-1.166c0-0.368,0.073-0.728,0.221-1.078
		c0.146-0.35,0.359-0.66,0.641-0.931c0.279-0.271,0.625-0.487,1.035-0.65c0.41-0.164,0.883-0.245,1.414-0.245
		c0.597,0,1.148,0.093,1.652,0.279c0.504,0.188,0.933,0.448,1.288,0.784L270.22,67.821z"/>
</g>
</svg>
