<?xml version="1.0" encoding="utf-8"?>
<!-- Generator: Adobe Illustrator 16.0.0, SVG Export Plug-In . SVG Version: 6.00 Build 0)  -->
<!DOCTYPE svg PUBLIC "-//W3C//DTD SVG 1.1//EN" "http://www.w3.org/Graphics/SVG/1.1/DTD/svg11.dtd">
<svg version="1.1" id="Layer_1" xmlns="http://www.w3.org/2000/svg" xmlns:xlink="http://www.w3.org/1999/xlink" x="0px" y="0px"
	 width="317.977px" height="107.865px" viewBox="0 0 317.977 107.865" enable-background="new 0 0 317.977 107.865"
	 xml:space="preserve">
<g>
	<path fill="#FFFFFF" d="M25.416,41.026L22,44.505v12.975H9.646V10.668H22v14.527L37.833,9.55l9.871,9.064L34.853,31.59
		l15.769,18.874l-10.306,9.127L25.416,41.026z"/>
	<path fill="#FFFFFF" d="M55.619,21.253c-1.139-0.641-2.07-1.521-2.794-2.639c-0.725-1.117-1.086-2.317-1.086-3.601
		c0-1.987,0.755-3.642,2.266-4.967c1.51-1.324,3.321-1.987,5.432-1.987c1.987,0,3.59,0.601,4.812,1.801
		c1.22,1.201,1.832,2.793,1.832,4.78c0,2.194-0.663,4.004-1.987,5.432c-1.325,1.428-2.98,2.142-4.966,2.142
		C57.926,22.216,56.757,21.895,55.619,21.253z M52.36,24.575h12.975v32.904H53.353L52.36,24.575z"/>
	<path fill="#FFFFFF" d="M98.052,28.517c2.276,2.918,3.415,6.633,3.415,11.144c0,3.188-0.59,6.115-1.769,8.785
		c-1.18,2.67-2.846,4.779-4.998,6.334c-2.152,1.551-4.656,2.326-7.512,2.326c-3.063,0-5.609-0.559-7.636-1.676l0.559,17.074H67.817
		V24.514l10.12,0.062l0.435,3.291c1.448-1.2,3.145-2.173,5.091-2.918c1.945-0.745,3.725-1.096,5.339-1.055
		C92.69,24.058,95.775,25.599,98.052,28.517z M89.95,45.374c1.014-1.076,1.521-2.545,1.521-4.408c0-1.946-0.559-3.509-1.676-4.689
		c-1.117-1.18-2.587-1.769-4.408-1.769c-1.78,0-3.26,0.559-4.439,1.676c-1.18,1.117-1.77,2.525-1.77,4.221
		c0,1.779,0.672,3.322,2.018,4.625c1.345,1.305,2.928,1.955,4.75,1.955C87.6,46.987,88.935,46.45,89.95,45.374z"/>
	<path fill="#FFFFFF" d="M142.502,57.79l-1.304-27.876l-5.96,27.876h-12.417l-6.891-26.076l-0.311,25.393l-12.417,0.062v-47.06
		l8.94,0.559l9.499,0.31l6.953,24.958l4.718-25.33h12.044h7.388l2.173,46.749L142.502,57.79z"/>
	<path fill="#FFFFFF" d="M189.499,24.513v32.841h-11.795v-3.041c-1.035,1.201-2.358,2.143-3.974,2.824
		c-1.614,0.684-3.353,1.025-5.215,1.025c-4.264,0-7.472-1.418-9.623-4.252c-2.153-2.834-3.188-6.984-3.104-12.449l0.188-17.073
		h11.484l-0.062,16.452c0,1.74,0.424,3.074,1.271,4.004c0.848,0.932,2.059,1.398,3.633,1.398c1.696,0,3.03-0.674,4.004-2.02
		c0.972-1.344,1.459-3.051,1.459-5.122v0.062l0.062-14.652L189.499,24.513L189.499,24.513z"/>
	<path fill="#FFFFFF" d="M221.72,24.575l-8.939,33.09h-15.087l-7.077-33.152h11.92l3.354,18.937l3.85-18.875H221.72z"/>
	<path fill="#FFFFFF" d="M225.599,21.253c-1.139-0.641-2.068-1.521-2.793-2.639c-0.725-1.117-1.086-2.317-1.086-3.601
		c0-1.987,0.754-3.642,2.267-4.967c1.51-1.324,3.321-1.987,5.432-1.987c1.987,0,3.591,0.601,4.812,1.801
		c1.222,1.201,1.832,2.793,1.832,4.78c0,2.194-0.662,4.004-1.986,5.432c-1.325,1.428-2.979,2.142-4.967,2.142
		C227.908,22.216,226.739,21.895,225.599,21.253z M222.341,24.575h12.976v32.904h-11.982L222.341,24.575z"/>
	<path fill="#FFFFFF" d="M267.785,27.089c1.779,2.048,2.628,4.936,2.546,8.661l-0.373,21.915h-11.36l0.062-14.588
		c0-3.022-0.403-5.174-1.211-6.458c-0.808-1.283-1.997-1.925-3.569-1.925c-1.283,0-2.391,0.373-3.32,1.118
		c-0.933,0.745-1.502,2.008-1.709,3.787l0.062,18.066h-11.236v-33.09l11.112-0.186v3.166c1.572-1.034,3.414-1.883,5.524-2.545
		c2.111-0.662,4.181-0.993,6.209-0.993C263.583,24.016,266.005,25.04,267.785,27.089z"/>
	<path fill="#FFFFFF" d="M307.456,24.637l-0.373,30.917c-0.041,1.988-0.507,4.305-1.396,6.953c-0.892,2.648-2.576,5.039-5.061,7.172
		c-2.482,2.131-5.898,3.197-10.244,3.197c-3.684,0-6.942-0.797-9.777-2.391c-2.836-1.594-5.051-3.828-6.644-6.705
		c-1.594-2.877-2.39-6.178-2.39-9.902l11.484,3.787c0.041,1.449,0.672,2.586,1.895,3.416c1.22,0.828,2.639,1.242,4.252,1.242
		c2.938,0,4.956-0.963,6.055-2.889c1.096-1.924,1.623-4.064,1.582-6.426V52.14c-1.406,0.953-3.084,1.738-5.027,2.359
		c-1.946,0.621-3.748,0.932-5.401,0.932c-2.772,0-5.34-0.631-7.698-1.895c-2.359-1.262-4.222-3-5.588-5.215
		c-1.365-2.215-2.049-4.688-2.049-7.42c0-2.813,0.714-5.524,2.143-8.132c1.428-2.608,3.342-4.719,5.742-6.333
		c2.399-1.614,4.945-2.421,7.637-2.421c2.026,0,3.982,0.239,5.866,0.714c1.884,0.477,3.486,1.128,4.812,1.956l0.062-2.049
		L307.456,24.637L307.456,24.637z M292.246,44.132c1.199-1.283,1.8-2.773,1.8-4.471c0-1.738-0.579-3.187-1.737-4.346
		c-1.16-1.159-2.588-1.739-4.283-1.739c-1.656,0-3.012,0.58-4.066,1.739c-1.056,1.159-1.584,2.649-1.584,4.47
		s0.528,3.321,1.584,4.501c1.055,1.18,2.368,1.77,3.941,1.77C289.597,46.056,291.044,45.415,292.246,44.132z"/>
</g>
<g>
	<path fill="#D9A827" d="M169.956,90.245l-9.358-0.037l-2.358,5.859l-7.369-3.021l12.085-24.65l7.369,0.074l8.658,26.16
		l-7.369,1.769L169.956,90.245z M167.967,82.876l-1.769-6.632l-2.653,6.595L167.967,82.876z"/>
	<path fill="#D9A827" d="M193.795,93.304c-0.811,1.203-1.799,2.094-2.967,2.671c-1.166,0.577-2.584,0.866-4.256,0.866
		c-2.234,0-3.904-0.571-5.01-1.713c-1.105-1.143-1.658-2.979-1.658-5.509c0-0.712,0.061-1.646,0.184-2.8l0.516-4.238h-2.91
		l-0.258-5.821l3.906-0.073l0.516-4.311l6.559-0.332l-0.516,4.568l4.125-0.073l0.701,6.005H187.2l-0.367,3.316
		c-0.051,0.442-0.074,0.762-0.074,0.959c0,0.982,0.184,1.756,0.553,2.32c0.367,0.565,0.859,0.848,1.473,0.848
		c0.615,0,1.154-0.135,1.621-0.405s0.982-0.749,1.549-1.437L193.795,93.304z"/>
	<path fill="#D9A827" d="M207.87,96.398l-0.037-1.731c-0.664,0.564-1.486,1.02-2.469,1.363s-1.99,0.516-3.021,0.516
		c-1.621,0-3.119-0.447-4.494-1.345c-1.377-0.896-2.469-2.106-3.279-3.63c-0.811-1.522-1.217-3.192-1.217-5.011
		c0-1.842,0.418-3.524,1.252-5.048c0.836-1.522,1.984-2.72,3.445-3.592s3.076-1.309,4.846-1.309c0.957,0,1.861,0.16,2.709,0.479
		c0.846,0.319,1.527,0.761,2.045,1.326v-1.585h6.115l0.848,19.565H207.87z M205.438,89.877c0.588-0.393,1.055-0.915,1.4-1.565
		c0.342-0.651,0.516-1.346,0.516-2.082c0-1.008-0.326-1.848-0.977-2.524c-0.652-0.675-1.469-1.013-2.451-1.013
		c-1.08,0-2.025,0.381-2.836,1.143c-0.811,0.761-1.217,1.67-1.217,2.726c0,0.64,0.178,1.266,0.535,1.88
		c0.355,0.613,0.822,1.105,1.398,1.473c0.578,0.369,1.174,0.553,1.787,0.553C204.233,90.466,204.848,90.271,205.438,89.877z"/>
	<path fill="#D9A827" d="M219.733,95.237c-1.547-0.945-2.775-2.21-3.684-3.795c-0.908-1.584-1.363-3.285-1.363-5.103
		s0.436-3.481,1.309-4.993c0.871-1.51,2.051-2.707,3.537-3.592s3.125-1.326,4.918-1.326c1.598,0,3.162,0.368,4.697,1.105
		c1.535,0.736,2.783,1.731,3.74,2.984c0.959,1.252,1.438,2.604,1.438,4.053l-6.189,0.553c-0.223-0.713-0.621-1.283-1.197-1.713
		c-0.578-0.43-1.223-0.646-1.936-0.646c-0.982,0-1.861,0.362-2.635,1.087s-1.16,1.555-1.16,2.487c0,0.614,0.184,1.216,0.553,1.806
		s0.854,1.068,1.455,1.437s1.223,0.553,1.861,0.553s1.246-0.185,1.824-0.553c0.576-0.368,0.988-0.835,1.234-1.399l6.115,0.589
		c0,1.351-0.461,2.634-1.381,3.851c-0.922,1.216-2.119,2.191-3.594,2.929c-1.473,0.737-2.984,1.105-4.531,1.105
		C222.952,96.656,221.282,96.184,219.733,95.237z"/>
	<path fill="#D9A827" d="M249.135,96.398l-0.037-1.731c-0.662,0.564-1.486,1.02-2.469,1.363s-1.988,0.516-3.02,0.516
		c-1.623,0-3.121-0.447-4.496-1.345c-1.375-0.896-2.469-2.106-3.279-3.63c-0.811-1.522-1.215-3.192-1.215-5.011
		c0-1.842,0.416-3.524,1.252-5.048c0.834-1.522,1.982-2.72,3.445-3.592c1.461-0.872,3.076-1.309,4.844-1.309
		c0.959,0,1.861,0.16,2.709,0.479s1.529,0.761,2.045,1.326v-1.585h6.117l0.846,19.565H249.135z M246.704,89.877
		c0.59-0.393,1.057-0.915,1.4-1.565c0.344-0.651,0.516-1.346,0.516-2.082c0-1.008-0.326-1.848-0.977-2.524
		c-0.65-0.675-1.467-1.013-2.449-1.013c-1.082,0-2.027,0.381-2.838,1.143c-0.811,0.761-1.215,1.67-1.215,2.726
		c0,0.64,0.178,1.266,0.533,1.88c0.355,0.613,0.822,1.105,1.4,1.473c0.576,0.369,1.172,0.553,1.787,0.553
		C245.5,90.466,246.114,90.271,246.704,89.877z"/>
	<path fill="#D9A827" d="M286.754,96.398h-7.148l-0.037-10.243c0-1.351-0.152-2.284-0.459-2.8c-0.309-0.517-0.867-0.774-1.678-0.774
		c-0.613,0-1.111,0.375-1.492,1.124c-0.381,0.75-0.57,1.702-0.57,2.855l0.037,0.7l-0.037-0.11v9.138l-6.928,0.074l-0.074-10.207
		c0-1.129-0.209-2.008-0.625-2.635c-0.418-0.626-1.008-0.939-1.77-0.939c-0.785,0-1.387,0.332-1.805,0.995s-0.627,1.609-0.627,2.837
		l0.037,0.773l-0.037-0.073l0.295,9.321h-6.926V77.019l6.336-0.222l0.037,1.474c0.639-0.49,1.418-0.871,2.34-1.143
		c0.922-0.27,1.922-0.404,3.004-0.404c2.258,0,3.965,0.577,5.121,1.731c0.613-0.688,1.424-1.179,2.432-1.474
		c1.006-0.295,2.32-0.442,3.941-0.442c2.285,0,3.949,0.902,4.992,2.708c1.045,1.805,1.578,4.723,1.604,8.75L286.754,96.398z"/>
	<path fill="#D9A827" d="M301.676,96.398l-0.037-1.731c-0.662,0.564-1.486,1.02-2.469,1.363s-1.988,0.516-3.02,0.516
		c-1.623,0-3.121-0.447-4.496-1.345c-1.375-0.896-2.469-2.106-3.279-3.63c-0.811-1.522-1.215-3.192-1.215-5.011
		c0-1.842,0.416-3.524,1.252-5.048c0.834-1.522,1.982-2.72,3.445-3.592c1.461-0.872,3.076-1.309,4.844-1.309
		c0.959,0,1.861,0.16,2.709,0.479s1.529,0.761,2.045,1.326v-1.585h6.117l0.846,19.565H301.676z M299.245,89.877
		c0.59-0.393,1.057-0.915,1.4-1.565c0.344-0.651,0.516-1.346,0.516-2.082c0-1.008-0.326-1.848-0.977-2.524
		c-0.65-0.675-1.467-1.013-2.449-1.013c-1.082,0-2.027,0.381-2.838,1.143c-0.811,0.761-1.215,1.67-1.215,2.726
		c0,0.64,0.178,1.266,0.533,1.88c0.355,0.613,0.822,1.105,1.4,1.473c0.576,0.369,1.172,0.553,1.787,0.553
		C298.042,90.466,298.655,90.271,299.245,89.877z"/>
</g>
</svg>
