<?xml version="1.0" encoding="utf-8"?>
<!-- Generator: Adobe Illustrator 16.0.0, SVG Export Plug-In . SVG Version: 6.00 Build 0)  -->
<!DOCTYPE svg PUBLIC "-//W3C//DTD SVG 1.1//EN" "http://www.w3.org/Graphics/SVG/1.1/DTD/svg11.dtd">
<svg version="1.1" id="Layer_1" xmlns="http://www.w3.org/2000/svg" xmlns:xlink="http://www.w3.org/1999/xlink" x="0px" y="0px"
	 width="64px" height="64px" viewBox="0 0 64 64" enable-background="new 0 0 64 64" xml:space="preserve">
<g id="_x32_6_x5F_mountain_x5F_landscape">
	<g>
		<polyline fill="none" stroke="#E1A900" stroke-width="2" stroke-linejoin="round" stroke-miterlimit="10" points="1,59 20,29 
			25.066,36 		"/>
		<polyline fill="none" stroke="#E1A900" stroke-width="2" stroke-linejoin="round" stroke-miterlimit="10" points="48,33 44,37 
			41,34 36,40 31,35 		"/>
		<polyline fill="none" stroke="#E1A900" stroke-width="2" stroke-linejoin="round" stroke-miterlimit="10" points="26,42 40,19 
			63,59 		"/>
		<polyline fill="none" stroke="#E1A900" stroke-width="2" stroke-linejoin="round" stroke-miterlimit="10" points="43,59 37,53 
			32,53 25,46 12,59 		"/>
		<path fill="none" stroke="#E1A900" stroke-width="2" stroke-linejoin="round" stroke-miterlimit="10" d="M17,12
			c-0.061,0-0.117,0.016-0.178,0.018C16.414,10.846,15.311,10,14,10c-0.803,0-1.461,0.486-2,1c-0.312-1.613-1.795-3-3.5-3
			C6.567,8,5,9.567,5,11.5c0,0.173,0.026,0.339,0.051,0.505C5.033,12.005,5.018,12,5,12c-2.209,0-4,1.791-4,4s1.791,4,4,4h12
			c2.209,0,4-1.791,4-4S19.209,12,17,12z"/>
		
			<line fill="none" stroke="#E1A900" stroke-width="2" stroke-linejoin="round" stroke-miterlimit="10" x1="0" y1="63" x2="64" y2="63"/>
		<path fill="none" stroke="#E1A900" stroke-width="2" stroke-linejoin="round" stroke-miterlimit="10" d="M27.842,30
			C26.041,27.096,25,23.67,25,20C25,9.507,33.507,1,44,1s19,8.507,19,19c0,6.451-3.217,12.152-8.133,15.586"/>
	</g>
</g>
<g id="Layer_1_1_">
</g>
</svg>
