<?xml version="1.0" encoding="utf-8"?>
<!-- Generator: Adobe Illustrator 16.0.0, SVG Export Plug-In . SVG Version: 6.00 Build 0)  -->
<!DOCTYPE svg PUBLIC "-//W3C//DTD SVG 1.1//EN" "http://www.w3.org/Graphics/SVG/1.1/DTD/svg11.dtd">
<svg version="1.1" id="Layer_1" xmlns="http://www.w3.org/2000/svg" xmlns:xlink="http://www.w3.org/1999/xlink" x="0px" y="0px"
	 width="612px" height="792px" viewBox="0 0 612 792" enable-background="new 0 0 612 792" xml:space="preserve">
<g>
	<g>
		<path fill="#2D59A0" d="M558.156,551.13c-4.582-7.647-13.286-11.82-22.116-10.604c-11.809,1.63-23.854,2.456-35.8,2.456
			c-92.049,0-178.563-48.997-225.779-127.869c-54.253-90.626-49.144-204.378,13.016-289.796c5.245-7.208,5.678-16.853,1.099-24.501
			c-4.578-7.65-13.286-11.826-22.113-10.605c-40.999,5.657-79.926,19.383-115.699,40.798
			C5.376,218.042-42.095,407.129,44.939,552.514c87.3,145.83,276.143,192.844,421.506,105.824
			c35.772-21.414,66.258-49.241,90.611-82.708C562.301,568.422,562.734,558.777,558.156,551.13z M443.605,620.187
			c-126.174,75.534-287.207,31.95-360.516-90.512c-74.44-124.349-33.838-286.074,90.512-360.516
			c15.924-9.534,32.574-17.286,49.816-23.209c-44.797,92.214-41.054,201.886,12.892,292.001
			c53.643,89.612,148.2,144.99,251.34,149.236C474.268,599.609,459.553,610.64,443.605,620.187z"/>
	</g>
</g>
<g>
	<g>
		<path fill="#2D59A0" d="M415.729,217.684l-10.292-15.566c-1.163-1.76-1.482-3.947-0.866-5.966l5.433-17.854
			c1.932-6.347-5.145-11.625-10.678-7.967l-15.566,10.292c-1.76,1.163-3.947,1.482-5.966,0.866l-17.853-5.432
			c-6.347-1.931-11.625,5.145-7.967,10.678l10.292,15.566c1.163,1.759,1.482,3.947,0.866,5.966l-5.432,17.853
			c-1.933,6.347,5.144,11.625,10.678,7.967l15.567-10.292c1.759-1.163,3.946-1.482,5.966-0.867l17.853,5.432
			C414.109,230.292,419.39,223.215,415.729,217.684z"/>
	</g>
</g>
<g>
	<g>
		<path fill="#2D59A0" d="M569.636,381.549l-6.323-2.277c-1.984-0.714-3.549-2.278-4.263-4.262l-2.277-6.323
			c-2.248-6.242-11.075-6.242-13.322,0l-2.277,6.323c-0.715,1.984-2.278,3.549-4.263,4.262l-6.323,2.277
			c-6.241,2.247-6.241,11.075,0,13.323l6.323,2.277c1.984,0.715,3.549,2.278,4.263,4.263l2.277,6.323
			c2.247,6.241,11.074,6.241,13.322,0l2.277-6.323c0.715-1.984,2.278-3.549,4.263-4.263l6.323-2.277
			C575.878,392.626,575.878,383.798,569.636,381.549z"/>
	</g>
</g>
<g>
	<g>
		<path fill="#2D59A0" d="M605.945,135.522c-1.986-0.715-3.549-2.278-4.262-4.263c-2.248-6.243-11.075-6.243-13.323,0
			c-0.715,1.984-2.278,3.549-4.263,4.263c-6.242,2.247-6.242,11.075,0,13.323c1.984,0.715,3.549,2.278,4.263,4.263
			c2.247,6.242,11.074,6.242,13.323,0c0.715-1.984,2.278-3.549,4.262-4.263C612.188,146.598,612.188,137.771,605.945,135.522z"/>
	</g>
</g>
</svg>
