<?xml version="1.0" encoding="utf-8"?>
<!-- Generator: Adobe Illustrator 16.0.0, SVG Export Plug-In . SVG Version: 6.00 Build 0)  -->
<!DOCTYPE svg PUBLIC "-//W3C//DTD SVG 1.1//EN" "http://www.w3.org/Graphics/SVG/1.1/DTD/svg11.dtd">
<svg version="1.1" id="Capa_1" xmlns="http://www.w3.org/2000/svg" xmlns:xlink="http://www.w3.org/1999/xlink" x="0px" y="0px"
	 width="612px" height="792px" viewBox="0 0 612 792" enable-background="new 0 0 612 792" xml:space="preserve">
<g>
	<path fill="#C63030" d="M306.004,90C163.046,90,46.74,206.304,46.74,349.262c0,81.421,71.979,178.303,114.883,228.806
		c27.316,32.15,112.475,123.936,144.381,123.936c38.577,0,143.689-122.711,144.735-123.952
		c42.77-50.444,114.521-147.246,114.521-228.789C565.263,206.304,448.959,90,306.004,90z M469.939,347.348
		c0,89.844-73.098,162.941-162.947,162.941c-89.843,0-162.941-73.094-162.941-162.941c0-89.847,73.095-162.947,162.941-162.947
		C396.839,184.404,469.939,257.501,469.939,347.348z"/>
	<path fill="#C63030" d="M400.974,316.469l-64.185,0.008c-0.291-0.059-0.83-0.446-0.93-0.593l-19.876-61.163
		c-2.522-7.77-8.276-8.371-9.982-8.371c-1.703,0-7.457,0.604-9.979,8.371l-19.828,60.659c-0.144,0.263-0.684,0.318-0.847,0.318
		h-64.314c-8.168,0-10.522,5.671-11.048,7.291c-0.523,1.62-1.73,7.471,4.879,12.275l51.929,37.812
		c0.205,0.222,0.41,0.903,0.407,1.075l-19.875,61.191c-1.684,5.178-0.335,8.622,1.091,10.585c3.204,4.408,9.514,5.203,15.063,1.169
		l51.915-37.729c0.056-0.025,0.28-0.095,0.609-0.095c0.321,0,0.562,0.069,0.496,0.025l52.031,37.802
		c2.464,1.789,4.959,2.697,7.412,2.697c3.079,0,5.867-1.407,7.65-3.86c1.43-1.963,2.775-5.394,1.092-10.572l-19.84-61.041
		c-0.036-0.296,0.172-0.93,0.274-1.066l52.033-37.804c6.604-4.802,5.399-10.461,4.874-12.081
		C411.498,321.752,409.139,316.469,400.974,316.469z"/>
</g>
</svg>
