<?xml version="1.0" encoding="utf-8"?>
<!-- Generator: Adobe Illustrator 16.0.0, SVG Export Plug-In . SVG Version: 6.00 Build 0)  -->
<!DOCTYPE svg PUBLIC "-//W3C//DTD SVG 1.1//EN" "http://www.w3.org/Graphics/SVG/1.1/DTD/svg11.dtd">
<svg version="1.1" id="Capa_1" xmlns="http://www.w3.org/2000/svg" xmlns:xlink="http://www.w3.org/1999/xlink" x="0px" y="0px"
	 width="612px" height="792px" viewBox="0 0 612 792" enable-background="new 0 0 612 792" xml:space="preserve">
<circle fill="#B7C64A" cx="306" cy="396" r="306"/>
<g>
	<polygon fill="#FFFFFF" points="306,554.275 147.725,322.138 303.119,322.138 464.275,322.138 	"/>
	<path fill="#FFFFFF" d="M137.173,322.138c0-1.688,0.4-3.387,1.224-4.927c1.825-3.461,5.413-5.624,9.328-5.624h316.551
		c3.915,0,7.503,2.163,9.328,5.624c1.836,3.461,1.583,7.639-0.611,10.879L314.716,560.228c-1.963,2.869-5.224,4.6-8.716,4.6
		s-6.753-1.73-8.716-4.61L139.009,328.079C137.795,326.295,137.173,324.217,137.173,322.138z M444.301,332.689H167.688L306,535.547
		L444.301,332.689z"/>
</g>
</svg>
