<?xml version="1.0" encoding="utf-8"?>
<!-- Generator: Adobe Illustrator 16.0.0, SVG Export Plug-In . SVG Version: 6.00 Build 0)  -->
<!DOCTYPE svg PUBLIC "-//W3C//DTD SVG 1.1//EN" "http://www.w3.org/Graphics/SVG/1.1/DTD/svg11.dtd">
<svg version="1.1" id="Capa_1" xmlns="http://www.w3.org/2000/svg" xmlns:xlink="http://www.w3.org/1999/xlink" x="0px" y="0px"
	 width="512px" height="512px" viewBox="0 0 512 512" enable-background="new 0 0 512 512" xml:space="preserve">
<g id="_x34_4-18Plus_movie">
	<g>
		<path fill="#565656" d="M161.965,343.189V204.185h-32.134v-35.621h76.476v174.626H161.965L161.965,343.189z"/>
	</g>
	<g>
		<path fill="#565656" d="M372.953,213.65c0,15.195-8.22,28.646-21.921,36.121c19.18,7.97,31.138,24.661,31.138,44.091
			c0,31.387-27.9,51.316-71.493,51.316c-43.595,0-71.493-19.681-71.493-50.567c0-19.93,12.953-36.87,33.131-44.84
			c-14.697-8.222-24.164-22.17-24.164-37.365c0-27.902,24.414-45.587,62.277-45.587C348.789,166.819,372.953,185.004,372.953,213.65
			z M281.032,290.127c0,14.699,10.464,22.92,29.645,22.92s29.893-7.971,29.893-22.92c0-14.445-10.712-22.669-29.893-22.669
			C291.494,267.458,281.032,275.68,281.032,290.127z M285.518,216.142c0,12.458,8.968,19.43,25.159,19.43s25.159-6.973,25.159-19.43
			c0-12.95-8.968-20.176-25.159-20.176C294.484,195.966,285.518,203.191,285.518,216.142z"/>
	</g>
	<g>
		<path fill="#565656" d="M455.954,188.276c7.372,21.758,11.111,44.515,11.111,67.725c0,116.38-94.684,211.062-211.064,211.062
			c-116.381,0-211.066-94.683-211.066-211.062c0-116.383,94.683-211.063,211.064-211.063c23.214,0,45.97,3.736,67.725,11.111V9.08
			C301.75,3.056,279.055,0,256.001,0c-141.158,0-256,114.842-256,256.001s114.842,256.001,256,256.001
			c141.157,0,255.997-114.842,255.997-256.001c0-23.053-3.055-45.749-9.078-67.725H455.954L455.954,188.276z"/>
	</g>
	<g>
		<polygon fill="#565656" points="443.18,68.675 443.18,19.589 407.882,19.589 407.882,68.675 359.09,68.675 359.09,103.97 
			407.882,103.97 407.882,153.055 443.18,153.055 443.18,103.97 492.264,103.97 492.264,68.675 		"/>
	</g>
</g>
</svg>
