<?xml version="1.0" encoding="utf-8"?>
<!-- Generator: Adobe Illustrator 16.0.0, SVG Export Plug-In . SVG Version: 6.00 Build 0)  -->
<!DOCTYPE svg PUBLIC "-//W3C//DTD SVG 1.1//EN" "http://www.w3.org/Graphics/SVG/1.1/DTD/svg11.dtd">
<svg version="1.1" id="Layer_1" xmlns="http://www.w3.org/2000/svg" xmlns:xlink="http://www.w3.org/1999/xlink" x="0px" y="0px"
	 width="49px" height="48px" viewBox="0 0 49 48" enable-background="new 0 0 49 48" xml:space="preserve">
<g>
	<path d="M24.602,6C14.84,6,7,13.84,7,23.602c0,9.758,7.84,17.598,17.602,17.598c9.758,0,17.598-7.84,17.598-17.598
		C42.199,13.84,34.359,6,24.602,6L24.602,6z M34.199,24.398c0,0.48-0.32,0.801-0.801,0.801h-6.797c-0.242,0-0.402,0.16-0.402,0.403
		v6.796c0,0.48-0.32,0.801-0.801,0.801h-1.598c-0.48,0-0.801-0.32-0.801-0.801v-6.796c0-0.243-0.16-0.403-0.398-0.403h-6.801
		c-0.48,0-0.801-0.32-0.801-0.801v-1.598C15,22.32,15.32,22,15.801,22h6.801C22.84,22,23,21.84,23,21.602v-6.801
		C23,14.32,23.32,14,23.801,14h1.598c0.48,0,0.801,0.32,0.801,0.801v6.801c0,0.238,0.16,0.398,0.402,0.398h6.797
		c0.48,0,0.801,0.32,0.801,0.801V24.398z M34.199,24.398"/>
</g>
</svg>
