<?xml version="1.0" encoding="utf-8"?>
<!-- Generator: Adobe Illustrator 16.0.0, SVG Export Plug-In . SVG Version: 6.00 Build 0)  -->
<!DOCTYPE svg PUBLIC "-//W3C//DTD SVG 1.1//EN" "http://www.w3.org/Graphics/SVG/1.1/DTD/svg11.dtd">
<svg version="1.1" id="Capa_1" xmlns="http://www.w3.org/2000/svg" xmlns:xlink="http://www.w3.org/1999/xlink" x="0px" y="0px"
	 width="612px" height="792px" viewBox="0 0 612 792" enable-background="new 0 0 612 792" xml:space="preserve">
<path fill="#ED8A19" d="M467.506,702c-5.736,0-10.373-4.637-10.373-10.373s4.637-10.373,10.373-10.373h20.02
	c5.736,0,10.736,4.637,10.736,10.363c0,5.735-4.274,10.372-10.01,10.372v-10.372l-0.301,10.372L467.506,702z M426.015,702h-20.746
	c-5.736,0-10.373-4.637-10.373-10.373s4.637-10.373,10.373-10.373h20.746c5.735,0,10.372,4.637,10.372,10.373
	S431.75,702,426.015,702z M363.777,702h-20.746c-5.736,0-10.373-4.637-10.373-10.373s4.637-10.373,10.373-10.373h20.746
	c5.735,0,10.372,4.637,10.372,10.373S369.513,702,363.777,702z M301.54,702h-20.746c-5.736,0-10.373-4.637-10.373-10.373
	s4.637-10.373,10.373-10.373h20.746c5.736,0,10.373,4.637,10.373,10.373S307.275,702,301.54,702z M239.302,702h-20.746
	c-5.736,0-10.373-4.637-10.373-10.373s4.637-10.373,10.373-10.373h20.746c5.736,0,10.373,4.637,10.373,10.373
	S245.039,702,239.302,702z M177.065,702h-20.746c-5.736,0-10.373-4.637-10.373-10.373s4.637-10.373,10.373-10.373h20.746
	c5.736,0,10.373,4.637,10.373,10.373S182.801,702,177.065,702z M524.214,684.18c-2.24,0-4.501-0.727-6.399-2.22
	c-4.513-3.548-5.28-10.072-1.743-14.563c3.371-4.284,5.685-9.149,6.878-14.439c1.255-5.591,6.804-9.097,12.396-7.842
	c5.591,1.255,9.097,6.805,7.842,12.396c-1.847,8.215-5.581,16.067-10.809,22.696C530.334,682.82,527.295,684.18,524.214,684.18z
	 M524.225,626.475c-3.081,0-6.12-1.358-8.163-3.962c-3.319-4.222-7.614-7.718-12.417-10.104c-5.124-2.552-7.219-8.775-4.668-13.91
	c2.552-5.124,8.755-7.229,13.91-4.667c7.541,3.744,14.273,9.231,19.491,15.85c3.537,4.502,2.77,11.026-1.743,14.563
	C528.737,625.738,526.465,626.475,524.225,626.475z M467.516,608.645h-20.745c-5.736,0-10.373-4.637-10.373-10.373
	s4.637-10.373,10.373-10.373h20.745c5.736,0,10.373,4.637,10.373,10.373S473.252,608.645,467.516,608.645z M405.279,608.645h-20.746
	c-5.736,0-10.373-4.637-10.373-10.373s4.637-10.373,10.373-10.373h20.746c5.735,0,10.372,4.637,10.372,10.373
	S411.015,608.645,405.279,608.645z M343.644,604.433c-1.442,0-2.904-0.301-4.305-0.944c-7.635-3.484-14.543-8.754-19.989-15.217
	c-3.682-4.388-3.122-10.933,1.266-14.615s10.923-3.122,14.615,1.266c3.465,4.118,7.873,7.479,12.738,9.709
	c5.207,2.375,7.5,8.526,5.113,13.744C351.34,602.182,347.585,604.433,343.644,604.433z M317.203,553.149
	c-0.654,0-1.308-0.062-1.961-0.187c-5.633-1.079-9.304-6.525-8.236-12.147c1.608-8.392,5.011-16.14,10.093-23.048
	c3.402-4.616,9.886-5.592,14.502-2.21c4.615,3.402,5.601,9.896,2.209,14.501c-3.247,4.398-5.404,9.325-6.421,14.657
	C326.424,549.695,322.078,553.149,317.203,553.149z M360.811,515.34c-5.529,0-10.135-4.367-10.353-9.947
	c-0.229-5.726,4.212-10.56,9.938-10.788c0.882-0.041,1.764-0.062,2.655-0.062h18.516c5.736,0,10.373,4.637,10.373,10.373
	s-4.637,10.373-10.373,10.373l-20.32,0.042C361.101,515.34,360.955,515.34,360.811,515.34z M549.763,515.288h-2.23
	c-5.736,0-10.372-4.637-10.372-10.373s4.636-10.373,10.372-10.373h2.23c4.865,0,9.574-0.943,14.024-2.811
	c5.238-2.23,11.358,0.259,13.578,5.55c2.22,5.279-0.26,11.357-5.55,13.578C564.813,513.794,557.397,515.288,549.763,515.288z
	 M506.041,515.288h-20.746c-5.736,0-10.373-4.637-10.373-10.373s4.637-10.373,10.373-10.373h20.746
	c5.736,0,10.373,4.637,10.373,10.373S511.777,515.288,506.041,515.288z M443.804,515.288h-20.746
	c-5.736,0-10.372-4.637-10.372-10.373s4.636-10.373,10.372-10.373h20.746c5.736,0,10.373,4.637,10.373,10.373
	S449.54,515.288,443.804,515.288z M594.553,481.784c-0.965,0-1.95-0.136-2.915-0.415c-5.497-1.608-8.65-7.375-7.043-12.873
	c0.976-3.319,1.473-6.764,1.473-10.248c0.021-1.992-0.145-3.88-0.436-5.727c-0.912-5.653,2.936-10.984,8.6-11.887
	c5.632-0.934,10.975,2.936,11.887,8.599c0.488,3.039,0.716,6.1,0.695,9.087c0,5.384-0.768,10.788-2.303,16.005
	C603.183,478.849,599.044,481.784,594.553,481.784z M573.102,428.197c-1.764,0-3.558-0.446-5.196-1.4
	c-4.699-2.728-9.823-4.325-15.249-4.751c-5.715-0.445-9.979-5.435-9.532-11.15c0.446-5.726,5.456-9.947,11.151-9.533
	c8.536,0.664,16.638,3.195,24.033,7.489c4.959,2.874,6.649,9.232,3.766,14.18C580.166,426.341,576.681,428.197,573.102,428.197z
	 M511.975,421.933h-20.746c-5.736,0-10.373-4.637-10.373-10.373s4.637-10.373,10.373-10.373h20.746
	c5.736,0,10.373,4.637,10.373,10.373S517.711,421.933,511.975,421.933z M449.737,421.933h-20.746
	c-5.736,0-10.373-4.637-10.373-10.373s4.637-10.373,10.373-10.373h20.746c5.736,0,10.372,4.637,10.372,10.373
	S455.474,421.933,449.737,421.933z M387.5,421.933h-20.746c-5.736,0-10.373-4.637-10.373-10.373s4.637-10.373,10.373-10.373H387.5
	c5.736,0,10.373,4.637,10.373,10.373S393.236,421.933,387.5,421.933z M325.263,421.933h-3.703
	c-7.033-0.011-13.869-1.276-20.362-3.745c-5.353-2.043-8.028-8.039-5.996-13.392c2.054-5.362,8.081-8.018,13.391-5.995
	c4.129,1.576,8.496,2.375,12.987,2.386h3.683c5.736,0,10.373,4.637,10.373,10.373S330.999,421.933,325.263,421.933z
	 M277.205,389.828c-4.357,0-8.423-2.77-9.854-7.137c-1.888-5.726-2.832-11.721-2.832-17.82c0.01-2.469,0.166-4.865,0.456-7.199
	c0.706-5.664,5.726-9.657,11.586-8.994c5.685,0.706,9.72,5.902,8.994,11.587c-0.197,1.524-0.28,3.091-0.291,4.657
	c0,3.838,0.612,7.645,1.805,11.286c1.784,5.436-1.172,11.307-6.618,13.101C279.373,389.672,278.273,389.828,277.205,389.828z
	 M296.955,335.588c-3.465,0-6.846-1.732-8.817-4.886c-3.029-4.865-1.545-11.265,3.309-14.294c7.261-4.533,15.269-7.292,23.795-8.236
	c5.736-0.591,10.819,3.485,11.452,9.18c0.632,5.695-3.485,10.819-9.181,11.452c-5.404,0.602-10.486,2.354-15.082,5.217
	C300.72,335.08,298.833,335.588,296.955,335.588z M440.848,328.576h-20.746c-5.736,0-10.373-4.637-10.373-10.373
	c0-5.736,4.637-10.373,10.373-10.373h20.746c5.736,0,10.373,4.637,10.373,10.373C451.221,323.939,446.584,328.576,440.848,328.576z
	 M378.61,328.576h-20.746c-5.736,0-10.373-4.637-10.373-10.373c0-5.736,4.637-10.373,10.373-10.373h20.746
	c5.736,0,10.373,4.637,10.373,10.373C388.983,323.939,384.347,328.576,378.61,328.576z"/>
<path fill="#26B99A" d="M554.638,117.685L554.638,117.685c-32.747-36.917-85.846-36.917-118.593,0l0,0
	c-32.747,36.917-32.747,96.758,0,133.675l59.291,66.843l59.292-66.843C587.385,214.454,587.385,154.603,554.638,117.685z
	 M497.898,224.848c-25.776,0-46.678-20.901-46.678-46.678c0-25.776,20.901-46.678,46.678-46.678s46.678,20.901,46.678,46.678
	C544.576,203.946,523.675,224.848,497.898,224.848z"/>
<path fill="#3083C9" d="M199.968,387.079c-44.562-50.339-116.809-50.339-161.36,0l0,0c-44.562,50.34-44.562,131.954,0,182.283
	l80.68,91.146l80.68-91.146C244.53,519.022,244.53,437.408,199.968,387.079z M119.288,515.288c-28.64,0-51.864-23.225-51.864-51.864
	s23.225-51.864,51.864-51.864s51.864,23.225,51.864,51.864S147.928,515.288,119.288,515.288z"/>
</svg>
