<svg id="Capa_1" data-name="Capa 1" xmlns="http://www.w3.org/2000/svg" viewBox="0 0 298.62 53.34"><defs><style>.cls-1{fill:#fff;}.cls-2{fill:#ffb400;}</style></defs><title>logo</title><path class="cls-1" d="M7.1,14.15a5.07,5.07,0,0,1,.65-2.61,2.06,2.06,0,0,1,1.88-1.1H32.86a2.06,2.06,0,0,1,1.88,1.1,5.07,5.07,0,0,1,.65,2.61,5.13,5.13,0,0,1-.67,2.71A2.08,2.08,0,0,1,32.86,18H25.43V48.21a2.17,2.17,0,0,1-1.24,2,5.93,5.93,0,0,1-3,.7,5.93,5.93,0,0,1-3-.7,2.17,2.17,0,0,1-1.24-2V18H9.62a2.07,2.07,0,0,1-1.85-1.1A5.12,5.12,0,0,1,7.1,14.15Z" transform="translate(-7.1 -9.56)"/><path class="cls-1" d="M36.94,48.24V12.15a2.15,2.15,0,0,1,1.16-1.88,5.58,5.58,0,0,1,3-.72,5.79,5.79,0,0,1,3,.72,2.14,2.14,0,0,1,1.24,1.88v16.3a7.36,7.36,0,0,1,2.55-3,7,7,0,0,1,4.11-1.23,8,8,0,0,1,6.43,3.43,12.8,12.8,0,0,1,2.72,8.19V48.23a2.15,2.15,0,0,1-1.24,2,6,6,0,0,1-3,.69A5.72,5.72,0,0,1,54,50.17a2.16,2.16,0,0,1-1.26-1.93V35.88A4.15,4.15,0,0,0,51.6,33a3.57,3.57,0,0,0-2.72-1.27,3.41,3.41,0,0,0-2.5,1.13,4.12,4.12,0,0,0-1.1,3V48.24A2.28,2.28,0,0,1,44,50.06a5.23,5.23,0,0,1-2.93.83,5.16,5.16,0,0,1-3-.8A2.26,2.26,0,0,1,36.94,48.24Z" transform="translate(-7.1 -9.56)"/><path class="cls-1" d="M63.35,39.71v-4A10.65,10.65,0,0,1,67,27.59a12.38,12.38,0,0,1,8.74-3.37,12,12,0,0,1,8.17,3,9.63,9.63,0,0,1,3.39,7.57,8,8,0,0,1-.43,2.86,2.77,2.77,0,0,1-1.29,1.54,6,6,0,0,1-1.59.58,10.64,10.64,0,0,1-1.91.14H71.68v.34a4.13,4.13,0,0,0,1.51,3.33,6,6,0,0,0,4,1.26,8.74,8.74,0,0,0,4-1.05,8.24,8.24,0,0,1,2.77-1.05,2.57,2.57,0,0,1,2.2,1.3A4.51,4.51,0,0,1,87,46.46q0,1.72-2.88,3.35A14.26,14.26,0,0,1,77,51.44a14.58,14.58,0,0,1-9.81-3.24A10.63,10.63,0,0,1,63.35,39.71Zm8.33-4.65h6.67q1.13,0,1.13-1.2a2.54,2.54,0,0,0-1.16-2.2,4.74,4.74,0,0,0-2.77-.8,4.65,4.65,0,0,0-2.72.8,2.54,2.54,0,0,0-1.16,2.2Z" transform="translate(-7.1 -9.56)"/><path class="cls-2" d="M82.81,14.15a5.07,5.07,0,0,1,.65-2.61,2.06,2.06,0,0,1,1.88-1.1h23.23a2.06,2.06,0,0,1,1.88,1.1,5.07,5.07,0,0,1,.65,2.61,5.13,5.13,0,0,1-.67,2.71,2.08,2.08,0,0,1-1.86,1.1h-7.42V48.21a2.17,2.17,0,0,1-1.24,2,6.63,6.63,0,0,1-5.92,0,2.17,2.17,0,0,1-1.24-2V18H85.34a2.07,2.07,0,0,1-1.85-1.1A5.12,5.12,0,0,1,82.81,14.15Z" transform="translate(-7.1 -9.56)"/><path class="cls-2" d="M107.5,48.23V27.15a2.15,2.15,0,0,1,1.16-1.88,5.47,5.47,0,0,1,2.93-.72,4.61,4.61,0,0,1,2.64.73,2.2,2.2,0,0,1,1.08,1.9v2.06A9.35,9.35,0,0,1,118,25.72a5.78,5.78,0,0,1,3.74-1.5h1.56a2.6,2.6,0,0,1,2.07,1.11,4.08,4.08,0,0,1,.89,2.62,4.16,4.16,0,0,1-.89,2.68,2.6,2.6,0,0,1-2.07,1.11h-1.56A5.12,5.12,0,0,0,117.61,34,9.4,9.4,0,0,0,115.83,40v8.28a2.28,2.28,0,0,1-1.26,1.82,5.33,5.33,0,0,1-3,.83,5,5,0,0,1-2.9-.8A2.26,2.26,0,0,1,107.5,48.23Z" transform="translate(-7.1 -9.56)"/><path class="cls-2" d="M128.36,18.33a3.43,3.43,0,0,1-1.29-2.66A3.36,3.36,0,0,1,128.36,13a4.63,4.63,0,0,1,3.12-1.1,4.56,4.56,0,0,1,3.07,1.1,3.36,3.36,0,0,1,1.29,2.63,3.44,3.44,0,0,1-1.29,2.66,4.5,4.5,0,0,1-3.07,1.13A4.57,4.57,0,0,1,128.36,18.33Zm-1,29.9V27.15a2.15,2.15,0,0,1,1.16-1.88,5.58,5.58,0,0,1,3-.72,5.76,5.76,0,0,1,3,.72,2.14,2.14,0,0,1,1.21,1.88V48.23a2.29,2.29,0,0,1-1.24,1.83,5.77,5.77,0,0,1-5.92,0A2.26,2.26,0,0,1,127.34,48.23Z" transform="translate(-7.1 -9.56)"/><path class="cls-2" d="M139.17,60.24V27.15a2.15,2.15,0,0,1,1.16-1.88,5.25,5.25,0,0,1,2.82-.72,4.81,4.81,0,0,1,2.74.73,2.2,2.2,0,0,1,1.08,1.9v1.28a8.66,8.66,0,0,1,3-3,7.87,7.87,0,0,1,4.3-1.23,8.54,8.54,0,0,1,6.83,3.4,12.53,12.53,0,0,1,2.8,8.22v3.87A12.76,12.76,0,0,1,161,47.9q-2.82,3.54-6.53,3.54a7.46,7.46,0,0,1-4.22-1.31A7.35,7.35,0,0,1,147.5,47V60.23a2.29,2.29,0,0,1-1.26,1.83,5.31,5.31,0,0,1-3,.83,5.06,5.06,0,0,1-2.9-.8A2.26,2.26,0,0,1,139.17,60.24Zm8.34-19.83a3.67,3.67,0,0,0,1.21,2.19,3.65,3.65,0,0,0,5.59,0,4.17,4.17,0,0,0,1.21-2.93V35.86A4,4,0,0,0,154.31,33a3.91,3.91,0,0,0-5.62-.14,3.93,3.93,0,0,0-1.18,3Z" transform="translate(-7.1 -9.56)"/><path class="cls-1" d="M166.49,38.16V23.5q0-6.75,3.58-9.9a13.58,13.58,0,0,1,9.33-3.15,15.41,15.41,0,0,1,9.71,2.93,9.65,9.65,0,0,1,3.79,8.08q0,2.38-1,3.24a4.84,4.84,0,0,1-3.23.86q-4,0-4.19-2.6-.16-5-4.79-5-4.84,0-4.84,5.53V38.16q0,5.53,4.89,5.53a5.57,5.57,0,0,0,2.5-.5,2.91,2.91,0,0,0,1.43-1.52,9.41,9.41,0,0,0,.56-1.69,18.32,18.32,0,0,0,.24-1.83q.21-2.6,4.14-2.6a5,5,0,0,1,3.28.86q1,.86,1,3.24a10.34,10.34,0,0,1-3.79,8.46,14.84,14.84,0,0,1-9.71,3.1,13.59,13.59,0,0,1-9.33-3.15Q166.49,44.91,166.49,38.16Z" transform="translate(-7.1 -9.56)"/><path class="cls-1" d="M195.36,48.24V12.15a2.15,2.15,0,0,1,1.16-1.88,5.58,5.58,0,0,1,3-.72,5.79,5.79,0,0,1,3,.72,2.14,2.14,0,0,1,1.24,1.88v16.3a7.36,7.36,0,0,1,2.55-3,7,7,0,0,1,4.11-1.23,8,8,0,0,1,6.43,3.43,12.8,12.8,0,0,1,2.72,8.19V48.23a2.15,2.15,0,0,1-1.24,2,6,6,0,0,1-3,.69,5.72,5.72,0,0,1-2.88-.72,2.16,2.16,0,0,1-1.26-1.93V35.88A4.15,4.15,0,0,0,210,33a3.57,3.57,0,0,0-2.72-1.27,3.41,3.41,0,0,0-2.5,1.13,4.12,4.12,0,0,0-1.1,3V48.24a2.28,2.28,0,0,1-1.26,1.82,5.23,5.23,0,0,1-2.93.83,5.16,5.16,0,0,1-3-.8A2.26,2.26,0,0,1,195.36,48.24Z" transform="translate(-7.1 -9.56)"/><path class="cls-1" d="M221.77,39.71V35.84a11,11,0,0,1,3.6-8.16,12,12,0,0,1,8.6-3.46,12.17,12.17,0,0,1,8.6,3.43,10.85,10.85,0,0,1,3.66,8.19v3.87a11,11,0,0,1-3.68,8.19,12.12,12.12,0,0,1-17.13,0A11.07,11.07,0,0,1,221.77,39.71Zm8.33,0a4.33,4.33,0,0,0,1.13,2.93A3.52,3.52,0,0,0,234,43.92a3.6,3.6,0,0,0,2.77-1.29,4.27,4.27,0,0,0,1.16-2.93V35.86A4.06,4.06,0,0,0,236.72,33,3.66,3.66,0,0,0,234,31.74,3.57,3.57,0,0,0,231.26,33a4.11,4.11,0,0,0-1.16,2.85Z" transform="translate(-7.1 -9.56)"/><path class="cls-1" d="M249.79,18.33a3.43,3.43,0,0,1-1.29-2.66A3.36,3.36,0,0,1,249.79,13a4.63,4.63,0,0,1,3.12-1.1A4.56,4.56,0,0,1,256,13a3.36,3.36,0,0,1,1.29,2.63A3.44,3.44,0,0,1,256,18.33a4.5,4.5,0,0,1-3.07,1.13A4.57,4.57,0,0,1,249.79,18.33Zm-1,29.9V27.15a2.15,2.15,0,0,1,1.16-1.88,5.58,5.58,0,0,1,3-.72,5.76,5.76,0,0,1,3,.72,2.14,2.14,0,0,1,1.21,1.88V48.23a2.29,2.29,0,0,1-1.24,1.83,5.77,5.77,0,0,1-5.92,0A2.26,2.26,0,0,1,248.76,48.23Z" transform="translate(-7.1 -9.56)"/><path class="cls-1" d="M259.63,39.71V35.95a11.91,11.91,0,0,1,3-8.49q3-3.24,9.06-3.24a14,14,0,0,1,6.48,1.36q2.61,1.36,2.61,3.24a5,5,0,0,1-.94,2.79A2.72,2.72,0,0,1,277.59,33a7.33,7.33,0,0,1-2-.64,8.28,8.28,0,0,0-3.2-.64Q268,31.74,268,36v3.73q0,4.22,4.52,4.22a7,7,0,0,0,3.09-.72,6,6,0,0,1,2-.72,3.06,3.06,0,0,1,2.55,1.33,4.56,4.56,0,0,1,1,2.77q0,1.94-2.74,3.4a13.74,13.74,0,0,1-6.56,1.47q-6.13,0-9.17-3.21A11.88,11.88,0,0,1,259.63,39.71Z" transform="translate(-7.1 -9.56)"/><path class="cls-1" d="M281.78,39.71v-4a10.65,10.65,0,0,1,3.63-8.08,12.38,12.38,0,0,1,8.74-3.37,12,12,0,0,1,8.17,3,9.62,9.62,0,0,1,3.39,7.57,8,8,0,0,1-.43,2.86A2.77,2.77,0,0,1,304,39.16a5.94,5.94,0,0,1-1.59.58,10.65,10.65,0,0,1-1.91.14H290.12v.34a4.13,4.13,0,0,0,1.51,3.33,6,6,0,0,0,4,1.26,8.73,8.73,0,0,0,4-1.05,8.24,8.24,0,0,1,2.77-1.05,2.57,2.57,0,0,1,2.21,1.3,4.51,4.51,0,0,1,.86,2.46q0,1.72-2.88,3.35a14.26,14.26,0,0,1-7.12,1.63,14.58,14.58,0,0,1-9.81-3.24A10.63,10.63,0,0,1,281.78,39.71Zm8.33-4.65h6.67q1.13,0,1.13-1.2a2.54,2.54,0,0,0-1.16-2.2,4.74,4.74,0,0,0-2.77-.8,4.65,4.65,0,0,0-2.72.8,2.54,2.54,0,0,0-1.16,2.2Z" transform="translate(-7.1 -9.56)"/></svg>