<?xml version="1.0" encoding="utf-8"?>
<!-- Generator: Adobe Illustrator 16.0.0, SVG Export Plug-In . SVG Version: 6.00 Build 0)  -->
<!DOCTYPE svg PUBLIC "-//W3C//DTD SVG 1.1//EN" "http://www.w3.org/Graphics/SVG/1.1/DTD/svg11.dtd">
<svg version="1.1" id="Capa_1" xmlns="http://www.w3.org/2000/svg" xmlns:xlink="http://www.w3.org/1999/xlink" x="0px" y="0px"
	 width="512px" height="512px" viewBox="0 0 512 512" enable-background="new 0 0 512 512" xml:space="preserve">
<g>
	<path fill="#BA343E" d="M456.828,186.723c13.375,13.375,13.375,34.9,0,48.275c-6.688,6.688-15.36,10.031-24.138,10.031
		c-8.776,0-17.449-3.344-24.137-10.031L290.062,116.506v361.326C290.061,496.641,274.806,512,255.894,512
		c-18.808,0-34.167-15.255-34.167-34.168V116.506L103.444,234.998c-13.375,13.374-34.9,13.374-48.274,0
		c-13.375-13.375-13.375-34.9,0-48.275L231.861,10.031C238.234,3.657,246.907,0,255.998,0s17.764,3.553,24.137,10.031
		L456.828,186.723z"/>
</g>
</svg>
