<?xml version="1.0" encoding="utf-8"?>
<!-- Generator: Adobe Illustrator 16.0.0, SVG Export Plug-In . SVG Version: 6.00 Build 0)  -->
<!DOCTYPE svg PUBLIC "-//W3C//DTD SVG 1.1//EN" "http://www.w3.org/Graphics/SVG/1.1/DTD/svg11.dtd">
<svg version="1.1" id="Capa_1" xmlns="http://www.w3.org/2000/svg" xmlns:xlink="http://www.w3.org/1999/xlink" x="0px" y="0px"
	 width="512px" height="512px" viewBox="0 0 512 512" enable-background="new 0 0 512 512" xml:space="preserve">
<g>
	<g>
		<path fill="#963D4C" d="M255.993,350.883c-14.314,0-26.312,11.998-26.312,26.312s11.999,26.312,26.312,26.312
			c13.788,0,26.312-11.998,25.681-25.682C282.306,362.776,270.412,350.883,255.993,350.883z"/>
		<path fill="#963D4C" d="M499.541,444.134c16.523-28.522,16.629-62.519,0.21-90.936L334.931,67.762
			c-16.314-28.733-45.784-45.784-78.832-45.784c-33.048,0-62.519,17.156-78.832,45.678L12.235,353.409
			c-16.419,28.733-16.314,62.938,0.315,91.462c16.419,28.207,45.784,45.151,78.622,45.151h329.22
			C453.336,490.022,482.911,472.867,499.541,444.134z M463.756,423.505c-9.157,15.788-25.365,25.155-43.468,25.155H91.067
			c-17.893,0-33.996-9.157-42.942-24.629c-9.052-15.682-9.157-34.416-0.105-50.204L213.051,88.18
			c8.946-15.682,24.944-24.944,43.047-24.944c17.997,0,34.101,9.367,43.047,25.049l164.926,285.647
			C472.912,389.299,472.808,407.823,463.756,423.505z"/>
		<path fill="#963D4C" d="M249.468,166.17c-12.525,3.579-20.313,14.945-20.313,28.733c0.632,8.314,1.158,16.734,1.79,25.049
			c1.789,31.68,3.579,62.729,5.368,94.409c0.631,10.735,8.946,18.523,19.682,18.523s19.155-8.314,19.682-19.154
			c0-6.525,0-12.525,0.632-19.156c1.157-20.312,2.42-40.626,3.578-60.939c0.631-13.156,1.789-26.312,2.421-39.468
			c0-4.736-0.632-8.946-2.421-13.156C274.518,169.222,261.992,163.223,249.468,166.17z"/>
	</g>
</g>
</svg>
