<svg xmlns="http://www.w3.org/2000/svg" viewBox="0 0 476 476" width="476" height="476">
	<style>
		tspan { white-space:pre }
		.shp0 { fill: #000000 } 
	</style>
	<g id="Layer">
		<g id="Layer">
			<path id="Layer" class="shp0" d="M475.2,237.6c0,63.5 -24.7,123.1 -69.6,168c-44.9,44.9 -104.5,69.6 -168,69.6c-63.5,0 -123.1,-24.7 -168,-69.6c-44.9,-44.9 -69.6,-104.5 -69.6,-168c0,-63.5 24.7,-123.1 69.6,-168c44.9,-44.9 104.5,-69.6 168,-69.6c63.5,0 123.1,24.7 168,69.6c44.9,44.9 69.6,104.5 69.6,168zM386.5,88.7c-39.8,-39.8 -92.7,-61.7 -148.9,-61.7c-56.2,0 -109.1,21.9 -148.9,61.7c-82.1,82.1 -82.1,215.7 0,297.8c39.8,39.8 92.7,61.7 148.9,61.7c56.2,0 109.1,-21.9 148.9,-61.7c82.1,-82.1 82.1,-215.7 0,-297.8z" />
			<path id="Layer" class="shp0" d="M342.3,132.9c-5.3,-5.3 -13.8,-5.3 -19.1,0l-85.6,85.6l-85.6,-85.6c-5.3,-5.3 -13.8,-5.3 -19.1,0c-5.3,5.3 -5.3,13.8 0,19.1l85.6,85.6l-85.6,85.6c-5.3,5.3 -5.3,13.8 0,19.1c2.6,2.6 6.1,4 9.5,4c3.4,0 6.9,-1.3 9.5,-4l85.6,-85.6l85.6,85.6c2.6,2.6 6.1,4 9.5,4c3.5,0 6.9,-1.3 9.5,-4c5.3,-5.3 5.3,-13.8 0,-19.1l-85.4,-85.6l85.6,-85.6c5.3,-5.3 5.3,-13.8 0,-19.1z" />
		</g>
	</g>
	<g id="Layer">
	</g>
	<g id="Layer">
	</g>
	<g id="Layer">
	</g>
	<g id="Layer">
	</g>
	<g id="Layer">
	</g>
	<g id="Layer">
	</g>
	<g id="Layer">
	</g>
	<g id="Layer">
	</g>
	<g id="Layer">
	</g>
	<g id="Layer">
	</g>
	<g id="Layer">
	</g>
	<g id="Layer">
	</g>
	<g id="Layer">
	</g>
	<g id="Layer">
	</g>
	<g id="Layer">
	</g>
</svg>