<svg xmlns="http://www.w3.org/2000/svg" viewBox="0 0 464 139"><defs><style>.cls-1{fill:#fff;}.cls-2{fill:#317395;}.cls-3{fill:#db8827;}.cls-4{fill:#2e281f;}.cls-5{fill:#ec8123;}</style></defs><title>Mesa de trabajo 2</title><g id="Capa_2" data-name="Capa 2"><polygon class="cls-1" points="94.34 112.23 54.68 112.23 16.06 111 13.25 91.77 13.25 71.31 54.68 71.31 96.11 71.31 96.11 91.77 94.34 112.23"/><polygon class="cls-2" points="97.9 71.31 56.6 71.31 15.31 71.31 15.31 52.32 15.31 33.34 56.6 33.34 97.9 33.34 97.9 52.32 97.9 71.31"/><path class="cls-3" d="M101.64,94c0,2.27-1.41,3.69-1.72,4.81s-.14,2.35-.65,2.67a11.09,11.09,0,0,1-1.84.92c-.81.35-1.4.46-1.15-.07a10.26,10.26,0,0,0-.43-10.54C93.8,88.35,90,84.69,84.65,80c-1.48-1.32-3.49.67-5.53,2.59s-4.1,3.77-5.69,2.18c-4.24-4.24-7.61-8.11-10.11-10.82s-4.16-4.24-5-3.81l-.12.09a.66.66,0,0,0-.1.13c-2.22,3.78-4.1,9.16-6.47,13s-5.23,6.24-9.42,4c-2.22-1.2-5.34-4.73-8.28-6.58s-5.71-2-7.23,3.59a43.66,43.66,0,0,1-5.37,11.9c-2.19,3.27-4.48,5.26-6,4.14a14,14,0,0,1-3.08-3.24A6.69,6.69,0,0,1,10.85,94a45.39,45.39,0,0,1,90.79,0Z"/></g><g id="Layer_1" data-name="Layer 1"><path id="_Trazado_compuesto_" data-name="&lt;Trazado compuesto&gt;" class="cls-4" d="M41.39,86.87,36,81.52l-5.35-5.35-4.42,4.42L21.84,85l-1.74,1.74L18.35,88.5l-.8.8-.8.8V39.33A4.21,4.21,0,0,1,21,35.11H33.63l.24-.88c.06-.24.11-.41.14-.5l0-.14c0-.06,0-.12,0-.17a5.81,5.81,0,0,1,.24-1,2.52,2.52,0,0,1,.65-1l.19-.23.26-.36a7.53,7.53,0,0,1,.21-.89,2.07,2.07,0,0,1,.17-.41l0-.07,0-.07,0-.12,0-.12H21.21a11.65,11.65,0,0,0-2.66.3,9.45,9.45,0,0,0-2.49,1,10.55,10.55,0,0,0-3.93,3.79,9.88,9.88,0,0,0-1.39,5.07V90.14a43.34,43.34,0,0,0,3.58,17.31A44.06,44.06,0,0,0,18.49,115a44.88,44.88,0,0,0,5.58,6.61,45.48,45.48,0,0,0,14.46,9.53,46,46,0,0,0,8.66,2.62,47.07,47.07,0,0,0,18.11,0A46.12,46.12,0,0,0,81.66,127a45.42,45.42,0,0,0,6.77-5.45A44.88,44.88,0,0,0,94,115a44.06,44.06,0,0,0,4.17-7.51A43.25,43.25,0,0,0,100.85,99a43.79,43.79,0,0,0,.89-8.85V39.22a10.08,10.08,0,0,0-10.1-10.11H59.34l.08.13.07.13a14.5,14.5,0,0,1,.77,2c.21.66.37,1.23.43,1.43l.29.88.47,1.4v.06H91.65a4.08,4.08,0,0,1,1.57.31,4.13,4.13,0,0,1,1.33.9,4.08,4.08,0,0,1,1.2,2.9V89.34L89.5,83.1l-6.24-6.25-4,4.06-4,4.05L66.59,76.4,58,67.84M36.86,97.79l-1.31.8-1.31.8-.63.39-.63.38L31,102,29.1,103.8,26,98.69l-3.14-5.12,1.51-1.29L25.84,91l.43-2,.43-2L29,85.63l2.32-1.35.57-2,.57-2,3.22,3.79,3.22,3.78.84,1,.84,1-1.88,4Zm53.56,8.72-3.72,2.86L83,112.23l-4-1.87-4-1.87-7.62-5.56-7.62-5.56-3.27-4.91-3.27-4.92,1.81-2.63,1.81-2.64-.29-2.5-.28-2.51.7-3,.7-3,6.75,6.9,6.75,6.9,4.4,4.5,4.4,4.5h0l5.46,6,5.46,6-.27.2Zm4.18-4.22-.13.43-.13.42-5-4.71-5-4.71L83,92.37,81.61,91l.61-3.89.61-3.89.91-1.64L84.65,80l2.94,3.33,2.94,3.34,2.78,3.14,2.78,3.14a40.12,40.12,0,0,1-.48,4.76A39.25,39.25,0,0,1,94.6,102.29ZM61.75,35.11h-30v-6h30v6Z"/><polygon class="cls-4" points="66.75 35.11 48.75 35.11 30.75 35.11 30.75 32.11 30.75 29.11 48.75 29.11 66.75 29.11 66.75 32.11 66.75 35.11"/></g><g id="Capa_10" data-name="Capa 10"><polygon class="cls-1" points="92.34 42.52 85.8 42.52 83.44 47.11 86.65 52.8 88.86 52.8 91.52 49.59 92.34 42.52"/></g><g id="Capa_6" data-name="Capa 6"><path class="cls-4" d="M19.86,57.68S25.17,59.16,34,55.2c0,0,19.43,4.57,39.26-1.49,0,0-.29,3.14-8.32,7.4,0,0,13.65-2.69,19.35-5.09s6.47-4.65,6.47-4.65S93.93,54.23,93.8,50a1.63,1.63,0,0,1,2.36-1.76,4.62,4.62,0,0,0-1.56-2.12s-.94-.61-1-1.11a3.55,3.55,0,0,0,1.38.8c2.5-2,16.18-12.73,21.91-15.7,6.32-3.27,9.12-2.49,10.52-3.55,0,0-3,.47-4.91-.66,0,0,7.33-1.79,9.71-5.07,0,0-4.74,2.68-8.7,2.59,0,0,8.49-4.2,10.5-8.28,0,0-4.85,3.53-7.69,4,0,0,6.28-6.37,5.39-12,0,0-.6,9.1-17.44,19.1S94.15,38.94,89.58,40.56a24.3,24.3,0,0,0-9.47,3.36c-5,3-34,6.57-45.35,2.64S22.7,42.09,22.7,42.09s-1,3.83,10.87,6.08a27.66,27.66,0,0,1-15.15-.77s1.81,3.9,13.29,3.57c0,0-9.53,3.61-14.94.48,0,0,2.34,4.9,13.34,2.68A29.29,29.29,0,0,1,19.86,57.68ZM85.54,46.81c1.13-3.53,4.1-3.13,4.1-3.13,0,1.75,1.24,2,1.24,2-1.79.22-2.07,1.16-2,2.48a5.63,5.63,0,0,0,1.21,2.75C88.94,53.88,84.41,50.34,85.54,46.81Z"/></g><g id="Capa_8" data-name="Capa 8"><path class="cls-5" d="M147.32,85.28H124.74l-3,8.14a6,6,0,0,1-2.14,3.08,5.37,5.37,0,0,1-3.17,1,5.51,5.51,0,0,1-3.77-1.43,4.67,4.67,0,0,1-1.61-3.66,6.46,6.46,0,0,1,.44-2.27l15-38.37q1.72-4.69,4-6.36a10,10,0,0,1,11,0q2.29,1.67,4,6.36l15,38.37a6.88,6.88,0,0,1,.4,2.24,4.71,4.71,0,0,1-1.61,3.7,5.47,5.47,0,0,1-3.74,1.43,5.94,5.94,0,0,1-1.28-.15,5.59,5.59,0,0,1-4.07-4ZM136,54.28,127.38,78h17.3Z"/><path class="cls-5" d="M167.49,95.32q-2.09-2.31-4.25-8.8L150.88,51.86q-.11-.33-.2-.64a3.76,3.76,0,0,1-.13-.6l-.07-.59a4.72,4.72,0,0,1,0-.59,5.3,5.3,0,0,1,.29-1.76,4.94,4.94,0,0,1,.79-1.47,5.19,5.19,0,0,1,1.17-1.08,5.38,5.38,0,0,1,3.06-.93,5.38,5.38,0,0,1,1.74.29,6.31,6.31,0,0,1,1.67.88,6,6,0,0,1,1.45,1.56,9.11,9.11,0,0,1,1,2.22l12.13,36.24,12.09-36.24a7.19,7.19,0,0,1,2.4-3.7,5.7,5.7,0,0,1,3.54-1.25,5.33,5.33,0,0,1,3.72,1.47,4.94,4.94,0,0,1,1.59,3.81,5.38,5.38,0,0,1-.05.75q-.06.38-.15.79c-.06.27-.14.55-.24.84L184.31,86.53q-2.16,6.49-4.25,8.8t-6.27,2.31Q169.57,97.63,167.49,95.32Z"/><path class="cls-5" d="M192.25,96a5.53,5.53,0,0,1,0-7.81,5.42,5.42,0,0,1,4-1.63,5.61,5.61,0,0,1,4,1.56,5.19,5.19,0,0,1,1.65,3.94A5.35,5.35,0,0,1,200.3,96a5.44,5.44,0,0,1-4,1.63A5.52,5.52,0,0,1,192.25,96Z"/><path class="cls-1" d="M221.64,96.61a23.41,23.41,0,0,1-13.54-14,32.31,32.31,0,0,1-2-11.47,32.93,32.93,0,0,1,2-11.76,24.86,24.86,0,0,1,5.55-8.87A24.55,24.55,0,0,1,222.1,45,28.12,28.12,0,0,1,232.64,43a29.71,29.71,0,0,1,14.22,3.44,5.48,5.48,0,0,1,1.52,1.23,4.94,4.94,0,0,1,.88,1.45,4.34,4.34,0,0,1,.28,1.54,4.58,4.58,0,0,1-1.25,3.17,4,4,0,0,1-3.08,1.37,4.36,4.36,0,0,1-.86-.09,4.7,4.7,0,0,1-.9-.27l-1.19-.49-1.48-.6q-.48-.18-1.54-.53a17.24,17.24,0,0,0-1.87-.51q-.81-.17-1.92-.31a17,17,0,0,0-2.22-.15q-14.84,0-14.84,18.58,0,8.9,3.77,13.67t11,4.76a24.57,24.57,0,0,0,11.54-3.22,4.17,4.17,0,0,1,.77-.29,2.93,2.93,0,0,1,.77-.11,3.3,3.3,0,0,1,1.91.6,4.31,4.31,0,0,1,1.39,1.59,4.48,4.48,0,0,1,.51,2.09A4.87,4.87,0,0,1,247.73,94q-6.49,4.51-16,4.51A26.63,26.63,0,0,1,221.64,96.61Z"/><path class="cls-1" d="M254.79,95.64a6,6,0,0,1-1.72-4.42V50.58a6,6,0,0,1,1.72-4.42,5.62,5.62,0,0,1,4.14-1.74,5.68,5.68,0,0,1,4.16,1.74,6,6,0,0,1,1.74,4.42V65.31H286V50.58a6,6,0,0,1,1.74-4.42,5.8,5.8,0,0,1,8.28,0,6,6,0,0,1,1.74,4.42V91.22A6,6,0,0,1,296,95.64a5.68,5.68,0,0,1-4.16,1.74,5.61,5.61,0,0,1-4.14-1.74A6,6,0,0,1,286,91.22V74.69H264.83V91.22a6,6,0,0,1-1.74,4.42,5.68,5.68,0,0,1-4.16,1.74A5.62,5.62,0,0,1,254.79,95.64Z"/><path class="cls-1" d="M306.07,95.64a6,6,0,0,1-1.72-4.42V50.54a6.08,6.08,0,0,1,1.72-4.43,5.59,5.59,0,0,1,4.14-1.76,5.65,5.65,0,0,1,4.16,1.76,6,6,0,0,1,1.74,4.43V91.22a6,6,0,0,1-1.74,4.42,5.68,5.68,0,0,1-4.16,1.74A5.62,5.62,0,0,1,306.07,95.64Z"/><path class="cls-1" d="M324.19,95.09a10,10,0,0,1-1.54-5.62V50.58a6,6,0,0,1,1.72-4.42,5.82,5.82,0,0,1,8.3,0,6,6,0,0,1,1.74,4.42V88.47h19.75a4,4,0,0,1,3.08,1.32,4.71,4.71,0,0,1,0,6.3,4,4,0,0,1-3.08,1.32H328.58A5,5,0,0,1,324.19,95.09Z"/><path class="cls-1" d="M361.09,95.29a8.28,8.28,0,0,1-1.52-4.95V52.12a9.36,9.36,0,0,1,1.5-5.66q1.5-2,5.17-2h25a4.16,4.16,0,0,1,3.17,1.3,4.4,4.4,0,0,1,1.23,3.13,4.28,4.28,0,0,1-1.25,3.06,4.18,4.18,0,0,1-3.15,1.3H371.07V66h18.65a4.32,4.32,0,0,1,4.43,4.36,4.2,4.2,0,0,1-1.25,3.06,4.29,4.29,0,0,1-3.19,1.26H371.07V88.62h21a3.94,3.94,0,0,1,3.06,1.32,4.5,4.5,0,0,1,1.19,3.12,4.36,4.36,0,0,1-1.19,3.08,4,4,0,0,1-3.06,1.28H365.32A4.91,4.91,0,0,1,361.09,95.29Z"/></g></svg>